<svg width="64" height="64" viewBox="0 0 64 64" fill="none" xmlns="http://www.w3.org/2000/svg">
<path d="M39.5998 10.5335V20.6668H35.5998V10.5335C35.5998 9.81346 34.9598 9.4668 34.5332 9.4668C34.3998 9.4668 34.2665 9.49346 34.1332 9.5468L12.9865 17.5201C11.5732 18.0535 10.6665 19.3868 10.6665 20.9068V22.6935C8.23984 24.5068 6.6665 27.4135 6.6665 30.6935V20.9068C6.6665 17.7335 8.61317 14.9068 11.5732 13.7868L32.7465 5.7868C33.3332 5.57346 33.9465 5.4668 34.5332 5.4668C37.1998 5.4668 39.5998 7.6268 39.5998 10.5335Z" fill="#F27121"/>
<path d="M57.3335 38.6668V41.3335C57.3335 42.0535 56.7735 42.6402 56.0268 42.6668H52.1335C50.7201 42.6668 49.4401 41.6268 49.3335 40.2402C49.2535 39.4135 49.5735 38.6402 50.1068 38.1068C50.5868 37.6002 51.2535 37.3335 51.9735 37.3335H56.0002C56.7735 37.3602 57.3335 37.9468 57.3335 38.6668Z" fill="#F27121"/>
<path d="M51.9465 34.5332H54.6665C56.1332 34.5332 57.3332 33.3332 57.3332 31.8665V30.6932C57.3332 25.1732 52.8265 20.6665 47.3065 20.6665H16.6932C14.4265 20.6665 12.3465 21.4132 10.6665 22.6932C8.23984 24.5065 6.6665 27.4132 6.6665 30.6932V48.6398C6.6665 54.1598 11.1732 58.6665 16.6932 58.6665H47.3065C52.8265 58.6665 57.3332 54.1598 57.3332 48.6398V48.1332C57.3332 46.6665 56.1332 45.4665 54.6665 45.4665H52.3465C49.7865 45.4665 47.3332 43.8932 46.6665 41.4132C46.1065 39.3865 46.7732 37.4398 48.1065 36.1332C49.0932 35.1198 50.4532 34.5332 51.9465 34.5332ZM37.3332 33.9998H18.6665C17.5732 33.9998 16.6665 33.0932 16.6665 31.9998C16.6665 30.9065 17.5732 29.9998 18.6665 29.9998H37.3332C38.4265 29.9998 39.3332 30.9065 39.3332 31.9998C39.3332 33.0932 38.4265 33.9998 37.3332 33.9998Z" fill="#F27121"/>
</svg>
