<svg width="46" height="13" viewBox="0 0 46 13" fill="none" xmlns="http://www.w3.org/2000/svg">
<g clip-path="url(#clip0_1904_5407)">
<path d="M16.4204 12.9834H12.3268V5.36232H12.0556C11.2944 7.90326 10.5335 10.4412 9.77137 12.9851H6.66659C5.90653 10.4476 5.14442 7.90368 4.38068 5.35469H4.11888C4.10459 5.98898 4.11439 6.61987 4.11235 7.25076C4.11072 7.88461 4.11235 8.51847 4.11235 9.15233C4.11235 9.78619 4.11235 10.42 4.11235 11.0539C4.11235 11.6873 4.11235 12.3208 4.11235 12.9487C3.9596 13.0067 0.249543 13.0203 0 12.9656V0.0249579C0.0882181 0.0190261 0.173169 0.00885724 0.258119 0.00843354C1.52421 0.00758614 2.7903 0.00758614 4.05599 0.00758614C4.23242 0.00758614 4.40927 0.00207802 4.5853 0.00843354C5.3911 0.0380926 5.91755 0.488487 6.22836 1.22318C6.36967 1.55664 6.46361 1.91255 6.56203 2.26379C7.04723 3.99377 7.52631 5.72543 8.00824 7.45625C8.02662 7.52277 8.05153 7.5876 8.07563 7.65963H8.3656C8.38929 7.58379 8.41584 7.50625 8.43789 7.42744C8.98109 5.50257 9.52224 3.57684 10.0675 1.65282C10.1876 1.22869 10.3754 0.84143 10.6903 0.53001C11.0036 0.220284 11.3805 0.0558881 11.8069 0.0211446C12.0638 -4.04855e-05 12.3228 0.00885724 12.5809 0.00843354C13.7788 0.00758614 14.9766 0.00800984 16.1745 0.00800984H16.4094C16.4572 0.186812 16.4653 12.7436 16.4204 12.9839V12.9834Z" fill="white"/>
<path d="M31.1151 12.985H26.9431V5.36175H26.6111C26.5817 5.42361 26.5466 5.49098 26.5163 5.56089C25.6497 7.55737 24.7814 9.55343 23.9176 11.5512C23.5888 12.3113 23.0411 12.7897 22.2541 12.9693C22.1753 12.9871 22.0928 12.9952 22.0119 12.9952C20.8006 12.9968 19.5892 12.9964 18.3778 12.9956C18.3117 12.9956 18.2455 12.9884 18.165 12.9833V0.0523517C18.3055 -0.000610984 21.9833 -0.021796 22.3415 0.0311666C22.3472 0.120144 22.3587 0.214629 22.3587 0.309538C22.3595 2.6615 22.3595 5.01347 22.3595 7.36543V7.64719H22.6646C22.6964 7.58279 22.7356 7.50992 22.7691 7.43492C23.6476 5.45158 24.5282 3.4695 25.4014 1.48361C25.6525 0.912041 26.0091 0.453597 26.5699 0.185394C26.8137 0.0684523 27.0649 0.00447343 27.3381 0.00616823C28.5155 0.0125237 29.6926 0.00871044 30.8701 0.00871044C30.9505 0.00871044 31.0306 0.00871044 31.1045 0.00871044C31.1551 0.188783 31.1633 12.7477 31.1155 12.9854L31.1151 12.985Z" fill="white"/>
<path d="M45.9072 5.36833C45.8222 5.37256 45.7487 5.37892 45.6752 5.37892C43.2055 5.3785 40.7354 5.384 38.2657 5.37045C37.745 5.36748 37.2189 5.3785 36.7047 5.23867C35.9194 5.02555 35.2259 4.63532 34.6186 4.08494C33.7923 3.33668 33.1952 2.4253 32.853 1.34232C32.7219 0.927091 32.6296 0.502543 32.6055 0.0326579C32.6851 0.0292683 32.7623 0.0233365 32.8395 0.0233365C34.6765 0.021218 36.5136 0.0199469 38.3507 0.0182521C39.3782 0.0174047 40.4054 0.0182521 41.433 0.0161336C42.2294 0.0140151 42.9891 0.177564 43.6915 0.571182C44.9458 1.27368 45.6838 2.36683 45.9391 3.81334C46.024 4.29509 46.0244 4.77811 45.937 5.26028C45.9321 5.2874 45.9223 5.31367 45.9072 5.3679V5.36833Z" fill="white" fill-opacity="0.5"/>
<path d="M45.6296 6.20299C45.5132 6.56271 45.3445 6.87456 45.1362 7.16225C44.4411 8.12109 43.5042 8.69351 42.3921 8.97993C41.9804 9.08585 41.5618 9.12187 41.1382 9.12102C39.7774 9.11805 38.4165 9.12017 37.0557 9.12017C36.9756 9.12017 36.8952 9.12017 36.7939 9.12017V12.9483C36.6305 13.0068 33.0397 13.0191 32.7959 12.9665V6.22502C32.8037 6.21528 32.8077 6.20935 32.8126 6.20469C32.8175 6.20002 32.8229 6.19494 32.829 6.19367C32.8555 6.18816 32.8821 6.17969 32.9086 6.17969C37.1206 6.17969 41.3326 6.17969 45.5446 6.18053C45.5638 6.18053 45.583 6.19028 45.6304 6.20299H45.6296Z" fill="white"/>
</g>
<defs>
<clipPath id="clip0_1904_5407">
<rect width="46" height="13" fill="white"/>
</clipPath>
</defs>
</svg>
