<svg width="34" height="34" viewBox="0 0 34 34" fill="none" xmlns="http://www.w3.org/2000/svg">
<path d="M26.0002 11.73C25.9802 11.73 25.9502 11.73 25.9202 11.73C20.6302 11.2 15.3502 11 10.1202 11.53L8.08016 11.73C7.66016 11.77 7.29016 11.47 7.25016 11.05C7.21016 10.63 7.51016 10.27 7.92016 10.23L9.96016 10.03C15.2802 9.48998 20.6702 9.69998 26.0702 10.23C26.4802 10.27 26.7802 10.64 26.7402 11.05C26.7102 11.44 26.3802 11.73 26.0002 11.73Z" fill="currentColor"/>
<path d="M13.4998 10.72C13.4598 10.72 13.4198 10.72 13.3698 10.71C12.9698 10.64 12.6898 10.25 12.7598 9.85L12.9798 8.54C13.1398 7.58 13.3598 6.25 15.6898 6.25H18.3098C20.6498 6.25 20.8698 7.63 21.0198 8.55L21.2398 9.85C21.3098 10.26 21.0298 10.65 20.6298 10.71C20.2198 10.78 19.8298 10.5 19.7698 10.1L19.5498 8.8C19.4098 7.93 19.3798 7.76 18.3198 7.76H15.6998C14.6398 7.76 14.6198 7.9 14.4698 8.79L14.2398 10.09C14.1798 10.46 13.8598 10.72 13.4998 10.72Z" fill="currentColor"/>
<path d="M20.2099 27.7501H13.7899C10.2999 27.7501 10.1599 25.8201 10.0499 24.2601L9.3999 14.1901C9.3699 13.7801 9.6899 13.4201 10.0999 13.3901C10.5199 13.3701 10.8699 13.6801 10.8999 14.0901L11.5499 24.1601C11.6599 25.6801 11.6999 26.2501 13.7899 26.2501H20.2099C22.3099 26.2501 22.3499 25.6801 22.4499 24.1601L23.0999 14.0901C23.1299 13.6801 23.4899 13.3701 23.8999 13.3901C24.3099 13.4201 24.6299 13.7701 24.5999 14.1901L23.9499 24.2601C23.8399 25.8201 23.6999 27.7501 20.2099 27.7501Z" fill="currentColor"/>
<path d="M18.6601 22.25H15.3301C14.9201 22.25 14.5801 21.91 14.5801 21.5C14.5801 21.09 14.9201 20.75 15.3301 20.75H18.6601C19.0701 20.75 19.4101 21.09 19.4101 21.5C19.4101 21.91 19.0701 22.25 18.6601 22.25Z" fill="currentColor"/>
<path d="M19.5 18.25H14.5C14.09 18.25 13.75 17.91 13.75 17.5C13.75 17.09 14.09 16.75 14.5 16.75H19.5C19.91 16.75 20.25 17.09 20.25 17.5C20.25 17.91 19.91 18.25 19.5 18.25Z" fill="currentColor"/>
</svg>
