<svg width="25" height="24" viewBox="0 0 25 24" fill="none" xmlns="http://www.w3.org/2000/svg">
<path d="M7.74 2H5.84C3.65 2 2.5 3.15 2.5 5.33V7.23C2.5 9.41 3.65 10.56 5.83 10.56H7.73C9.91 10.56 11.06 9.41 11.06 7.23V5.33C11.07 3.15 9.92 2 7.74 2Z" fill="#F27121"/>
<path d="M19.1714 2H17.2714C15.0914 2 13.9414 3.15 13.9414 5.33V7.23C13.9414 9.41 15.0914 10.56 17.2714 10.56H19.1714C21.3514 10.56 22.5014 9.41 22.5014 7.23V5.33C22.5014 3.15 21.3514 2 19.1714 2Z" fill="currentColor"/>
<path d="M19.1714 13.4299H17.2714C15.0914 13.4299 13.9414 14.5799 13.9414 16.7599V18.6599C13.9414 20.8399 15.0914 21.9899 17.2714 21.9899H19.1714C21.3514 21.9899 22.5014 20.8399 22.5014 18.6599V16.7599C22.5014 14.5799 21.3514 13.4299 19.1714 13.4299Z" fill="#F27121"/>
<path d="M7.74 13.4299H5.84C3.65 13.4299 2.5 14.5799 2.5 16.7599V18.6599C2.5 20.8499 3.65 21.9999 5.83 21.9999H7.73C9.91 21.9999 11.06 20.8499 11.06 18.6699V16.7699C11.07 14.5799 9.92 13.4299 7.74 13.4299Z" fill="currentColor"/>
</svg>
