<svg width="32" height="32" viewBox="0 0 32 32" fill="none" xmlns="http://www.w3.org/2000/svg">
<path fill-rule="evenodd" clip-rule="evenodd" d="M0 16C0 24.8366 7.16344 32 16 32C24.8366 32 32 24.8366 32 16C32 7.16344 24.8366 0 16 0C7.16344 0 0 7.16344 0 16ZM26.0414 15.3877C26.0393 20.6322 21.773 24.8995 16.5274 24.9017H16.5234C14.9311 24.9011 13.3665 24.5016 11.9769 23.7436L6.93333 25.0667L8.28308 20.1366C7.45049 18.6937 7.01239 17.057 7.0131 15.3802C7.01519 10.1345 11.2832 5.86667 16.5273 5.86667C19.0724 5.86777 21.4612 6.85858 23.2575 8.65694C25.0537 10.4552 26.0424 12.8456 26.0414 15.3877Z" fill="currentColor"/>
<path fill-rule="evenodd" clip-rule="evenodd" d="M9.2193 22.8064L12.2122 22.0213L12.501 22.1926C13.7151 22.9131 15.1068 23.2944 16.5258 23.2949H16.529C20.8875 23.2949 24.4349 19.7474 24.4367 15.3871C24.4375 13.2741 23.6157 11.2874 22.1228 9.79267C20.6298 8.29794 18.6443 7.47437 16.5321 7.47363C12.1703 7.47363 8.62283 11.0207 8.62109 15.3807C8.62048 16.8749 9.03856 18.3301 9.83013 19.5891L10.0182 19.8883L9.2193 22.8064ZM20.9966 17.436C21.1624 17.5162 21.2743 17.5703 21.3222 17.6501C21.3816 17.7492 21.3816 18.2252 21.1836 18.7806C20.9854 19.3359 20.0357 19.8427 19.5789 19.9109C19.1694 19.9721 18.6511 19.9977 18.0816 19.8167C17.7363 19.7071 17.2936 19.5609 16.7264 19.3159C14.4978 18.3536 12.9917 16.1936 12.707 15.7854C12.6871 15.7568 12.6731 15.7368 12.6653 15.7264L12.6634 15.7238C12.5376 15.556 11.6947 14.4312 11.6947 13.2672C11.6947 12.1722 12.2325 11.5982 12.4801 11.334C12.4971 11.3159 12.5127 11.2993 12.5267 11.284C12.7446 11.046 13.0021 10.9865 13.1606 10.9865C13.3191 10.9865 13.4777 10.988 13.6162 10.9949C13.6333 10.9958 13.6511 10.9957 13.6695 10.9956C13.808 10.9948 13.9807 10.9938 14.1511 11.403C14.2166 11.5605 14.3126 11.794 14.4137 12.0403C14.6183 12.5383 14.8443 13.0885 14.884 13.1681C14.9435 13.2871 14.9831 13.4259 14.9039 13.5846C14.892 13.6084 14.881 13.6309 14.8705 13.6524C14.8109 13.7739 14.7672 13.8632 14.6661 13.9812C14.6264 14.0276 14.5854 14.0776 14.5443 14.1276C14.4625 14.2272 14.3808 14.3267 14.3095 14.3977C14.1905 14.5162 14.0667 14.6448 14.2053 14.8828C14.344 15.1208 14.8211 15.8993 15.5278 16.5297C16.2875 17.2073 16.9477 17.4937 17.2824 17.6388C17.3478 17.6672 17.4007 17.6901 17.4396 17.7096C17.6772 17.8286 17.8159 17.8087 17.9546 17.6501C18.0932 17.4914 18.5488 16.9559 18.7073 16.718C18.8657 16.4801 19.0243 16.5197 19.2421 16.599C19.4601 16.6784 20.6288 17.2534 20.8666 17.3724C20.913 17.3956 20.9564 17.4166 20.9966 17.436Z" fill="currentColor"/>
</svg>
