<svg width="49" height="29" viewBox="0 0 49 29" fill="none" xmlns="http://www.w3.org/2000/svg">
<path d="M48.7617 14.5C48.7617 22.4564 42.2925 29 34.2617 29C26.3053 29 19.7617 22.4564 19.7617 14.5C19.7617 6.54359 26.231 0 34.1874 0C42.2925 0 48.7617 6.54359 48.7617 14.5Z" fill="#717171"/>
<path d="M29.3544 14.5744C29.3544 13.5333 29.2056 12.4923 29.0569 11.5256H20.1338C20.2082 11.0051 20.3569 10.559 20.5056 9.9641H28.462C28.3133 9.44359 28.0903 8.92308 27.8672 8.40256H21.1005C21.3236 7.88205 21.621 7.4359 21.9185 6.84103H27.0492C26.7518 6.32051 26.38 5.8 25.9338 5.27949H23.1082C23.5544 4.75897 24.0005 4.31282 24.5954 3.79231C22.0672 1.41282 18.6467 0 14.8544 0C6.9723 0.223077 0.428711 6.54359 0.428711 14.5C0.428711 22.4564 6.89794 29 14.9287 29C18.721 29 22.0672 27.5128 24.6697 25.2077C25.1903 24.7615 25.6364 24.241 26.1569 23.6462H23.1826C22.8108 23.2 22.439 22.6795 22.1415 22.159H27.1979C27.4954 21.7128 27.7928 21.1923 28.0159 20.5974H21.2492C21.0261 20.1513 20.8031 19.6308 20.6544 19.0359H28.6108C29.0569 17.6974 29.3544 16.2103 29.3544 14.5744Z" fill="#4D4D4D"/>
<path d="M20.0618 18.2183L20.2849 16.8799C20.2105 16.8799 20.0618 16.9542 19.9131 16.9542C19.3926 16.9542 19.3182 16.6568 19.3926 16.5081L19.8387 13.8311H20.6567L20.8798 12.344H20.1362L20.2849 11.4517H18.7234C18.7234 11.4517 17.8311 16.5081 17.8311 17.1029C17.8311 17.9953 18.3516 18.4414 19.0952 18.4414C19.5413 18.4414 19.9131 18.2927 20.0618 18.2183Z" fill="white"/>
<path d="M20.582 15.764C20.582 17.9204 22.0692 18.4409 23.259 18.4409C24.3743 18.4409 24.8949 18.2178 24.8949 18.2178L25.1923 16.7306C25.1923 16.7306 24.3743 17.1024 23.5564 17.1024C21.8461 17.1024 22.1436 15.8383 22.1436 15.8383H25.2666C25.2666 15.8383 25.4897 14.8716 25.4897 14.4255C25.4897 13.4588 24.9692 12.1947 23.259 12.1947C21.7718 12.1204 20.582 13.8306 20.582 15.764ZM23.259 13.5332C24.0769 13.5332 23.9282 14.4998 23.9282 14.5742H22.2179C22.2923 14.4998 22.441 13.5332 23.259 13.5332Z" fill="white"/>
<path d="M32.9982 18.2183L33.2957 16.508C33.2957 16.508 32.5521 16.8798 31.9572 16.8798C30.9162 16.8798 30.3957 16.0619 30.3957 15.0952C30.3957 13.2362 31.288 12.2695 32.4034 12.2695C33.1469 12.2695 33.8162 12.7157 33.8162 12.7157L34.0393 11.0798C34.0393 11.0798 33.1469 10.708 32.2546 10.708C30.47 10.708 28.7598 12.2695 28.7598 15.1695C28.7598 17.1029 29.6521 18.367 31.511 18.367C32.1803 18.4413 32.9982 18.2183 32.9982 18.2183Z" fill="white"/>
<path d="M11.6578 12.1206C10.6168 12.1206 9.79884 12.418 9.79884 12.418L9.57576 13.7565C9.57576 13.7565 10.245 13.4591 11.286 13.4591C11.8065 13.4591 12.2527 13.5334 12.2527 13.9796C12.2527 14.277 12.1783 14.3514 12.1783 14.3514H11.5091C10.1706 14.3514 8.75781 14.8719 8.75781 16.6565C8.75781 18.0693 9.65012 18.3668 10.245 18.3668C11.286 18.3668 11.8065 17.6975 11.8809 17.6975L11.8065 18.2924H13.0706L13.6655 14.0539C13.6655 12.195 12.1783 12.1206 11.6578 12.1206ZM11.9552 15.5411C11.9552 15.7642 11.8065 17.0283 10.9142 17.0283C10.4681 17.0283 10.3194 16.6565 10.3194 16.4334C10.3194 16.0616 10.5424 15.5411 11.7322 15.5411C11.8809 15.5411 11.9552 15.5411 11.9552 15.5411Z" fill="white"/>
<path d="M15.1529 18.3669C15.5247 18.3669 17.458 18.4413 17.458 16.3592C17.458 14.4259 15.5991 14.7977 15.5991 14.0541C15.5991 13.6823 15.8965 13.5336 16.417 13.5336C16.6401 13.5336 17.458 13.6079 17.458 13.6079L17.6811 12.1951C17.6811 12.1951 17.1606 12.0464 16.1939 12.0464C15.0786 12.0464 13.8888 12.4925 13.8888 14.0541C13.8888 15.8387 15.8222 15.69 15.8222 16.3592C15.8222 16.8054 15.3016 16.8797 14.9298 16.8797C14.2606 16.8797 13.517 16.6566 13.517 16.6566L13.2939 18.0695C13.4427 18.2182 13.8888 18.3669 15.1529 18.3669Z" fill="white"/>
<path d="M45.7856 10.9312L45.4882 13.0132C45.4882 13.0132 44.8933 12.2696 44.001 12.2696C42.5882 12.2696 41.3984 13.9799 41.3984 15.9876C41.3984 17.2517 41.9933 18.5158 43.3318 18.5158C44.2241 18.5158 44.819 17.9209 44.819 17.9209L44.7446 18.4414H46.3061L47.4215 11.0799L45.7856 10.9312ZM45.042 14.9465C45.042 15.7645 44.6702 16.8799 43.7779 16.8799C43.2574 16.8799 42.96 16.4337 42.96 15.6158C42.96 14.3517 43.4805 13.6081 44.2241 13.6081C44.7446 13.6824 45.042 14.0542 45.042 14.9465Z" fill="white"/>
<path d="M3.25378 18.2927L4.14609 12.7901L4.29481 18.2927H5.33583L7.34352 12.7901L6.52558 18.2927H8.16147L9.42558 10.9312H6.89737L5.33583 15.467L5.26147 10.9312H3.0307L1.7666 18.2927H3.25378Z" fill="white"/>
<path d="M27.0501 18.2926C27.4963 15.7644 27.5706 13.6824 28.686 14.0541C28.8347 13.0875 29.0578 12.6413 29.2065 12.2695H28.9091C28.2398 12.2695 27.645 13.1618 27.645 13.1618L27.7937 12.3439H26.3065L25.3398 18.2926H27.0501Z" fill="white"/>
<path d="M36.5689 12.1206C35.5279 12.1206 34.71 12.418 34.71 12.418L34.4869 13.7565C34.4869 13.7565 35.1561 13.4591 36.1971 13.4591C36.7177 13.4591 37.1638 13.5334 37.1638 13.9796C37.1638 14.277 37.0895 14.3514 37.0895 14.3514H36.4202C35.0818 14.3514 33.6689 14.8719 33.6689 16.6565C33.6689 18.0693 34.5613 18.3668 35.1561 18.3668C36.1972 18.3668 36.7177 17.6975 36.792 17.6975L36.7177 18.2924H38.1305L38.7254 14.0539C38.7254 12.195 37.0895 12.1206 36.5689 12.1206ZM36.9407 15.5411C36.9407 15.7642 36.792 17.0283 35.8997 17.0283C35.4536 17.0283 35.3048 16.6565 35.3048 16.4334C35.3048 16.0616 35.5279 15.5411 36.7177 15.5411C36.8664 15.5411 36.8664 15.5411 36.9407 15.5411Z" fill="white"/>
<path d="M39.9153 18.2926C40.3615 15.7644 40.4358 13.6824 41.5512 14.0541C41.6999 13.0875 41.923 12.6413 42.0717 12.2695H41.7743C41.1051 12.2695 40.5102 13.1618 40.5102 13.1618L40.6589 12.3439H39.1717L38.2051 18.2926H39.9153Z" fill="white"/>
</svg>
