<svg width="32" height="32" viewBox="0 0 32 32" fill="none" xmlns="http://www.w3.org/2000/svg">
<path opacity="0.5" d="M16.0013 30.3334C8.09464 30.3334 1.66797 23.9067 1.66797 16.0001C1.66797 8.09342 8.09464 1.66675 16.0013 1.66675C23.908 1.66675 30.3346 8.09342 30.3346 16.0001C30.3346 23.9067 23.908 30.3334 16.0013 30.3334ZM16.0013 3.66675C9.2013 3.66675 3.66797 9.20008 3.66797 16.0001C3.66797 22.8001 9.2013 28.3334 16.0013 28.3334C22.8013 28.3334 28.3346 22.8001 28.3346 16.0001C28.3346 9.20008 22.8013 3.66675 16.0013 3.66675Z" fill="white"/>
<path d="M14.1059 20.7732C13.8393 20.7732 13.5859 20.6666 13.3993 20.4799L9.62594 16.7066C9.23927 16.3199 9.23927 15.6799 9.62594 15.2932C10.0126 14.9066 10.6526 14.9066 11.0393 15.2932L14.1059 18.3599L20.9593 11.5066C21.3459 11.1199 21.9859 11.1199 22.3726 11.5066C22.7593 11.8932 22.7593 12.5332 22.3726 12.9199L14.8126 20.4799C14.6259 20.6666 14.3726 20.7732 14.1059 20.7732Z" fill="#F27121"/>
</svg>
