<svg width="80" height="69" viewBox="0 0 80 69" fill="none" xmlns="http://www.w3.org/2000/svg">
<path d="M74.6668 20.1336C74.6668 21.8936 73.2268 23.3336 71.4668 23.3336H24.5335C22.7735 23.3336 21.3335 21.8936 21.3335 20.1336V20.1069C21.3335 14.0002 26.2668 9.06689 32.3735 9.06689H63.6002C69.7068 9.06689 74.6668 14.0269 74.6668 20.1336Z" fill="#F27121" fill-opacity="0.5"/>
<path d="M21.3335 30.5335V43.8935C21.3335 50.0002 26.2668 54.9335 32.3735 54.9335H63.6002C69.7068 54.9335 74.6668 49.9735 74.6668 43.8668V30.5335C74.6668 28.7735 73.2268 27.3335 71.4668 27.3335H24.5335C22.7735 27.3335 21.3335 28.7735 21.3335 30.5335ZM37.3335 46.0002H32.0002C30.9068 46.0002 30.0002 45.0935 30.0002 44.0002C30.0002 42.9068 30.9068 42.0002 32.0002 42.0002H37.3335C38.4268 42.0002 39.3335 42.9068 39.3335 44.0002C39.3335 45.0935 38.4268 46.0002 37.3335 46.0002ZM54.6668 46.0002H44.0002C42.9068 46.0002 42.0002 45.0935 42.0002 44.0002C42.0002 42.9068 42.9068 42.0002 44.0002 42.0002H54.6668C55.7602 42.0002 56.6668 42.9068 56.6668 44.0002C56.6668 45.0935 55.7602 46.0002 54.6668 46.0002Z" fill="#F27121" fill-opacity="0.5"/>
<path d="M58.6668 25.1336C58.6668 26.8936 57.2268 28.3336 55.4668 28.3336H8.5335C6.7735 28.3336 5.3335 26.8936 5.3335 25.1336V25.1069C5.3335 19.0002 10.2668 14.0669 16.3735 14.0669H47.6002C53.7068 14.0669 58.6668 19.0269 58.6668 25.1336Z" fill="#F27121"/>
<path d="M5.3335 35.5335V48.8935C5.3335 55.0002 10.2668 59.9335 16.3735 59.9335H47.6002C53.7068 59.9335 58.6668 54.9735 58.6668 48.8668V35.5335C58.6668 33.7735 57.2268 32.3335 55.4668 32.3335H8.5335C6.7735 32.3335 5.3335 33.7735 5.3335 35.5335ZM21.3335 51.0002H16.0002C14.9068 51.0002 14.0002 50.0935 14.0002 49.0002C14.0002 47.9068 14.9068 47.0002 16.0002 47.0002H21.3335C22.4268 47.0002 23.3335 47.9068 23.3335 49.0002C23.3335 50.0935 22.4268 51.0002 21.3335 51.0002ZM38.6668 51.0002H28.0002C26.9068 51.0002 26.0002 50.0935 26.0002 49.0002C26.0002 47.9068 26.9068 47.0002 28.0002 47.0002H38.6668C39.7602 47.0002 40.6668 47.9068 40.6668 49.0002C40.6668 50.0935 39.7602 51.0002 38.6668 51.0002Z" fill="#F27121"/>
</svg>
