<svg width="64" height="64" viewBox="0 0 64 64" fill="none" xmlns="http://www.w3.org/2000/svg">
<path d="M58.6667 40C58.6667 50.32 50.32 58.6667 40 58.6667L42.8 54" stroke="#F27121" stroke-width="1.5" stroke-linecap="round" stroke-linejoin="round"/>
<path d="M5.3335 24.0002C5.3335 13.6802 13.6802 5.3335 24.0002 5.3335L21.2002 10.0002" stroke="#F27121" stroke-width="1.5" stroke-linecap="round" stroke-linejoin="round"/>
<path d="M58.6667 11.2002V11.4935C58.6667 12.2402 58.08 12.8268 57.3333 12.8268H33.3333C32.5867 12.8268 32 12.2402 32 11.4935V11.2002C32 6.50683 33.1733 5.3335 37.92 5.3335H52.7467C57.4933 5.3335 58.6667 6.50683 58.6667 11.2002Z" fill="#F27121"/>
<path d="M33.3333 15.4932C32.5867 15.4932 32 16.0798 32 16.8265V19.4932V22.1332C32 26.8265 33.1733 27.9998 37.92 27.9998H52.7467C57.4933 27.9998 58.6667 26.8265 58.6667 22.1332V19.4932V16.8265C58.6667 16.0798 58.08 15.4932 57.3333 15.4932H33.3333Z" fill="#F27121"/>
<path d="M32.0002 41.8667V42.16C32.0002 42.9067 31.4135 43.4933 30.6668 43.4933H6.66683C5.92016 43.4933 5.3335 42.9067 5.3335 42.16V41.8667C5.3335 37.1733 6.50683 36 11.2535 36H26.0802C30.8268 36 32.0002 37.1733 32.0002 41.8667Z" fill="#F27121"/>
<path d="M6.66683 46.1602C5.92016 46.1602 5.3335 46.7468 5.3335 47.4935V50.1602V52.8002C5.3335 57.4935 6.50683 58.6668 11.2535 58.6668H26.0802C30.8268 58.6668 32.0002 57.4935 32.0002 52.8002V50.1602V47.4935C32.0002 46.7468 31.4135 46.1602 30.6668 46.1602H6.66683Z" fill="#F27121"/>
</svg>
