<svg width="16" height="16" viewBox="0 0 16 16" fill="none" xmlns="http://www.w3.org/2000/svg">
<path d="M7.99998 14.6666C11.6819 14.6666 14.6666 11.6818 14.6666 7.99992C14.6666 4.31802 11.6819 1.33325 7.99998 1.33325C4.31808 1.33325 1.33331 4.31802 1.33331 7.99992C1.33331 11.6818 4.31808 14.6666 7.99998 14.6666Z" fill="#11A857"/>
<path d="M7.05334 10.3867C6.92 10.3867 6.79334 10.3334 6.7 10.2401L4.81333 8.3534C4.62 8.16007 4.62 7.84007 4.81333 7.64673C5.00667 7.4534 5.32667 7.4534 5.52 7.64673L7.05334 9.18007L10.48 5.7534C10.6733 5.56007 10.9933 5.56007 11.1867 5.7534C11.38 5.94673 11.38 6.26673 11.1867 6.46006L7.40667 10.2401C7.31334 10.3334 7.18667 10.3867 7.05334 10.3867Z" fill="white"/>
</svg>
