<svg width="48" height="48" viewBox="0 0 48 48" fill="none" xmlns="http://www.w3.org/2000/svg">
<path d="M40.4199 15.6399L25.0199 24.5599C24.3999 24.9199 23.6199 24.9199 22.9799 24.5599L7.57994 15.6399C6.47994 14.9999 6.19994 13.4999 7.03994 12.5599C7.61994 11.8999 8.27994 11.3599 8.97994 10.9799L19.8199 4.97988C22.1399 3.67988 25.8999 3.67988 28.2199 4.97988L39.0599 10.9799C39.7599 11.3599 40.4199 11.9199 40.9999 12.5599C41.7999 13.4999 41.5199 14.9999 40.4199 15.6399Z" fill="#F27121"/>
<path d="M22.86 28.2798V41.9198C22.86 43.4398 21.32 44.4398 19.96 43.7798C15.84 41.7598 8.89996 37.9798 8.89996 37.9798C6.45996 36.5998 4.45996 33.1198 4.45996 30.2598V19.9398C4.45996 18.3598 6.11996 17.3598 7.47996 18.1398L21.86 26.4798C22.46 26.8598 22.86 27.5398 22.86 28.2798Z" fill="#F27121"/>
<path d="M25.1399 28.2798V41.9198C25.1399 43.4398 26.6799 44.4398 28.0399 43.7798C32.1599 41.7598 39.0999 37.9798 39.0999 37.9798C41.5399 36.5998 43.5399 33.1198 43.5399 30.2598V19.9398C43.5399 18.3598 41.8799 17.3598 40.5199 18.1398L26.1399 26.4798C25.5399 26.8598 25.1399 27.5398 25.1399 28.2798Z" fill="#F27121"/>
</svg>
