<svg width="25" height="24" viewBox="0 0 25 24" fill="none" xmlns="http://www.w3.org/2000/svg">
<path d="M10.75 5.92988C10.75 6.11988 10.6771 6.30988 10.5208 6.45988L4.75 11.9999L10.5208 17.5399C10.8229 17.8299 10.8229 18.3099 10.5208 18.5999C10.2188 18.8899 9.71875 18.8899 9.41667 18.5999L3.09375 12.5299C2.79167 12.2399 2.79167 11.7599 3.09375 11.4699L9.41667 5.39988C9.71875 5.10988 10.2187 5.10988 10.5208 5.39988C10.6771 5.53988 10.75 5.73988 10.75 5.92988Z" fill="#F27121"/>
<path d="M22.1348 12C22.1348 12.41 21.7806 12.75 21.3535 12.75L3.82227 12.75C3.39518 12.75 3.04102 12.41 3.04102 12C3.04102 11.59 3.39518 11.25 3.82227 11.25L21.3535 11.25C21.7806 11.25 22.1348 11.59 22.1348 12Z" fill="currentColor"/>
</svg>
