<svg xmlns="http://www.w3.org/2000/svg" xmlns:xlink="http://www.w3.org/1999/xlink"><defs>
<clipPath id="clip0_1768_5008">
<rect width="24" height="24" fill="white"/>
</clipPath>
</defs><symbol id="icon-arrow-left" viewBox="0 0 24 24"><g fill="none">
<path d="M15 18L9 12L15 6" stroke="currentColor" stroke-width="3" stroke-linecap="round" stroke-linejoin="round"/>
</g></symbol><symbol id="icon-arrow-right" viewBox="0 0 24 24"><g fill="none">
<path d="M9 6L15 12L9 18" stroke="currentColor" stroke-width="3" stroke-linecap="round" stroke-linejoin="round"/>
</g></symbol><symbol id="icon-basket" viewBox="0 0 32 32"><g fill="none">
<path fill-rule="evenodd" clip-rule="evenodd" d="M6.85593 12.4C6.83849 11.0932 7.86147 10.019 9.14157 10H22.8555C24.1356 10.019 25.1586 11.0932 25.1411 12.4V23.2C25.1767 25.814 23.1303 27.9627 20.5698 28H11.4272C8.8667 27.9627 6.82033 25.814 6.85593 23.2V12.4Z" stroke="#F27121" stroke-width="1.5" stroke-linecap="round" stroke-linejoin="round"/>
<path d="M20.5688 13.6V8.8C20.6044 6.18604 18.5581 4.03729 15.9975 4C13.437 4.03729 11.3906 6.18604 11.4262 8.8V13.6" stroke="currentColor" stroke-width="1.5" stroke-linecap="round" stroke-linejoin="round"/>
</g></symbol><symbol id="icon-call" viewBox="0 0 25 24"><g fill="none">
<path d="M22.47 18.33C22.47 18.69 22.39 19.06 22.22 19.42C22.05 19.78 21.83 20.12 21.54 20.44C21.05 20.98 20.51 21.37 19.9 21.62C19.3 21.87 18.65 22 17.95 22C16.93 22 15.84 21.76 14.69 21.27C13.54 20.78 12.39 20.12 11.25 19.29C10.1 18.45 9.01 17.52 7.97 16.49C6.94 15.45 6.01 14.36 5.18 13.22C4.36 12.08 3.7 10.94 3.22 9.81C2.74 8.67 2.5 7.58 2.5 6.54C2.5 5.86 2.62 5.21 2.86 4.61C3.1 4 3.48 3.44 4.01 2.94C4.65 2.31 5.35 2 6.09 2C6.37 2 6.65 2.06 6.9 2.18C7.16 2.3 7.39 2.48 7.57 2.74L9.89 6.01C10.07 6.26 10.2 6.49 10.29 6.71C10.38 6.92 10.43 7.13 10.43 7.32C10.43 7.56 10.36 7.8 10.22 8.03C10.09 8.26 9.9 8.5 9.66 8.74L8.9 9.53C8.79 9.64 8.74 9.77 8.74 9.93C8.74 10.01 8.75 10.08 8.77 10.16C8.8 10.24 8.83 10.3 8.85 10.36C9.03 10.69 9.34 11.12 9.78 11.64C10.23 12.16 10.71 12.69 11.23 13.22C11.77 13.75 12.29 14.24 12.82 14.69C13.34 15.13 13.77 15.43 14.11 15.61C14.16 15.63 14.22 15.66 14.29 15.69C14.37 15.72 14.45 15.73 14.54 15.73C14.71 15.73 14.84 15.67 14.95 15.56L15.71 14.81C15.96 14.56 16.2 14.37 16.43 14.25C16.66 14.11 16.89 14.04 17.14 14.04C17.33 14.04 17.53 14.08 17.75 14.17C17.97 14.26 18.2 14.39 18.45 14.56L21.76 16.91C22.02 17.09 22.2 17.3 22.31 17.55C22.41 17.8 22.47 18.05 22.47 18.33Z" fill="currentColor"/>
</g></symbol><symbol id="icon-category" viewBox="0 0 25 24"><g fill="none">
<path d="M7.74 2H5.84C3.65 2 2.5 3.15 2.5 5.33V7.23C2.5 9.41 3.65 10.56 5.83 10.56H7.73C9.91 10.56 11.06 9.41 11.06 7.23V5.33C11.07 3.15 9.92 2 7.74 2Z" fill="#F27121"/>
<path d="M19.1714 2H17.2714C15.0914 2 13.9414 3.15 13.9414 5.33V7.23C13.9414 9.41 15.0914 10.56 17.2714 10.56H19.1714C21.3514 10.56 22.5014 9.41 22.5014 7.23V5.33C22.5014 3.15 21.3514 2 19.1714 2Z" fill="currentColor"/>
<path d="M19.1714 13.4299H17.2714C15.0914 13.4299 13.9414 14.5799 13.9414 16.7599V18.6599C13.9414 20.8399 15.0914 21.9899 17.2714 21.9899H19.1714C21.3514 21.9899 22.5014 20.8399 22.5014 18.6599V16.7599C22.5014 14.5799 21.3514 13.4299 19.1714 13.4299Z" fill="#F27121"/>
<path d="M7.74 13.4299H5.84C3.65 13.4299 2.5 14.5799 2.5 16.7599V18.6599C2.5 20.8499 3.65 21.9999 5.83 21.9999H7.73C9.91 21.9999 11.06 20.8499 11.06 18.6699V16.7699C11.07 14.5799 9.92 13.4299 7.74 13.4299Z" fill="currentColor"/>
</g></symbol><symbol id="icon-check-circle" viewBox="0 0 32 32"><g fill="none">
<path opacity="0.5" d="M16.0013 30.3334C8.09464 30.3334 1.66797 23.9067 1.66797 16.0001C1.66797 8.09342 8.09464 1.66675 16.0013 1.66675C23.908 1.66675 30.3346 8.09342 30.3346 16.0001C30.3346 23.9067 23.908 30.3334 16.0013 30.3334ZM16.0013 3.66675C9.2013 3.66675 3.66797 9.20008 3.66797 16.0001C3.66797 22.8001 9.2013 28.3334 16.0013 28.3334C22.8013 28.3334 28.3346 22.8001 28.3346 16.0001C28.3346 9.20008 22.8013 3.66675 16.0013 3.66675Z" fill="white"/>
<path d="M14.1059 20.7732C13.8393 20.7732 13.5859 20.6666 13.3993 20.4799L9.62594 16.7066C9.23927 16.3199 9.23927 15.6799 9.62594 15.2932C10.0126 14.9066 10.6526 14.9066 11.0393 15.2932L14.1059 18.3599L20.9593 11.5066C21.3459 11.1199 21.9859 11.1199 22.3726 11.5066C22.7593 11.8932 22.7593 12.5332 22.3726 12.9199L14.8126 20.4799C14.6259 20.6666 14.3726 20.7732 14.1059 20.7732Z" fill="#F27121"/>
</g></symbol><symbol id="icon-check" viewBox="0 0 14 14"><g fill="none">
<path d="M11.6673 3.7915L5.25065 10.2082L2.33398 7.2915" stroke="white" stroke-width="1.5" stroke-linecap="round" stroke-linejoin="round"/>
</g></symbol><symbol id="icon-chevron-down" viewBox="0 0 14 8"><g fill="none">
<path d="M13 1L7 7L1 1" stroke="currentColor" stroke-width="2" stroke-linecap="round" stroke-linejoin="round"/>
</g></symbol><symbol id="icon-email" viewBox="0 0 24 24"><g fill="none">
<path d="M17 3.5H7C4 3.5 2 5 2 8.5V15.5C2 19 4 20.5 7 20.5H17C20 20.5 22 19 22 15.5V8.5C22 5 20 3.5 17 3.5ZM17.47 9.59L14.34 12.09C13.68 12.62 12.84 12.88 12 12.88C11.16 12.88 10.31 12.62 9.66 12.09L6.53 9.59C6.21 9.33 6.16 8.85 6.41 8.53C6.67 8.21 7.14 8.15 7.46 8.41L10.59 10.91C11.35 11.52 12.64 11.52 13.4 10.91L16.53 8.41C16.85 8.15 17.33 8.2 17.58 8.53C17.84 8.85 17.79 9.33 17.47 9.59Z" fill="#F27121"/>
</g></symbol><symbol id="icon-location" viewBox="0 0 24 24"><g fill="none">
<g clip-path="url(#clip0_1768_5008)">
<path d="M20.6211 8.45C19.5711 3.83 15.5411 1.75 12.0011 1.75C12.0011 1.75 12.0011 1.75 11.9911 1.75C8.46107 1.75 4.42107 3.82 3.37107 8.44C2.20107 13.6 5.36107 17.97 8.22107 20.72C9.28107 21.74 10.6411 22.25 12.0011 22.25C13.3611 22.25 14.7211 21.74 15.7711 20.72C18.6311 17.97 21.7911 13.61 20.6211 8.45ZM12.0011 13.46C10.2611 13.46 8.85107 12.05 8.85107 10.31C8.85107 8.57 10.2611 7.16 12.0011 7.16C13.7411 7.16 15.1511 8.57 15.1511 10.31C15.1511 12.05 13.7411 13.46 12.0011 13.46Z" fill="#F27121"/>
</g>

</g></symbol><symbol id="icon-telegram" viewBox="0 0 32 32"><g fill="none">
<path fill-rule="evenodd" clip-rule="evenodd" d="M0 16C0 24.8366 7.16344 32 16 32C24.8366 32 32 24.8366 32 16C32 7.16344 24.8366 0 16 0C7.16344 0 0 7.16344 0 16ZM13.0667 23.3333L13.3389 19.2548L13.3387 19.2547L20.7579 12.5593C21.0836 12.2703 20.6868 12.1294 20.2546 12.3915L11.0982 18.1682L7.14312 16.9338C6.289 16.6723 6.28287 16.0853 7.33488 15.6634L22.7469 9.72057C23.4508 9.401 24.1302 9.88964 23.8615 10.967L21.2368 23.3354C21.0535 24.2143 20.5225 24.4245 19.7867 24.0185L15.7885 21.0646L13.8667 22.9333C13.8606 22.9392 13.8546 22.9451 13.8486 22.9509C13.6336 23.1602 13.4558 23.3333 13.0667 23.3333Z" fill="currentColor"/>
</g></symbol><symbol id="icon-vk" viewBox="0 0 32 32"><g fill="none">
<path fill-rule="evenodd" clip-rule="evenodd" d="M16 0C7.16344 0 0 7.16344 0 16C0 24.8366 7.16344 32 16 32C24.8366 32 32 24.8366 32 16C32 7.16344 24.8366 0 16 0ZM17.3028 21.0508C17.145 21.2171 16.837 21.2507 16.837 21.2507H15.8169C15.8169 21.2507 13.5665 21.3835 11.584 19.358C9.42206 17.1481 7.51303 12.7637 7.51303 12.7637C7.51303 12.7637 7.40284 12.4761 7.52221 12.3376C7.6566 12.1811 8.02305 12.1713 8.02305 12.1713L10.4613 12.1557C10.4613 12.1557 10.6908 12.1926 10.8553 12.3114C10.9914 12.4097 11.0673 12.5924 11.0673 12.5924C11.0673 12.5924 11.4613 13.5708 11.983 14.4557C13.0022 16.1837 13.4763 16.5615 13.8219 16.3763C14.3261 16.1067 14.175 13.9338 14.175 13.9338C14.175 13.9338 14.1842 13.1455 13.9213 12.794C13.7176 12.522 13.3336 12.4425 13.1642 12.4204C13.0264 12.4024 13.2518 12.0894 13.544 11.9492C13.983 11.7387 14.7577 11.7264 15.6734 11.7354C16.3871 11.7428 16.5924 11.7862 16.8712 11.8526C17.5183 12.0058 17.4981 12.497 17.4545 13.5571C17.4414 13.8742 17.4263 14.2421 17.4263 14.6671C17.4263 14.7626 17.4235 14.8644 17.4205 14.9691C17.4054 15.5122 17.3881 16.1342 17.7527 16.3656C17.9397 16.4836 18.3963 16.3828 19.539 14.4786C20.0807 13.5757 20.4864 12.5146 20.4864 12.5146C20.4864 12.5146 20.5757 12.3253 20.7135 12.2442C20.8545 12.1615 21.0449 12.1869 21.0449 12.1869L23.6108 12.1713C23.6108 12.1713 24.3821 12.0803 24.5065 12.4228C24.6375 12.7809 24.2185 13.6183 23.1701 14.9899C22.1756 16.2914 21.6916 16.7706 21.736 17.1943C21.7685 17.504 22.0831 17.7841 22.6868 18.3338C23.947 19.4823 24.2848 20.0866 24.366 20.2318C24.3727 20.2438 24.3777 20.2527 24.3813 20.2585C24.9464 21.1786 23.7544 21.2507 23.7544 21.2507L21.4747 21.2819C21.4747 21.2819 20.9856 21.3769 20.3412 20.9426C20.0036 20.7154 19.6738 20.3441 19.3596 19.9905C18.8798 19.4506 18.4365 18.9517 18.0582 19.0696C17.423 19.2678 17.4422 20.6108 17.4422 20.6108C17.4422 20.6108 17.4472 20.8984 17.3028 21.0508Z" fill="currentColor"/>
</g></symbol><symbol id="icon-whatsapp" viewBox="0 0 32 32"><g fill="none">
<path fill-rule="evenodd" clip-rule="evenodd" d="M0 16C0 24.8366 7.16344 32 16 32C24.8366 32 32 24.8366 32 16C32 7.16344 24.8366 0 16 0C7.16344 0 0 7.16344 0 16ZM26.0414 15.3877C26.0393 20.6322 21.773 24.8995 16.5274 24.9017H16.5234C14.9311 24.9011 13.3665 24.5016 11.9769 23.7436L6.93333 25.0667L8.28308 20.1366C7.45049 18.6937 7.01239 17.057 7.0131 15.3802C7.01519 10.1345 11.2832 5.86667 16.5273 5.86667C19.0724 5.86777 21.4612 6.85858 23.2575 8.65694C25.0537 10.4552 26.0424 12.8456 26.0414 15.3877Z" fill="currentColor"/>
<path fill-rule="evenodd" clip-rule="evenodd" d="M9.2193 22.8064L12.2122 22.0213L12.501 22.1926C13.7151 22.9131 15.1068 23.2944 16.5258 23.2949H16.529C20.8875 23.2949 24.4349 19.7474 24.4367 15.3871C24.4375 13.2741 23.6157 11.2874 22.1228 9.79267C20.6298 8.29794 18.6443 7.47437 16.5321 7.47363C12.1703 7.47363 8.62283 11.0207 8.62109 15.3807C8.62048 16.8749 9.03856 18.3301 9.83013 19.5891L10.0182 19.8883L9.2193 22.8064ZM20.9966 17.436C21.1624 17.5162 21.2743 17.5703 21.3222 17.6501C21.3816 17.7492 21.3816 18.2252 21.1836 18.7806C20.9854 19.3359 20.0357 19.8427 19.5789 19.9109C19.1694 19.9721 18.6511 19.9977 18.0816 19.8167C17.7363 19.7071 17.2936 19.5609 16.7264 19.3159C14.4978 18.3536 12.9917 16.1936 12.707 15.7854C12.6871 15.7568 12.6731 15.7368 12.6653 15.7264L12.6634 15.7238C12.5376 15.556 11.6947 14.4312 11.6947 13.2672C11.6947 12.1722 12.2325 11.5982 12.4801 11.334C12.4971 11.3159 12.5127 11.2993 12.5267 11.284C12.7446 11.046 13.0021 10.9865 13.1606 10.9865C13.3191 10.9865 13.4777 10.988 13.6162 10.9949C13.6333 10.9958 13.6511 10.9957 13.6695 10.9956C13.808 10.9948 13.9807 10.9938 14.1511 11.403C14.2166 11.5605 14.3126 11.794 14.4137 12.0403C14.6183 12.5383 14.8443 13.0885 14.884 13.1681C14.9435 13.2871 14.9831 13.4259 14.9039 13.5846C14.892 13.6084 14.881 13.6309 14.8705 13.6524C14.8109 13.7739 14.7672 13.8632 14.6661 13.9812C14.6264 14.0276 14.5854 14.0776 14.5443 14.1276C14.4625 14.2272 14.3808 14.3267 14.3095 14.3977C14.1905 14.5162 14.0667 14.6448 14.2053 14.8828C14.344 15.1208 14.8211 15.8993 15.5278 16.5297C16.2875 17.2073 16.9477 17.4937 17.2824 17.6388C17.3478 17.6672 17.4007 17.6901 17.4396 17.7096C17.6772 17.8286 17.8159 17.8087 17.9546 17.6501C18.0932 17.4914 18.5488 16.9559 18.7073 16.718C18.8657 16.4801 19.0243 16.5197 19.2421 16.599C19.4601 16.6784 20.6288 17.2534 20.8666 17.3724C20.913 17.3956 20.9564 17.4166 20.9966 17.436Z" fill="currentColor"/>
</g></symbol><symbol id="icon-youtube" viewBox="0 0 32 32"><g fill="none">
<path fill-rule="evenodd" clip-rule="evenodd" d="M16 0C7.16344 0 0 7.16344 0 16C0 24.8366 7.16344 32 16 32C24.8366 32 32 24.8366 32 16C32 7.16344 24.8366 0 16 0ZM22.6677 10.4996C23.4021 10.7011 23.9804 11.2948 24.1767 12.0488C24.5333 13.4154 24.5333 16.2667 24.5333 16.2667C24.5333 16.2667 24.5333 19.1179 24.1767 20.4845C23.9804 21.2385 23.4021 21.8323 22.6677 22.0339C21.3369 22.4 16 22.4 16 22.4C16 22.4 10.6631 22.4 9.33217 22.0339C8.59782 21.8323 8.01949 21.2385 7.82322 20.4845C7.46667 19.1179 7.46667 16.2667 7.46667 16.2667C7.46667 16.2667 7.46667 13.4154 7.82322 12.0488C8.01949 11.2948 8.59782 10.7011 9.33217 10.4996C10.6631 10.1333 16 10.1333 16 10.1333C16 10.1333 21.3369 10.1333 22.6677 10.4996Z" fill="currentColor"/>
<path d="M14.3984 19.2V13.8667L18.6651 16.5335L14.3984 19.2Z" fill="currentColor"/>
</g></symbol></svg>