<svg width="679" height="257" viewBox="0 0 679 257" fill="none" xmlns="http://www.w3.org/2000/svg">
<g clip-path="url(#clip0_1417_33482)">
<path d="M214.001 123.588C214.135 86.7555 228.387 56.4386 254.435 31.7012C271.894 15.1265 292.625 5.40487 316.043 1.65997C350.706 -3.88681 382.091 4.47603 409.556 26.6172C433.421 45.8603 448.483 71.113 454.081 102.011C456.577 115.789 456.699 129.643 454.669 143.471C452.715 156.789 442.517 162.789 433.248 164.145C421.027 165.933 409.026 157.338 406.038 145.003C404.988 140.664 405.496 136.296 405.904 131.947C408.033 109.169 400.884 89.7488 385.713 73.3185C373.69 60.2984 358.743 53.6685 341.449 51.8206C305.344 47.9609 279.58 72.3437 269.925 94.6228C264.882 106.258 263.139 118.448 264.186 131.117C266.283 156.478 278.641 175.265 299.343 188.442C312.873 197.058 327.875 199.418 343.527 197.691C348.931 197.097 354.13 197.333 359.135 199.674C369.141 204.351 375.091 215.707 373.383 226.886C371.679 238.052 362.959 246.821 352.126 248.311C330.961 251.223 310.18 249.637 290.461 240.937C256.213 225.826 231.815 200.813 219.881 163.967C215.648 150.901 213.944 137.372 214.001 123.588Z" fill="#F27121"/>
<path d="M438.855 256.986C424.888 256.943 413.917 245.443 414 230.933C414.08 216.957 425.2 205.663 438.947 205.595C452.784 205.526 464.262 217.289 464 231.54C463.706 247.488 450.965 257.409 438.858 256.986H438.855Z" fill="#F27121"/>
<path d="M174 181.574H141.055M141.055 181.574H23V166.687L127.327 23H141.055V234V181.574Z" stroke="black" stroke-width="45" stroke-linejoin="round"/>
<path d="M175.5 204C187.926 204 198 193.926 198 181.5C198 169.074 187.926 159 175.5 159C163.074 159 153 169.074 153 181.5C153 193.926 163.074 204 175.5 204Z" fill="black"/>
<path d="M655 181.574H622.055M622.055 181.574H504V166.687L608.327 23H622.055V234V181.574Z" stroke="black" stroke-width="45" stroke-linejoin="round"/>
<path d="M656.5 204C668.926 204 679 193.926 679 181.5C679 169.074 668.926 159 656.5 159C644.074 159 634 169.074 634 181.5C634 193.926 644.074 204 656.5 204Z" fill="black"/>
</g>
<defs>
<clipPath id="clip0_1417_33482">
<rect width="679" height="257" fill="white"/>
</clipPath>
</defs>
</svg>
