<svg width="500" height="500" viewBox="0 0 500 500" fill="none" xmlns="http://www.w3.org/2000/svg">
<g clip-path="url(#clip0_1352_32176)">
<path d="M-0.00110269 240.444C0.267008 168.787 28.7697 109.804 80.8661 61.677C115.784 29.4305 157.246 10.5168 204.082 3.23099C273.408 -7.56043 336.177 8.7097 391.108 51.786C438.838 89.2239 468.962 138.354 480.159 198.466C485.151 225.272 485.393 252.225 481.333 279.127C477.427 305.039 457.031 316.712 438.493 319.349C414.05 322.829 390.048 306.106 384.073 282.109C381.973 273.668 382.988 265.169 383.805 256.708C388.063 212.393 373.764 174.61 343.423 142.645C319.376 117.313 289.481 104.415 254.895 100.82C182.684 93.3106 131.156 140.748 111.846 184.093C101.76 206.729 98.2741 230.445 100.368 255.092C104.562 304.433 129.279 340.983 170.683 366.621C197.743 383.382 227.746 387.974 259.051 384.615C269.858 383.459 280.257 383.919 290.267 388.472C310.279 397.571 322.178 419.665 318.763 441.413C315.354 463.137 297.914 480.199 276.248 483.098C233.919 488.762 192.355 485.677 152.917 468.75C84.4217 439.351 35.6256 390.687 11.7574 319.004C3.29282 293.584 -0.116007 267.263 -0.00110269 240.444Z" fill="#F27121" fill-opacity="0.05"/>
<path d="M449.71 499.974C421.775 499.891 399.835 477.517 400.001 449.287C400.161 422.097 422.401 400.125 449.895 399.991C477.568 399.857 500.523 422.742 500 450.468C499.412 481.495 473.929 500.798 449.716 499.974H449.71Z" fill="#F27121" fill-opacity="0.05"/>
</g>
<defs>
<clipPath id="clip0_1352_32176">
<rect width="500" height="500" fill="white"/>
</clipPath>
</defs>
</svg>
