<svg width="433" height="214" viewBox="0 0 433 214" fill="none" xmlns="http://www.w3.org/2000/svg">
<path d="M392 17.1046C391.983 21.8268 390.159 25.7137 386.824 28.8853C384.59 31.0103 381.936 32.2567 378.939 32.7369C374.502 33.448 370.485 32.3758 366.969 29.5371C363.915 27.07 361.987 23.8323 361.27 19.8709C360.951 18.1044 360.935 16.3282 361.195 14.5554C361.445 12.8478 362.75 12.0786 363.937 11.9048C365.501 11.6755 367.037 12.7775 367.42 14.3589C367.554 14.9152 367.489 15.4753 367.437 16.0328C367.164 18.9532 368.079 21.443 370.021 23.5496C371.56 25.2189 373.473 26.0689 375.687 26.3058C380.308 26.8007 383.606 23.6745 384.842 20.8182C385.487 19.3264 385.71 17.7636 385.576 16.1393C385.308 12.8878 383.726 10.4791 381.076 8.78961C379.345 7.68501 377.424 7.38246 375.421 7.6038C374.729 7.67996 374.064 7.64967 373.423 7.34964C372.142 6.75 371.381 5.29403 371.599 3.86079C371.818 2.42923 372.934 1.30485 374.32 1.11381C377.029 0.740561 379.689 0.943808 382.213 2.05935C386.597 3.99671 389.72 7.20362 391.247 11.9275C391.789 13.6027 392.007 15.3373 392 17.1046Z" fill="#F27121"/>
<path d="M363.221 0.00141593C365.009 0.00688636 366.413 1.48137 366.402 3.34172C366.392 5.13349 364.969 6.58146 363.209 6.59029C361.438 6.59913 359.969 5.09098 360.003 3.26387C360.04 1.21921 361.671 -0.0528674 363.221 0.00141593L363.221 0.00141593Z" fill="#F27121"/>
<path d="M401 17.1046C401.017 21.8268 402.841 25.7137 406.176 28.8853C408.41 31.0103 411.064 32.2567 414.061 32.7369C418.498 33.448 422.515 32.3758 426.031 29.5371C429.085 27.07 431.013 23.8323 431.73 19.8709C432.049 18.1044 432.065 16.3282 431.805 14.5554C431.555 12.8478 430.25 12.0786 429.063 11.9048C427.499 11.6755 425.963 12.7775 425.58 14.3589C425.446 14.9152 425.511 15.4753 425.563 16.0328C425.836 18.9532 424.921 21.443 422.979 23.5496C421.44 25.2189 419.527 26.0689 417.313 26.3058C412.692 26.8007 409.394 23.6745 408.158 20.8182C407.513 19.3264 407.29 17.7636 407.424 16.1393C407.692 12.8878 409.274 10.4791 411.924 8.78961C413.655 7.68501 415.576 7.38246 417.579 7.6038C418.271 7.67996 418.936 7.64967 419.577 7.34964C420.858 6.75 421.619 5.29403 421.401 3.86079C421.182 2.42923 420.066 1.30485 418.68 1.11381C415.971 0.740561 413.311 0.943808 410.787 2.05935C406.403 3.99671 403.28 7.20362 401.753 11.9275C401.211 13.6027 400.993 15.3373 401 17.1046Z" fill="#F27121"/>
<path d="M429.779 0.00141593C427.991 0.00688636 426.587 1.48137 426.598 3.34172C426.608 5.13349 428.031 6.58146 429.791 6.59029C431.562 6.59913 433.031 5.09098 432.997 3.26387C432.96 1.21921 431.329 -0.0528674 429.779 0.00141593L429.779 0.00141593Z" fill="#F27121"/>
<path d="M392 58.9164C391.983 54.1942 390.159 50.3073 386.824 47.1357C384.59 45.0107 381.936 43.7642 378.939 43.2841C374.502 42.573 370.485 43.6452 366.969 46.4839C363.915 48.951 361.987 52.1886 361.27 56.1501C360.951 57.9166 360.935 59.6928 361.195 61.4656C361.445 63.1732 362.75 63.9424 363.937 64.1162C365.501 64.3455 367.037 63.2435 367.42 61.6621C367.554 61.1058 367.489 60.5457 367.437 59.9882C367.164 57.0678 368.079 54.5779 370.021 52.4714C371.56 50.8021 373.473 49.9521 375.687 49.7152C380.308 49.2203 383.606 52.3464 384.842 55.2028C385.487 56.6946 385.71 58.2574 385.576 59.8817C385.308 63.1332 383.726 65.5419 381.076 67.2314C379.345 68.336 377.424 68.6385 375.421 68.4172C374.729 68.341 374.064 68.3713 373.423 68.6714C372.142 69.271 371.381 70.727 371.599 72.1602C371.818 73.5918 372.934 74.7161 374.32 74.9072C377.029 75.2804 379.689 75.0772 382.213 73.9616C386.597 72.0243 389.72 68.8174 391.247 64.0935C391.789 62.4183 392.007 60.6837 392 58.9164Z" fill="#F27121"/>
<path d="M363.217 76.0196C365.005 76.0141 366.409 74.5396 366.398 72.6793C366.388 70.8875 364.965 69.4395 363.205 69.4307C361.434 69.4219 359.965 70.93 359.999 72.7571C360.036 74.8018 361.667 76.0739 363.217 76.0196L363.217 76.0196Z" fill="#F27121"/>
<path d="M401 58.9164C401.017 54.1942 402.841 50.3073 406.176 47.1357C408.41 45.0107 411.064 43.7642 414.061 43.2841C418.498 42.573 422.515 43.6452 426.031 46.4839C429.085 48.951 431.013 52.1887 431.73 56.1501C432.049 57.9166 432.065 59.6928 431.805 61.4656C431.555 63.1732 430.25 63.9424 429.063 64.1162C427.499 64.3455 425.963 63.2435 425.58 61.6621C425.446 61.1058 425.511 60.5457 425.563 59.9882C425.836 57.0678 424.921 54.578 422.979 52.4714C421.44 50.8021 419.527 49.9521 417.313 49.7152C412.692 49.2203 409.394 52.3464 408.158 55.2028C407.513 56.6946 407.29 58.2574 407.424 59.8817C407.692 63.1332 409.274 65.5419 411.924 67.2314C413.655 68.336 415.576 68.6385 417.579 68.4172C418.271 68.341 418.936 68.3713 419.577 68.6714C420.858 69.271 421.619 70.727 421.401 72.1602C421.182 73.5918 420.066 74.7161 418.68 74.9072C415.971 75.2804 413.311 75.0772 410.787 73.9617C406.403 72.0243 403.28 68.8174 401.753 64.0935C401.211 62.4183 400.993 60.6837 401 58.9164Z" fill="#F27121"/>
<path d="M429.783 76.0196C427.995 76.0141 426.591 74.5396 426.602 72.6793C426.612 70.8875 428.035 69.4395 429.795 69.4307C431.566 69.4219 433.035 70.93 433.001 72.7571C432.964 74.8018 431.333 76.0739 429.783 76.0196L429.783 76.0196Z" fill="#F27121"/>
<path d="M302 64.1178C301.983 68.84 300.159 72.7269 296.824 75.8985C294.59 78.0235 291.936 79.2699 288.939 79.7501C284.502 80.4612 280.485 79.389 276.969 76.5503C273.915 74.0832 271.987 70.8455 271.27 66.8841C270.951 65.1176 270.935 63.3414 271.195 61.5686C271.445 59.861 272.75 59.0918 273.937 58.918C275.501 58.6886 277.037 59.7907 277.42 61.3721C277.554 61.9284 277.489 62.4885 277.437 63.046C277.164 65.9664 278.079 68.4562 280.021 70.5628C281.56 72.2321 283.473 73.0821 285.687 73.319C290.308 73.8138 293.606 70.6877 294.842 67.8313C295.487 66.3396 295.71 64.7768 295.576 63.1525C295.308 59.901 293.726 57.4923 291.076 55.8028C289.345 54.6982 287.424 54.3956 285.421 54.617C284.729 54.6931 284.064 54.6628 283.423 54.3628C282.142 53.7632 281.381 52.3072 281.599 50.874C281.818 49.4424 282.934 48.318 284.32 48.127C287.029 47.7537 289.689 47.957 292.213 49.0725C296.597 51.0099 299.72 54.2168 301.247 58.9407C301.789 60.6159 302.007 62.3504 302 64.1178Z" fill="#F27121"/>
<path d="M273.221 47.0146C275.009 47.0201 276.413 48.4946 276.402 50.3549C276.392 52.1467 274.969 53.5946 273.209 53.6035C271.438 53.6123 269.969 52.1042 270.003 50.2771C270.04 48.2324 271.671 46.9603 273.221 47.0146L273.221 47.0146Z" fill="#F27121"/>
<path d="M311 64.1178C311.017 68.84 312.841 72.7269 316.176 75.8985C318.41 78.0235 321.064 79.2699 324.061 79.7501C328.498 80.4612 332.515 79.389 336.031 76.5503C339.085 74.0832 341.013 70.8455 341.73 66.8841C342.049 65.1176 342.065 63.3414 341.805 61.5686C341.555 59.861 340.25 59.0918 339.063 58.918C337.499 58.6886 335.963 59.7907 335.58 61.3721C335.446 61.9284 335.511 62.4885 335.563 63.046C335.836 65.9664 334.921 68.4562 332.979 70.5628C331.44 72.2321 329.527 73.0821 327.313 73.319C322.692 73.8138 319.394 70.6877 318.158 67.8313C317.513 66.3396 317.29 64.7768 317.424 63.1525C317.692 59.901 319.274 57.4923 321.924 55.8028C323.655 54.6982 325.576 54.3956 327.579 54.617C328.271 54.6931 328.936 54.6628 329.577 54.3628C330.858 53.7632 331.619 52.3072 331.401 50.874C331.182 49.4424 330.066 48.318 328.68 48.127C325.971 47.7537 323.311 47.957 320.787 49.0725C316.403 51.0099 313.28 54.2168 311.753 58.9407C311.211 60.6159 310.993 62.3504 311 64.1178Z" fill="#F27121"/>
<path d="M339.779 47.0146C337.991 47.0201 336.587 48.4946 336.598 50.3549C336.608 52.1467 338.031 53.5946 339.791 53.6035C341.562 53.6123 343.031 52.1042 342.997 50.2771C342.96 48.2324 341.329 46.9603 339.779 47.0146L339.779 47.0146Z" fill="#F27121"/>
<path d="M302 105.93C301.983 101.207 300.159 97.3204 296.824 94.1489C294.59 92.0238 291.936 90.7774 288.939 90.2973C284.502 89.5861 280.485 90.6583 276.969 93.4971C273.915 95.9642 271.987 99.2018 271.27 103.163C270.951 104.93 270.935 106.706 271.195 108.479C271.445 110.186 272.75 110.956 273.937 111.129C275.501 111.359 277.037 110.257 277.42 108.675C277.554 108.119 277.489 107.559 277.437 107.001C277.164 104.081 278.079 101.591 280.021 99.4846C281.56 97.8153 283.473 96.9653 285.687 96.7284C290.308 96.2335 293.606 99.3596 294.842 102.216C295.487 103.708 295.71 105.271 295.576 106.895C295.308 110.146 293.726 112.555 291.076 114.245C289.345 115.349 287.424 115.652 285.421 115.43C284.729 115.354 284.064 115.385 283.423 115.685C282.142 116.284 281.381 117.74 281.599 119.173C281.818 120.605 282.934 121.729 284.32 121.92C287.029 122.294 289.689 122.09 292.213 120.975C296.597 119.037 299.72 115.831 301.247 111.107C301.789 109.431 302.007 107.697 302 105.93Z" fill="#F27121"/>
<path d="M273.217 123.033C275.005 123.027 276.409 121.553 276.398 119.692C276.388 117.901 274.965 116.453 273.205 116.444C271.434 116.435 269.965 117.943 269.999 119.77C270.036 121.815 271.667 123.087 273.217 123.033L273.217 123.033Z" fill="#F27121"/>
<path d="M311 105.93C311.017 101.207 312.841 97.3204 316.176 94.1489C318.41 92.0238 321.064 90.7774 324.061 90.2973C328.498 89.5862 332.515 90.6583 336.031 93.4971C339.085 95.9642 341.013 99.2018 341.73 103.163C342.049 104.93 342.065 106.706 341.805 108.479C341.555 110.186 340.25 110.956 339.063 111.129C337.499 111.359 335.963 110.257 335.58 108.675C335.446 108.119 335.511 107.559 335.563 107.001C335.836 104.081 334.921 101.591 332.979 99.4846C331.44 97.8153 329.527 96.9653 327.313 96.7284C322.692 96.2335 319.394 99.3596 318.158 102.216C317.513 103.708 317.29 105.271 317.424 106.895C317.692 110.146 319.274 112.555 321.924 114.245C323.655 115.349 325.576 115.652 327.579 115.43C328.271 115.354 328.936 115.385 329.577 115.685C330.858 116.284 331.619 117.74 331.401 119.173C331.182 120.605 330.066 121.729 328.68 121.92C325.971 122.294 323.311 122.09 320.787 120.975C316.403 119.037 313.28 115.831 311.753 111.107C311.211 109.431 310.993 107.697 311 105.93Z" fill="#F27121"/>
<path d="M339.783 123.033C337.995 123.027 336.591 121.553 336.602 119.692C336.612 117.901 338.035 116.453 339.795 116.444C341.566 116.435 343.035 117.943 343.001 119.77C342.964 121.815 341.333 123.087 339.783 123.033L339.783 123.033Z" fill="#F27121"/>
<path d="M212 154.143C211.983 158.865 210.159 162.752 206.824 165.923C204.59 168.048 201.936 169.295 198.939 169.775C194.502 170.486 190.485 169.414 186.969 166.575C183.915 164.108 181.987 160.87 181.27 156.909C180.951 155.143 180.935 153.366 181.195 151.593C181.445 149.886 182.75 149.117 183.937 148.943C185.501 148.714 187.037 149.816 187.42 151.397C187.554 151.953 187.489 152.513 187.437 153.071C187.164 155.991 188.079 158.481 190.021 160.588C191.56 162.257 193.473 163.107 195.687 163.344C200.308 163.839 203.606 160.713 204.842 157.856C205.487 156.365 205.71 154.802 205.576 153.177C205.308 149.926 203.726 147.517 201.076 145.828C199.345 144.723 197.424 144.421 195.421 144.642C194.729 144.718 194.064 144.688 193.423 144.388C192.142 143.788 191.381 142.332 191.599 140.899C191.818 139.467 192.934 138.343 194.32 138.152C197.029 137.779 199.689 137.982 202.213 139.097C206.597 141.035 209.72 144.242 211.247 148.966C211.789 150.641 212.007 152.375 212 154.143Z" fill="#F27121"/>
<path d="M183.221 137.04C185.009 137.045 186.413 138.519 186.402 140.38C186.392 142.172 184.969 143.62 183.209 143.628C181.438 143.637 179.969 142.129 180.003 140.302C180.04 138.257 181.671 136.985 183.221 137.04L183.221 137.04Z" fill="#F27121"/>
<path d="M221 154.143C221.017 158.865 222.841 162.752 226.176 165.923C228.41 168.048 231.064 169.295 234.061 169.775C238.498 170.486 242.515 169.414 246.031 166.575C249.085 164.108 251.013 160.87 251.73 156.909C252.049 155.143 252.065 153.366 251.805 151.593C251.555 149.886 250.25 149.117 249.063 148.943C247.499 148.714 245.963 149.816 245.58 151.397C245.446 151.953 245.511 152.513 245.563 153.071C245.836 155.991 244.921 158.481 242.979 160.588C241.44 162.257 239.527 163.107 237.313 163.344C232.692 163.839 229.394 160.713 228.158 157.856C227.513 156.365 227.29 154.802 227.424 153.177C227.692 149.926 229.274 147.517 231.924 145.828C233.655 144.723 235.576 144.421 237.579 144.642C238.271 144.718 238.936 144.688 239.577 144.388C240.858 143.788 241.619 142.332 241.401 140.899C241.182 139.467 240.066 138.343 238.68 138.152C235.971 137.779 233.311 137.982 230.787 139.097C226.403 141.035 223.28 144.242 221.753 148.966C221.211 150.641 220.993 152.375 221 154.143Z" fill="#F27121"/>
<path d="M249.779 137.04C247.991 137.045 246.587 138.519 246.598 140.38C246.608 142.172 248.031 143.62 249.791 143.628C251.562 143.637 253.031 142.129 252.997 140.302C252.96 138.257 251.329 136.985 249.779 137.04L249.779 137.04Z" fill="#F27121"/>
<path d="M212 195.954C211.983 191.232 210.159 187.345 206.824 184.174C204.59 182.049 201.936 180.802 198.939 180.322C194.502 179.611 190.485 180.683 186.969 183.522C183.915 185.989 181.987 189.227 181.27 193.188C180.951 194.955 180.935 196.731 181.195 198.504C181.445 200.211 182.75 200.98 183.937 201.154C185.501 201.384 187.037 200.282 187.42 198.7C187.554 198.144 187.489 197.584 187.437 197.026C187.164 194.106 188.079 191.616 190.021 189.51C191.56 187.84 193.473 186.99 195.687 186.753C200.308 186.258 203.606 189.385 204.842 192.241C205.487 193.733 205.71 195.296 205.576 196.92C205.308 200.171 203.726 202.58 201.076 204.269C199.345 205.374 197.424 205.677 195.421 205.455C194.729 205.379 194.064 205.409 193.423 205.709C192.142 206.309 191.381 207.765 191.599 209.198C191.818 210.63 192.934 211.754 194.32 211.945C197.029 212.319 199.689 212.115 202.213 211C206.597 209.062 209.72 205.855 211.247 201.132C211.789 199.456 212.007 197.722 212 195.954Z" fill="#F27121"/>
<path d="M183.217 213.057C185.005 213.052 186.409 211.577 186.398 209.717C186.388 207.925 184.965 206.477 183.205 206.468C181.434 206.459 179.965 207.968 179.999 209.795C180.036 211.839 181.667 213.111 183.217 213.057L183.217 213.057Z" fill="#F27121"/>
<path d="M221 195.954C221.017 191.232 222.841 187.345 226.176 184.174C228.41 182.049 231.064 180.802 234.061 180.322C238.498 179.611 242.515 180.683 246.031 183.522C249.085 185.989 251.013 189.227 251.73 193.188C252.049 194.955 252.065 196.731 251.805 198.504C251.555 200.211 250.25 200.981 249.063 201.154C247.499 201.384 245.963 200.282 245.58 198.7C245.446 198.144 245.511 197.584 245.563 197.026C245.836 194.106 244.921 191.616 242.979 189.51C241.44 187.84 239.527 186.99 237.313 186.753C232.692 186.258 229.394 189.385 228.158 192.241C227.513 193.733 227.29 195.296 227.424 196.92C227.692 200.171 229.274 202.58 231.924 204.269C233.655 205.374 235.576 205.677 237.579 205.455C238.271 205.379 238.936 205.409 239.577 205.709C240.858 206.309 241.619 207.765 241.401 209.198C241.182 210.63 240.066 211.754 238.68 211.945C235.971 212.319 233.311 212.115 230.787 211C226.403 209.062 223.28 205.855 221.753 201.132C221.211 199.456 220.993 197.722 221 195.954Z" fill="#F27121"/>
<path d="M249.783 213.057C247.995 213.052 246.591 211.577 246.602 209.717C246.612 207.925 248.035 206.477 249.795 206.468C251.566 206.459 253.035 207.968 253.001 209.795C252.964 211.839 251.333 213.111 249.783 213.057L249.783 213.057Z" fill="#F27121"/>
<path d="M122 154.143C121.983 158.865 120.159 162.752 116.824 165.923C114.59 168.048 111.936 169.295 108.939 169.775C104.502 170.486 100.485 169.414 96.9695 166.575C93.9148 164.108 91.9869 160.87 91.2703 156.909C90.9509 155.143 90.9353 153.366 91.1952 151.593C91.4452 149.886 92.7505 149.117 93.9369 148.943C95.5012 148.714 97.0373 149.816 97.4197 151.397C97.5541 151.953 97.4891 152.513 97.4368 153.071C97.1643 155.991 98.0795 158.481 100.021 160.588C101.56 162.257 103.473 163.107 105.687 163.344C110.308 163.839 113.606 160.713 114.842 157.856C115.487 156.365 115.71 154.802 115.576 153.177C115.308 149.926 113.726 147.517 111.076 145.828C109.345 144.723 107.424 144.421 105.421 144.642C104.729 144.718 104.064 144.688 103.423 144.388C102.142 143.788 101.381 142.332 101.599 140.899C101.818 139.467 102.934 138.343 104.32 138.152C107.029 137.779 109.689 137.982 112.213 139.097C116.597 141.035 119.72 144.242 121.247 148.966C121.789 150.641 122.007 152.375 122 154.143Z" fill="#F27121"/>
<path d="M93.221 137.04C95.0088 137.045 96.4129 138.519 96.4023 140.38C96.3921 142.172 94.9687 143.62 93.2091 143.628C91.4381 143.637 89.969 142.129 90.0025 140.302C90.0401 138.257 91.671 136.985 93.2206 137.04L93.221 137.04Z" fill="#F27121"/>
<path d="M131 154.143C131.017 158.865 132.841 162.752 136.176 165.923C138.41 168.048 141.064 169.295 144.061 169.775C148.498 170.486 152.515 169.414 156.031 166.575C159.085 164.108 161.013 160.87 161.73 156.909C162.049 155.143 162.065 153.366 161.805 151.593C161.555 149.886 160.25 149.117 159.063 148.943C157.499 148.714 155.963 149.816 155.58 151.397C155.446 151.953 155.511 152.513 155.563 153.071C155.836 155.991 154.921 158.481 152.979 160.588C151.44 162.257 149.527 163.107 147.313 163.344C142.692 163.839 139.394 160.713 138.158 157.856C137.513 156.365 137.29 154.802 137.424 153.177C137.692 149.926 139.274 147.517 141.924 145.828C143.655 144.723 145.576 144.421 147.579 144.642C148.271 144.718 148.936 144.688 149.577 144.388C150.858 143.788 151.619 142.332 151.401 140.899C151.182 139.467 150.066 138.343 148.68 138.152C145.971 137.779 143.311 137.982 140.787 139.097C136.403 141.035 133.28 144.242 131.753 148.966C131.211 150.641 130.993 152.375 131 154.143Z" fill="#F27121"/>
<path d="M159.779 137.04C157.991 137.045 156.587 138.519 156.598 140.38C156.608 142.172 158.031 143.62 159.791 143.628C161.562 143.637 163.031 142.129 162.997 140.302C162.96 138.257 161.329 136.985 159.779 137.04L159.779 137.04Z" fill="#F27121"/>
<path d="M122 195.954C121.983 191.232 120.159 187.345 116.824 184.174C114.59 182.049 111.936 180.802 108.939 180.322C104.502 179.611 100.485 180.683 96.9695 183.522C93.9148 185.989 91.9869 189.227 91.2703 193.188C90.9509 194.955 90.9353 196.731 91.1952 198.504C91.4452 200.211 92.7505 200.98 93.9369 201.154C95.5012 201.384 97.0373 200.282 97.4197 198.7C97.5541 198.144 97.4891 197.584 97.4368 197.026C97.1643 194.106 98.0795 191.616 100.021 189.51C101.56 187.84 103.473 186.99 105.687 186.753C110.308 186.258 113.606 189.385 114.842 192.241C115.487 193.733 115.71 195.296 115.576 196.92C115.308 200.171 113.726 202.58 111.076 204.269C109.345 205.374 107.424 205.677 105.421 205.455C104.729 205.379 104.064 205.409 103.423 205.709C102.142 206.309 101.381 207.765 101.599 209.198C101.818 210.63 102.934 211.754 104.32 211.945C107.029 212.319 109.689 212.115 112.213 211C116.597 209.062 119.72 205.855 121.247 201.132C121.789 199.456 122.007 197.722 122 195.954Z" fill="#F27121"/>
<path d="M93.2171 213.057C95.0049 213.052 96.409 211.577 96.3984 209.717C96.3882 207.925 94.9648 206.477 93.2052 206.468C91.4342 206.459 89.9651 207.968 89.9986 209.795C90.0362 211.839 91.6671 213.111 93.2167 213.057L93.2171 213.057Z" fill="#F27121"/>
<path d="M131 195.954C131.017 191.232 132.841 187.345 136.176 184.174C138.41 182.049 141.064 180.802 144.061 180.322C148.498 179.611 152.515 180.683 156.031 183.522C159.085 185.989 161.013 189.227 161.73 193.188C162.049 194.955 162.065 196.731 161.805 198.504C161.555 200.211 160.25 200.981 159.063 201.154C157.499 201.384 155.963 200.282 155.58 198.7C155.446 198.144 155.511 197.584 155.563 197.026C155.836 194.106 154.921 191.616 152.979 189.51C151.44 187.84 149.527 186.99 147.313 186.753C142.692 186.258 139.394 189.385 138.158 192.241C137.513 193.733 137.29 195.296 137.424 196.92C137.692 200.171 139.274 202.58 141.924 204.269C143.655 205.374 145.576 205.677 147.579 205.455C148.271 205.379 148.936 205.409 149.577 205.709C150.858 206.309 151.619 207.765 151.401 209.198C151.182 210.63 150.066 211.754 148.68 211.945C145.971 212.319 143.311 212.115 140.787 211C136.403 209.062 133.28 205.855 131.753 201.132C131.211 199.456 130.993 197.722 131 195.954Z" fill="#F27121"/>
<path d="M159.783 213.057C157.995 213.052 156.591 211.577 156.602 209.717C156.612 207.925 158.035 206.477 159.795 206.468C161.566 206.459 163.035 207.968 163.001 209.795C162.964 211.839 161.333 213.111 159.783 213.057L159.783 213.057Z" fill="#F27121"/>
<path d="M392 107.129C391.983 111.851 390.159 115.738 386.824 118.91C384.59 121.035 381.936 122.281 378.939 122.761C374.502 123.472 370.485 122.4 366.969 119.562C363.915 117.094 361.987 113.857 361.27 109.895C360.951 108.129 360.935 106.353 361.195 104.58C361.445 102.872 362.75 102.103 363.937 101.929C365.501 101.7 367.037 102.802 367.42 104.383C367.554 104.94 367.489 105.5 367.437 106.057C367.164 108.978 368.079 111.467 370.021 113.574C371.56 115.243 373.473 116.093 375.687 116.33C380.308 116.825 383.606 113.699 384.842 110.843C385.487 109.351 385.71 107.788 385.576 106.164C385.308 102.912 383.726 100.504 381.076 98.814C379.345 97.7094 377.424 97.4069 375.421 97.6282C374.729 97.7044 374.064 97.6741 373.423 97.3741C372.142 96.7744 371.381 95.3184 371.599 93.8852C371.818 92.4536 372.934 91.3293 374.32 91.1382C377.029 90.765 379.689 90.9682 382.213 92.0838C386.597 94.0211 389.72 97.228 391.247 101.952C391.789 103.627 392.007 105.362 392 107.129Z" fill="#F27121"/>
<path d="M363.221 90.0258C365.009 90.0313 366.413 91.5058 366.402 93.3661C366.392 95.1579 364.969 96.6059 363.209 96.6147C361.438 96.6235 359.969 95.1154 360.003 93.2883C360.04 91.2436 361.671 89.9715 363.221 90.0258L363.221 90.0258Z" fill="#F27121"/>
<path d="M302 154.142C301.983 158.864 300.159 162.751 296.824 165.923C294.59 168.048 291.936 169.294 288.939 169.774C284.502 170.486 280.485 169.413 276.969 166.575C273.915 164.108 271.987 160.87 271.27 156.909C270.951 155.142 270.935 153.366 271.195 151.593C271.445 149.885 272.75 149.116 273.937 148.942C275.501 148.713 277.037 149.815 277.42 151.396C277.554 151.953 277.489 152.513 277.437 153.07C277.164 155.991 278.079 158.481 280.021 160.587C281.56 162.256 283.473 163.106 285.687 163.343C290.308 163.838 293.606 160.712 294.842 157.856C295.487 156.364 295.71 154.801 295.576 153.177C295.308 149.925 293.726 147.517 291.076 145.827C289.345 144.723 287.424 144.42 285.421 144.641C284.729 144.718 284.064 144.687 283.423 144.387C282.142 143.788 281.381 142.332 281.599 140.898C281.818 139.467 282.934 138.342 284.32 138.151C287.029 137.778 289.689 137.981 292.213 139.097C296.597 141.034 299.72 144.241 301.247 148.965C301.789 150.64 302.007 152.375 302 154.142Z" fill="#F27121"/>
<path d="M273.221 137.039C275.009 137.044 276.413 138.519 276.402 140.379C276.392 142.171 274.969 143.619 273.209 143.628C271.438 143.637 269.969 142.129 270.003 140.301C270.04 138.257 271.671 136.985 273.221 137.039L273.221 137.039Z" fill="#F27121"/>
<path d="M392 197.154C391.983 201.877 390.159 205.764 386.824 208.935C384.59 211.06 381.936 212.307 378.939 212.787C374.502 213.498 370.485 212.426 366.969 209.587C363.915 207.12 361.987 203.882 361.27 199.921C360.951 198.154 360.935 196.378 361.195 194.605C361.445 192.898 362.75 192.128 363.937 191.955C365.501 191.725 367.037 192.827 367.42 194.409C367.554 194.965 367.489 195.525 367.437 196.083C367.164 199.003 368.079 201.493 370.021 203.599C371.56 205.269 373.473 206.119 375.687 206.356C380.308 206.85 383.606 203.724 384.842 200.868C385.487 199.376 385.71 197.813 385.576 196.189C385.308 192.938 383.726 190.529 381.076 188.839C379.345 187.735 377.424 187.432 375.421 187.654C374.729 187.73 374.064 187.699 373.423 187.399C372.142 186.8 371.381 185.344 371.599 183.911C371.818 182.479 372.934 181.355 374.32 181.164C377.029 180.79 379.689 180.994 382.213 182.109C386.597 184.047 389.72 187.253 391.247 191.977C391.789 193.653 392.007 195.387 392 197.154Z" fill="#F27121"/>
<path d="M363.221 180.052C365.009 180.057 366.413 181.532 366.402 183.392C366.392 185.184 364.969 186.632 363.209 186.641C361.438 186.649 359.969 185.141 360.003 183.314C360.04 181.27 361.671 179.997 363.221 180.052L363.221 180.052Z" fill="#F27121"/>
<path d="M212 107.13C211.983 111.852 210.159 115.739 206.824 118.91C204.59 121.035 201.936 122.282 198.939 122.762C194.502 123.473 190.485 122.401 186.969 119.562C183.915 117.095 181.987 113.857 181.27 109.896C180.951 108.129 180.935 106.353 181.195 104.58C181.445 102.873 182.75 102.103 183.937 101.93C185.501 101.7 187.037 102.802 187.42 104.384C187.554 104.94 187.489 105.5 187.437 106.058C187.164 108.978 188.079 111.468 190.021 113.574C191.56 115.244 193.473 116.094 195.687 116.331C200.308 116.826 203.606 113.699 204.842 110.843C205.487 109.351 205.71 107.788 205.576 106.164C205.308 102.913 203.726 100.504 201.076 98.8145C199.345 97.7099 197.424 97.4074 195.421 97.6287C194.729 97.7049 194.064 97.6746 193.423 97.3745C192.142 96.7749 191.381 95.3189 191.599 93.8857C191.818 92.4541 192.934 91.3298 194.32 91.1387C197.029 90.7655 199.689 90.9687 202.213 92.0842C206.597 94.0216 209.72 97.2285 211.247 101.952C211.789 103.628 212.007 105.362 212 107.13Z" fill="#F27121"/>
<path d="M183.221 90.0263C185.009 90.0318 186.413 91.5063 186.402 93.3666C186.392 95.1584 184.969 96.6064 183.209 96.6152C181.438 96.624 179.969 95.1159 180.003 93.2888C180.04 91.2441 181.671 89.972 183.221 90.0263L183.221 90.0263Z" fill="#F27121"/>
<path d="M31.9998 198.155C31.9827 202.877 30.1585 206.764 26.8244 209.936C24.5897 212.061 21.9363 213.307 18.9388 213.787C14.5021 214.498 10.4849 213.426 6.96945 210.587C3.91481 208.12 1.98691 204.883 1.27033 200.921C0.950857 199.155 0.935331 197.379 1.19516 195.606C1.44519 193.898 2.75047 193.129 3.93687 192.955C5.50117 192.726 7.03727 193.828 7.41966 195.409C7.55407 195.965 7.48911 196.526 7.43682 197.083C7.16433 200.003 8.07945 202.493 10.0212 204.6C11.5602 206.269 13.4734 207.119 15.6869 207.356C20.3083 207.851 23.606 204.725 24.8418 201.868C25.4873 200.377 25.7104 198.814 25.5764 197.19C25.308 193.938 23.7261 191.529 21.0763 189.84C19.3445 188.735 17.4244 188.433 15.4209 188.654C14.7292 188.73 14.0637 188.7 13.4231 188.4C12.1424 187.8 11.3809 186.344 11.5994 184.911C11.8176 183.48 12.9337 182.355 14.3203 182.164C17.0293 181.791 19.6893 181.994 22.2133 183.11C26.5969 185.047 29.7198 188.254 31.2473 192.978C31.789 194.653 32.0072 196.388 31.9998 198.155Z" fill="#F27121"/>
<path d="M3.22099 181.052C5.00876 181.057 6.41291 182.532 6.40228 184.392C6.39207 186.184 4.96872 187.632 3.20914 187.641C1.43812 187.649 -0.0309814 186.141 0.00251894 184.314C0.0401044 182.27 1.67099 180.997 3.22058 181.052L3.22099 181.052Z" fill="#F27121"/>
<path d="M401 107.129C401.017 111.851 402.841 115.738 406.176 118.91C408.41 121.035 411.064 122.281 414.061 122.761C418.498 123.472 422.515 122.4 426.031 119.562C429.085 117.094 431.013 113.857 431.73 109.895C432.049 108.129 432.065 106.353 431.805 104.58C431.555 102.872 430.25 102.103 429.063 101.929C427.499 101.7 425.963 102.802 425.58 104.383C425.446 104.94 425.511 105.5 425.563 106.057C425.836 108.978 424.921 111.467 422.979 113.574C421.44 115.243 419.527 116.093 417.313 116.33C412.692 116.825 409.394 113.699 408.158 110.843C407.513 109.351 407.29 107.788 407.424 106.164C407.692 102.912 409.274 100.504 411.924 98.814C413.655 97.7094 415.576 97.4069 417.579 97.6282C418.271 97.7044 418.936 97.6741 419.577 97.3741C420.858 96.7744 421.619 95.3184 421.401 93.8852C421.182 92.4536 420.066 91.3293 418.68 91.1382C415.971 90.765 413.311 90.9682 410.787 92.0838C406.403 94.0211 403.28 97.228 401.753 101.952C401.211 103.627 400.993 105.362 401 107.129Z" fill="#F27121"/>
<path d="M429.779 90.0258C427.991 90.0313 426.587 91.5058 426.598 93.3661C426.608 95.1579 428.031 96.6059 429.791 96.6147C431.562 96.6235 433.031 95.1154 432.997 93.2883C432.96 91.2436 431.329 89.9715 429.779 90.0258L429.779 90.0258Z" fill="#F27121"/>
<path d="M311 154.142C311.017 158.864 312.841 162.751 316.176 165.923C318.41 168.048 321.064 169.294 324.061 169.774C328.498 170.486 332.515 169.413 336.031 166.575C339.085 164.108 341.013 160.87 341.73 156.909C342.049 155.142 342.065 153.366 341.805 151.593C341.555 149.885 340.25 149.116 339.063 148.942C337.499 148.713 335.963 149.815 335.58 151.396C335.446 151.953 335.511 152.513 335.563 153.07C335.836 155.991 334.921 158.481 332.979 160.587C331.44 162.256 329.527 163.106 327.313 163.343C322.692 163.838 319.394 160.712 318.158 157.856C317.513 156.364 317.29 154.801 317.424 153.177C317.692 149.925 319.274 147.517 321.924 145.827C323.655 144.723 325.576 144.42 327.579 144.641C328.271 144.718 328.936 144.687 329.577 144.387C330.858 143.788 331.619 142.332 331.401 140.898C331.182 139.467 330.066 138.342 328.68 138.151C325.971 137.778 323.311 137.981 320.787 139.097C316.403 141.034 313.28 144.241 311.753 148.965C311.211 150.64 310.993 152.375 311 154.142Z" fill="#F27121"/>
<path d="M339.779 137.039C337.991 137.044 336.587 138.519 336.598 140.379C336.608 142.171 338.031 143.619 339.791 143.628C341.562 143.637 343.031 142.129 342.997 140.301C342.96 138.257 341.329 136.985 339.779 137.039L339.779 137.039Z" fill="#F27121"/>
<path d="M401 197.154C401.017 201.877 402.841 205.764 406.176 208.935C408.41 211.06 411.064 212.307 414.061 212.787C418.498 213.498 422.515 212.426 426.031 209.587C429.085 207.12 431.013 203.882 431.73 199.921C432.049 198.154 432.065 196.378 431.805 194.605C431.555 192.898 430.25 192.128 429.063 191.955C427.499 191.725 425.963 192.827 425.58 194.409C425.446 194.965 425.511 195.525 425.563 196.083C425.836 199.003 424.921 201.493 422.979 203.599C421.44 205.269 419.527 206.119 417.313 206.356C412.692 206.85 409.394 203.724 408.158 200.868C407.513 199.376 407.29 197.813 407.424 196.189C407.692 192.938 409.274 190.529 411.924 188.839C413.655 187.735 415.576 187.432 417.579 187.654C418.271 187.73 418.936 187.699 419.577 187.399C420.858 186.8 421.619 185.344 421.401 183.911C421.182 182.479 420.066 181.355 418.68 181.164C415.971 180.79 413.311 180.994 410.787 182.109C406.403 184.047 403.28 187.253 401.753 191.977C401.211 193.653 400.993 195.387 401 197.154Z" fill="#F27121"/>
<path d="M429.779 180.052C427.991 180.057 426.587 181.532 426.598 183.392C426.608 185.184 428.031 186.632 429.791 186.641C431.562 186.649 433.031 185.141 432.997 183.314C432.96 181.27 431.329 179.997 429.779 180.052L429.779 180.052Z" fill="#F27121"/>
<path d="M221 107.13C221.017 111.852 222.841 115.739 226.176 118.91C228.41 121.035 231.064 122.282 234.061 122.762C238.498 123.473 242.515 122.401 246.031 119.562C249.085 117.095 251.013 113.857 251.73 109.896C252.049 108.129 252.065 106.353 251.805 104.58C251.555 102.873 250.25 102.103 249.063 101.93C247.499 101.7 245.963 102.802 245.58 104.384C245.446 104.94 245.511 105.5 245.563 106.058C245.836 108.978 244.921 111.468 242.979 113.574C241.44 115.244 239.527 116.094 237.313 116.331C232.692 116.826 229.394 113.699 228.158 110.843C227.513 109.351 227.29 107.788 227.424 106.164C227.692 102.913 229.274 100.504 231.924 98.8145C233.655 97.7099 235.576 97.4074 237.579 97.6287C238.271 97.7049 238.936 97.6746 239.577 97.3745C240.858 96.7749 241.619 95.3189 241.401 93.8857C241.182 92.4541 240.066 91.3298 238.68 91.1387C235.971 90.7655 233.311 90.9687 230.787 92.0842C226.403 94.0216 223.28 97.2285 221.753 101.952C221.211 103.628 220.993 105.362 221 107.13Z" fill="#F27121"/>
<path d="M249.779 90.0263C247.991 90.0318 246.587 91.5063 246.598 93.3666C246.608 95.1584 248.031 96.6064 249.791 96.6152C251.562 96.624 253.031 95.1159 252.997 93.2888C252.96 91.2441 251.329 89.972 249.779 90.0263L249.779 90.0263Z" fill="#F27121"/>
<path d="M41.0002 198.155C41.0173 202.877 42.8415 206.764 46.1756 209.936C48.4103 212.061 51.0637 213.307 54.0612 213.787C58.4979 214.498 62.5151 213.426 66.0305 210.587C69.0852 208.12 71.0131 204.883 71.7297 200.921C72.0491 199.155 72.0647 197.379 71.8048 195.606C71.5548 193.898 70.2495 193.129 69.0631 192.955C67.4988 192.726 65.9627 193.828 65.5803 195.409C65.4459 195.965 65.5109 196.526 65.5632 197.083C65.8357 200.003 64.9205 202.493 62.9788 204.6C61.4398 206.269 59.5266 207.119 57.3131 207.356C52.6917 207.851 49.394 204.725 48.1582 201.868C47.5127 200.377 47.2896 198.814 47.4236 197.19C47.692 193.938 49.2739 191.529 51.9237 189.84C53.6555 188.735 55.5756 188.433 57.5791 188.654C58.2708 188.73 58.9363 188.7 59.5769 188.4C60.8576 187.8 61.6191 186.344 61.4006 184.911C61.1824 183.48 60.0663 182.355 58.6797 182.164C55.9707 181.791 53.3107 181.994 50.7867 183.11C46.4031 185.047 43.2802 188.254 41.7527 192.978C41.211 194.653 40.9928 196.388 41.0002 198.155Z" fill="#F27121"/>
<path d="M69.779 181.052C67.9912 181.057 66.5871 182.532 66.5977 184.392C66.6079 186.184 68.0313 187.632 69.7909 187.641C71.5619 187.649 73.031 186.141 72.9975 184.314C72.9599 182.27 71.329 180.997 69.7794 181.052L69.779 181.052Z" fill="#F27121"/>
<path d="M392 148.941C391.983 144.219 390.159 140.332 386.824 137.161C384.59 135.036 381.936 133.789 378.939 133.309C374.502 132.598 370.485 133.67 366.969 136.509C363.915 138.976 361.987 142.214 361.27 146.175C360.951 147.941 360.935 149.718 361.195 151.49C361.445 153.198 362.75 153.967 363.937 154.141C365.501 154.37 367.037 153.268 367.42 151.687C367.554 151.131 367.489 150.571 367.437 150.013C367.164 147.093 368.079 144.603 370.021 142.496C371.56 140.827 373.473 139.977 375.687 139.74C380.308 139.245 383.606 142.371 384.842 145.228C385.487 146.719 385.71 148.282 385.576 149.907C385.308 153.158 383.726 155.567 381.076 157.256C379.345 158.361 377.424 158.663 375.421 158.442C374.729 158.366 374.064 158.396 373.423 158.696C372.142 159.296 371.381 160.752 371.599 162.185C371.818 163.617 372.934 164.741 374.32 164.932C377.029 165.305 379.689 165.102 382.213 163.987C386.597 162.049 389.72 158.842 391.247 154.118C391.789 152.443 392.007 150.709 392 148.941Z" fill="#F27121"/>
<path d="M363.217 166.044C365.005 166.039 366.409 164.565 366.398 162.704C366.388 160.912 364.965 159.464 363.205 159.456C361.434 159.447 359.965 160.955 359.999 162.782C360.036 164.827 361.667 166.099 363.217 166.044L363.217 166.044Z" fill="#F27121"/>
<path d="M302 195.954C301.983 191.232 300.159 187.345 296.824 184.174C294.59 182.049 291.936 180.802 288.939 180.322C284.502 179.611 280.485 180.683 276.969 183.522C273.915 185.989 271.987 189.227 271.27 193.188C270.951 194.955 270.935 196.731 271.195 198.504C271.445 200.211 272.75 200.98 273.937 201.154C275.501 201.384 277.037 200.282 277.42 198.7C277.554 198.144 277.489 197.584 277.437 197.026C277.164 194.106 278.079 191.616 280.021 189.51C281.56 187.84 283.473 186.99 285.687 186.753C290.308 186.258 293.606 189.385 294.842 192.241C295.487 193.733 295.71 195.296 295.576 196.92C295.308 200.171 293.726 202.58 291.076 204.269C289.345 205.374 287.424 205.677 285.421 205.455C284.729 205.379 284.064 205.409 283.423 205.709C282.142 206.309 281.381 207.765 281.599 209.198C281.818 210.63 282.934 211.754 284.32 211.945C287.029 212.319 289.689 212.115 292.213 211C296.597 209.062 299.72 205.855 301.247 201.132C301.789 199.456 302.007 197.722 302 195.954Z" fill="#F27121"/>
<path d="M273.217 213.057C275.005 213.052 276.409 211.577 276.398 209.717C276.388 207.925 274.965 206.477 273.205 206.468C271.434 206.459 269.965 207.968 269.999 209.795C270.036 211.839 271.667 213.111 273.217 213.057L273.217 213.057Z" fill="#F27121"/>
<path d="M401 148.941C401.017 144.219 402.841 140.332 406.176 137.161C408.41 135.036 411.064 133.789 414.061 133.309C418.498 132.598 422.515 133.67 426.031 136.509C429.085 138.976 431.013 142.214 431.73 146.175C432.049 147.941 432.065 149.718 431.805 151.49C431.555 153.198 430.25 153.967 429.063 154.141C427.499 154.37 425.963 153.268 425.58 151.687C425.446 151.131 425.511 150.571 425.563 150.013C425.836 147.093 424.921 144.603 422.979 142.496C421.44 140.827 419.527 139.977 417.313 139.74C412.692 139.245 409.394 142.371 408.158 145.228C407.513 146.719 407.29 148.282 407.424 149.907C407.692 153.158 409.274 155.567 411.924 157.256C413.655 158.361 415.576 158.663 417.579 158.442C418.271 158.366 418.936 158.396 419.577 158.696C420.858 159.296 421.619 160.752 421.401 162.185C421.182 163.617 420.066 164.741 418.68 164.932C415.971 165.305 413.311 165.102 410.787 163.987C406.403 162.049 403.28 158.842 401.753 154.118C401.211 152.443 400.993 150.709 401 148.941Z" fill="#F27121"/>
<path d="M429.783 166.044C427.995 166.039 426.591 164.565 426.602 162.704C426.612 160.912 428.035 159.464 429.795 159.456C431.566 159.447 433.035 160.955 433.001 162.782C432.964 164.827 431.333 166.099 429.783 166.044L429.783 166.044Z" fill="#F27121"/>
<path d="M311 195.954C311.017 191.232 312.841 187.345 316.176 184.174C318.41 182.049 321.064 180.802 324.061 180.322C328.498 179.611 332.515 180.683 336.031 183.522C339.085 185.989 341.013 189.227 341.73 193.188C342.049 194.955 342.065 196.731 341.805 198.504C341.555 200.211 340.25 200.981 339.063 201.154C337.499 201.384 335.963 200.282 335.58 198.7C335.446 198.144 335.511 197.584 335.563 197.026C335.836 194.106 334.921 191.616 332.979 189.51C331.44 187.84 329.527 186.99 327.313 186.753C322.692 186.258 319.394 189.385 318.158 192.241C317.513 193.733 317.29 195.296 317.424 196.92C317.692 200.171 319.274 202.58 321.924 204.269C323.655 205.374 325.576 205.677 327.579 205.455C328.271 205.379 328.936 205.409 329.577 205.709C330.858 206.309 331.619 207.765 331.401 209.198C331.182 210.63 330.066 211.754 328.68 211.945C325.971 212.319 323.311 212.115 320.787 211C316.403 209.062 313.28 205.855 311.753 201.132C311.211 199.456 310.993 197.722 311 195.954Z" fill="#F27121"/>
<path d="M339.783 213.057C337.995 213.052 336.591 211.577 336.602 209.717C336.612 207.925 338.035 206.477 339.795 206.468C341.566 206.459 343.035 207.968 343.001 209.795C342.964 211.839 341.333 213.111 339.783 213.057L339.783 213.057Z" fill="#F27121"/>
</svg>
