<svg width="210" height="85" viewBox="0 0 210 85" fill="none" xmlns="http://www.w3.org/2000/svg">
<path d="M69.6351 12.021C78.86 21.7062 82.8182 33.1972 81.2153 46.5595C80.7901 50.0396 78.7619 52.4362 75.4906 53.5525C72.2848 54.6688 69.3407 53.9136 66.92 51.5826C64.9245 49.6784 64.1067 47.2489 64.4338 44.4583C65.2189 38.483 64.1067 32.9017 60.77 27.8785C56.3211 21.1809 50.0403 17.5367 42.0585 17.0442C35.745 16.6502 30.0857 18.5873 25.277 22.7568C19.3233 27.9442 16.5755 34.5761 17.0007 42.4556C17.3279 48.4637 19.6831 53.6838 23.9358 57.919C28.9735 62.9422 35.0907 65.2404 42.222 64.8793C43.2361 64.8464 44.2829 64.6166 45.297 64.6166C49.8441 64.5838 53.5079 67.9982 53.835 72.5289C54.1621 76.8627 50.9563 80.9009 46.5728 81.459C35.5814 82.9364 25.506 80.5397 16.6082 73.8422C6.04205 65.9955 0.480924 55.2597 0.0229494 41.9959C-0.304175 31.8511 2.86893 22.7568 9.346 14.9102C16.0194 6.86652 24.5573 2.0075 34.8617 0.464437C44.6428 -0.980137 53.7695 0.956905 62.2094 6.1114C64.9245 7.7858 67.3779 9.72284 69.6351 12.021Z" fill="#F27321"/>
<path d="M81.7372 69.8697C85.0739 73.2185 85.0739 78.6028 81.7372 81.9516C78.4005 85.2675 73.0684 85.2675 69.7644 81.9516C66.4277 78.6028 66.4277 73.2185 69.7317 69.9353C73.1011 66.5537 78.4332 66.5537 81.7372 69.9025" fill="#F27321"/>
<path d="M101.365 37.0713C102.052 37.4653 102.608 38.0234 103.034 38.7129C103.426 39.4023 103.655 40.1574 103.655 41.011C103.655 41.8646 103.459 42.6198 103.034 43.3092C102.608 43.9987 102.085 44.5568 101.365 44.9508C100.678 45.3448 99.8933 45.5417 99.0428 45.5417C98.5848 45.5417 98.1268 45.4432 97.6361 45.2791C97.1454 45.1149 96.7202 44.8851 96.393 44.6225C96.2949 44.5568 96.2295 44.4583 96.2295 44.3598C96.2295 44.327 96.2295 44.2942 96.2295 44.2613L96.8837 43.2436C96.8837 43.2436 96.9819 43.1451 97.0473 43.1451C97.1127 43.1451 97.2109 43.1451 97.2763 43.2107C97.5053 43.4077 97.7997 43.5719 98.0941 43.6704C98.4212 43.7689 98.7156 43.8345 98.9773 43.8345C99.3699 43.8345 99.7624 43.7689 100.122 43.6047C100.482 43.4405 100.809 43.2436 101.071 42.9809C101.333 42.7183 101.562 42.3899 101.692 42.0616H98.5848C98.5848 42.0616 98.4212 42.0616 98.3558 41.996C98.2904 41.9631 98.2904 41.8975 98.2904 41.799V40.7812C98.2904 40.7812 98.2904 40.6171 98.3558 40.5842C98.4212 40.5186 98.4866 40.5186 98.5848 40.5186H101.889C101.823 40.0589 101.66 39.6321 101.365 39.2382C101.104 38.877 100.744 38.5487 100.319 38.3517C99.8933 38.1219 99.4353 38.0234 98.9446 38.0234C98.6502 38.0234 98.3231 38.0891 98.0287 38.1876C97.7343 38.286 97.4398 38.4502 97.2109 38.6472C97.1454 38.7129 97.08 38.7129 97.0146 38.7129C96.9492 38.7129 96.8837 38.7129 96.851 38.6144L96.1968 37.6294C96.1968 37.6294 96.1641 37.5309 96.1641 37.4981C96.1641 37.4324 96.1968 37.3668 96.2949 37.3011C96.6548 37.0056 97.08 36.8086 97.5707 36.6445C98.0614 36.4803 98.5521 36.3818 98.9773 36.3818C99.8279 36.3818 100.58 36.5788 101.3 36.9728" fill="white"/>
<path d="M106.6 36.7101C106.6 36.7101 106.763 36.6116 106.862 36.6116H112.063C112.063 36.6116 112.226 36.6116 112.259 36.6772C112.325 36.7429 112.357 36.8086 112.357 36.9071V45.1477C112.357 45.1477 112.357 45.279 112.292 45.3447C112.259 45.3775 112.194 45.4103 112.128 45.4103H110.983C110.983 45.4103 110.853 45.4103 110.787 45.3447C110.754 45.279 110.722 45.2462 110.722 45.1477V38.0561H107.941C107.81 39.6649 107.679 40.9453 107.483 41.9631C107.32 42.9808 107.025 43.8344 106.633 44.4911C106.24 45.1477 105.684 45.476 104.964 45.476C104.768 45.476 104.604 45.476 104.539 45.476C104.474 45.476 104.408 45.4432 104.343 45.3775C104.31 45.3447 104.277 45.279 104.277 45.2134V44.1628C104.277 44.1628 104.277 44.0314 104.343 43.9986C104.375 43.9658 104.441 43.9329 104.506 43.9329H104.768C105.128 43.9329 105.422 43.6703 105.684 43.1122C105.913 42.554 106.109 41.7661 106.24 40.7483C106.371 39.7305 106.469 38.483 106.535 36.9727C106.535 36.8742 106.567 36.7757 106.633 36.7101" fill="white"/>
<path d="M121.028 43.9329C121.028 43.9329 121.126 44.0643 121.126 44.1628V45.1477C121.126 45.1477 121.126 45.279 121.061 45.3447C120.996 45.4103 120.963 45.4103 120.865 45.4103H114.715C114.715 45.4103 114.551 45.4103 114.519 45.3447C114.486 45.3118 114.453 45.2462 114.453 45.1477V36.8742C114.453 36.7101 114.551 36.6116 114.715 36.6116H120.767C120.767 36.6116 120.93 36.6116 120.963 36.6772C120.996 36.7101 121.028 36.7757 121.028 36.8742V37.9248C121.028 37.9248 121.028 38.0561 120.963 38.1218C120.93 38.1546 120.865 38.1875 120.767 38.1875H116.089V40.617H119.753C119.753 40.617 119.916 40.617 119.982 40.6826C120.047 40.7483 120.047 40.814 120.047 40.8796V41.8646C120.047 41.8646 120.047 41.9959 119.982 42.0616C119.916 42.0944 119.851 42.1272 119.753 42.1272H116.089V43.9001H120.799C120.799 43.9001 120.996 43.9001 121.061 43.9986" fill="white"/>
<path d="M130.448 45.2135C130.448 45.2135 130.448 45.312 130.415 45.312C130.415 45.312 130.35 45.3776 130.284 45.3776H128.877C128.877 45.3776 128.681 45.3448 128.616 45.2463L125.606 40.9126H124.396V45.1806C124.396 45.1806 124.396 45.2791 124.363 45.312C124.33 45.3448 124.265 45.3776 124.2 45.3776H122.957C122.957 45.3776 122.858 45.3776 122.826 45.312C122.826 45.2791 122.793 45.2463 122.793 45.1806V36.7758C122.793 36.7758 122.793 36.6773 122.826 36.6445C122.858 36.6117 122.891 36.5789 122.957 36.5789H124.2C124.2 36.5789 124.396 36.6445 124.396 36.7758V39.5008H125.475L127.405 36.743C127.405 36.743 127.504 36.6117 127.569 36.6117C127.634 36.6117 127.7 36.6117 127.765 36.6117H129.205C129.205 36.6117 129.303 36.6117 129.335 36.6445C129.335 36.6445 129.368 36.7102 129.368 36.743C129.368 36.8087 129.368 36.8743 129.303 36.9072L126.947 40.1246L130.415 45.0821C130.415 45.0821 130.448 45.1806 130.448 45.2463" fill="white"/>
<path d="M131.037 36.8415C131.037 36.8415 131.037 36.7102 131.102 36.6445C131.135 36.6117 131.2 36.5789 131.298 36.5789H137.285C137.285 36.5789 137.416 36.5789 137.448 36.6445C137.481 36.7102 137.514 36.743 137.514 36.8415V37.7608C137.514 37.7608 137.514 37.8921 137.448 37.9578C137.416 37.9906 137.35 38.0234 137.285 38.0234H135.093V45.1478C135.093 45.1478 135.093 45.2791 135.028 45.3448C134.995 45.3776 134.929 45.4105 134.831 45.4105H133.719C133.719 45.4105 133.555 45.4105 133.523 45.3448C133.49 45.312 133.457 45.2463 133.457 45.1478V38.0234H131.266C131.266 38.0234 131.135 38.0234 131.069 37.9578C131.037 37.8921 131.004 37.8593 131.004 37.7608V36.8415H131.037Z" fill="white"/>
<path d="M143.698 37.0385C144.287 37.334 144.745 37.7608 145.072 38.2861C145.399 38.8114 145.563 39.4023 145.563 40.0918C145.563 40.7813 145.399 41.3722 145.072 41.8647C144.745 42.39 144.287 42.784 143.698 43.0794C143.109 43.3749 142.455 43.5062 141.702 43.5062H140.557V45.115C140.557 45.115 140.557 45.2463 140.492 45.312C140.427 45.3448 140.394 45.3776 140.296 45.3776H139.184C139.184 45.3776 139.053 45.3776 138.987 45.312C138.922 45.2791 138.922 45.2135 138.922 45.115V36.8415C138.922 36.8415 138.922 36.7102 138.987 36.6445C139.02 36.6117 139.085 36.5789 139.184 36.5789H141.702C142.455 36.5789 143.109 36.7102 143.698 37.0385ZM142.815 41.8318C143.175 41.6677 143.436 41.4379 143.632 41.1096C143.829 40.8141 143.927 40.4529 143.927 40.059C143.927 39.665 143.829 39.3367 143.632 39.0084C143.436 38.7129 143.142 38.4502 142.815 38.2861C142.455 38.1219 142.062 38.0234 141.604 38.0234H140.557V42.0945H141.604C142.062 42.0945 142.455 41.996 142.815 41.8318Z" fill="white"/>
<path d="M154.853 36.5459C154.853 36.5459 154.918 36.6444 154.918 36.7429V45.2133C154.918 45.2133 154.918 45.3118 154.853 45.3447C154.82 45.3447 154.788 45.3775 154.722 45.3775H153.479C153.479 45.3775 153.381 45.3775 153.348 45.3447C153.315 45.3118 153.283 45.2462 153.283 45.2133V39.9932L147.722 45.3118C147.722 45.3118 147.689 45.3447 147.623 45.4103C147.591 45.4431 147.525 45.476 147.493 45.5088C147.46 45.5088 147.427 45.5088 147.362 45.5088C147.362 45.5088 147.264 45.5088 147.198 45.4431C147.166 45.3775 147.133 45.3447 147.133 45.2462V36.8085C147.133 36.8085 147.133 36.71 147.198 36.6772C147.231 36.6772 147.264 36.6115 147.329 36.6115H148.572C148.572 36.6115 148.67 36.6116 148.703 36.6444C148.703 36.6772 148.768 36.7429 148.768 36.7757V42.0287L154.395 36.6772C154.395 36.6772 154.428 36.6444 154.493 36.5787C154.526 36.5459 154.559 36.5131 154.624 36.4802C154.657 36.4802 154.689 36.4802 154.722 36.4802C154.722 36.4802 154.82 36.4802 154.886 36.5459" fill="white"/>
<path d="M163.388 36.6444C163.388 36.6444 163.454 36.7429 163.454 36.8414V45.1148C163.454 45.1148 163.454 45.2462 163.388 45.3118C163.355 45.3447 163.29 45.3775 163.225 45.3775H162.08C162.08 45.3775 161.949 45.3775 161.916 45.3118C161.883 45.2462 161.851 45.1805 161.851 45.1148V42.5868C161.556 42.7182 161.229 42.8167 160.902 42.8823C160.575 42.948 160.215 42.9808 159.79 42.9808C159.136 42.9808 158.547 42.8495 158.056 42.554C157.565 42.2914 157.173 41.8646 156.878 41.3721C156.584 40.8468 156.453 40.2558 156.453 39.5335V36.8085C156.453 36.8085 156.453 36.6772 156.519 36.6116C156.551 36.5459 156.617 36.5459 156.682 36.5459H157.794C157.794 36.5459 157.925 36.5459 157.991 36.6116C158.056 36.6772 158.056 36.7101 158.056 36.8085V39.5335C158.056 39.9275 158.121 40.2558 158.285 40.5185C158.449 40.814 158.645 41.0109 158.939 41.1751C159.234 41.3393 159.561 41.4049 159.953 41.4049C160.346 41.4049 160.64 41.3721 160.935 41.3064C161.196 41.2408 161.524 41.1094 161.851 40.9781V36.8085C161.851 36.8085 161.851 36.6772 161.916 36.6116C161.949 36.5459 162.014 36.5459 162.08 36.5459H163.225C163.225 36.5459 163.355 36.5459 163.388 36.6116" fill="white"/>
<path d="M172.122 43.9329C172.122 43.9329 172.22 44.0643 172.22 44.1628V45.1477C172.22 45.1477 172.22 45.279 172.155 45.3447C172.089 45.4103 172.057 45.4103 171.959 45.4103H165.809C165.809 45.4103 165.645 45.4103 165.612 45.3447C165.58 45.3118 165.547 45.2462 165.547 45.1477V36.8742C165.547 36.7101 165.645 36.6116 165.809 36.6116H171.86C171.86 36.6116 172.024 36.6116 172.057 36.6772C172.089 36.7101 172.122 36.7757 172.122 36.8742V37.9248C172.122 37.9248 172.122 38.0561 172.057 38.1218C172.024 38.1546 171.959 38.1875 171.86 38.1875H167.182V40.617H170.846C170.846 40.617 171.01 40.617 171.075 40.6826C171.141 40.7483 171.141 40.814 171.141 40.8796V41.8646C171.141 41.8646 171.141 41.9959 171.075 42.0616C171.01 42.0944 170.944 42.1272 170.846 42.1272H167.182V43.9001H171.893C171.893 43.9001 172.089 43.9001 172.155 43.9986" fill="white"/>
<path d="M179.845 43.2108C179.845 43.2108 179.976 43.2107 180.008 43.3092L180.663 44.327C180.663 44.327 180.663 44.3598 180.663 44.3927C180.663 44.4912 180.63 44.5568 180.532 44.6553C180.172 44.918 179.779 45.1478 179.289 45.3119C178.798 45.4761 178.34 45.5746 177.882 45.5746C177.031 45.5746 176.279 45.3776 175.559 44.9836C174.872 44.5897 174.316 44.0315 173.891 43.3421C173.466 42.6526 173.27 41.8975 173.27 41.0439C173.27 40.1903 173.466 39.4352 173.891 38.7457C174.284 38.0563 174.84 37.4981 175.559 37.1041C176.246 36.7102 177.031 36.5132 177.882 36.5132C178.34 36.5132 178.798 36.5788 179.289 36.7758C179.779 36.94 180.205 37.1698 180.564 37.4325C180.63 37.4981 180.695 37.5638 180.695 37.6623C180.695 37.6951 180.695 37.7279 180.663 37.7936L180.008 38.7785C180.008 38.7785 179.91 38.877 179.845 38.877C179.779 38.877 179.714 38.877 179.648 38.8114C179.419 38.6144 179.125 38.4502 178.831 38.3517C178.536 38.2532 178.209 38.1876 177.915 38.1876C177.359 38.1876 176.868 38.3189 176.41 38.5816C175.952 38.8442 175.592 39.1725 175.33 39.6321C175.069 40.0918 174.938 40.5514 174.938 41.1096C174.938 41.6677 175.069 42.1273 175.33 42.587C175.592 43.0138 175.952 43.3749 176.41 43.6376C176.868 43.9002 177.359 44.0315 177.915 44.0315C178.209 44.0315 178.504 43.9659 178.798 43.8674C179.125 43.7689 179.387 43.6047 179.616 43.4077C179.681 43.3749 179.747 43.3421 179.812 43.3421" fill="white"/>
<path d="M190.018 45.2135C190.018 45.2135 190.018 45.312 189.985 45.312C189.985 45.312 189.92 45.3776 189.854 45.3776H188.448C188.448 45.3776 188.252 45.3448 188.186 45.2463L185.177 40.9126H183.966V45.1806C183.966 45.1806 183.966 45.2791 183.933 45.312C183.901 45.3448 183.835 45.3776 183.77 45.3776H182.527C182.527 45.3776 182.429 45.3776 182.396 45.312C182.396 45.2791 182.363 45.2463 182.363 45.1806V36.7758C182.363 36.7758 182.363 36.6773 182.396 36.6445C182.429 36.6117 182.461 36.5789 182.527 36.5789H183.77C183.77 36.5789 183.966 36.6445 183.966 36.7758V39.5008H185.046L186.976 36.743C186.976 36.743 187.074 36.6117 187.139 36.6117C187.205 36.6117 187.27 36.6117 187.336 36.6117H188.775C188.775 36.6117 188.873 36.6117 188.906 36.6445C188.906 36.6445 188.971 36.7102 188.971 36.743C188.971 36.8087 188.971 36.8743 188.906 36.9072L186.55 40.1246L190.018 45.0821C190.018 45.0821 190.051 45.1806 190.051 45.2463" fill="white"/>
<path d="M199.08 36.5459C199.08 36.5459 199.145 36.6444 199.145 36.7429V45.2133C199.145 45.2133 199.145 45.3118 199.08 45.3447C199.047 45.3447 199.014 45.3775 198.949 45.3775H197.706C197.706 45.3775 197.607 45.3775 197.575 45.3447C197.542 45.3118 197.509 45.2462 197.509 45.2133V39.9932L191.948 45.3118C191.948 45.3118 191.883 45.3447 191.85 45.4103C191.817 45.4431 191.752 45.476 191.719 45.5088C191.686 45.5088 191.654 45.5088 191.588 45.5088C191.588 45.5088 191.49 45.5088 191.425 45.4431C191.392 45.3775 191.359 45.3447 191.359 45.2462V36.8085C191.359 36.8085 191.359 36.71 191.425 36.6772C191.458 36.6772 191.49 36.6115 191.556 36.6115H192.799C192.799 36.6115 192.897 36.6116 192.93 36.6444C192.93 36.6772 192.962 36.7429 192.962 36.7757V42.0287L198.589 36.6772C198.589 36.6772 198.622 36.6444 198.687 36.5787C198.72 36.5459 198.752 36.5131 198.818 36.4802C198.851 36.4802 198.883 36.4802 198.916 36.4802C198.916 36.4802 199.014 36.4802 199.08 36.5459Z" fill="white"/>
<path d="M208.958 36.5459C208.958 36.5459 209.024 36.6443 209.024 36.7428V45.2133C209.024 45.2133 209.024 45.3118 208.958 45.3446C208.926 45.3774 208.86 45.4103 208.828 45.4103H207.585C207.585 45.4103 207.486 45.4103 207.454 45.3446C207.421 45.279 207.388 45.279 207.388 45.2133V39.9931L201.827 45.3118C201.827 45.3118 201.762 45.3446 201.729 45.4103C201.696 45.4431 201.631 45.4759 201.598 45.5088C201.565 45.5088 201.533 45.5088 201.467 45.5088C201.467 45.5088 201.369 45.5088 201.304 45.4431C201.271 45.3774 201.238 45.3118 201.238 45.2461V36.8085C201.238 36.8085 201.238 36.71 201.304 36.6772C201.336 36.6443 201.369 36.6115 201.435 36.6115H202.678C202.678 36.6115 202.776 36.6115 202.808 36.6443C202.841 36.6772 202.874 36.71 202.874 36.7757V42.0287L208.5 36.71C208.5 36.71 208.533 36.6443 208.599 36.6115C208.631 36.5787 208.697 36.5459 208.729 36.513C208.762 36.513 208.795 36.513 208.828 36.513C208.828 36.513 208.958 36.513 208.991 36.5787M204.019 34.8058C203.757 34.5431 203.594 34.2148 203.594 33.788C203.594 33.6895 203.594 33.6239 203.659 33.5582C203.692 33.4926 203.757 33.4597 203.823 33.4597H204.215C204.215 33.4597 204.346 33.4597 204.379 33.5254C204.411 33.5582 204.444 33.6567 204.444 33.7224C204.444 33.8865 204.51 34.0507 204.64 34.1492C204.771 34.2477 204.935 34.3133 205.197 34.3133C205.458 34.3133 205.622 34.2805 205.753 34.1492C205.883 34.0507 205.949 33.9194 205.949 33.7224C205.949 33.5254 206.047 33.4597 206.211 33.4597H206.57C206.57 33.4597 206.701 33.4597 206.734 33.5582C206.767 33.6239 206.799 33.6895 206.799 33.788C206.799 34.2148 206.669 34.576 206.374 34.8058C206.112 35.0684 205.687 35.1998 205.197 35.1998C204.706 35.1998 204.281 35.0684 203.986 34.8058" fill="white"/>
<path d="M115.301 70.6574C116.021 71.6424 116.413 72.8571 116.413 74.2689C116.413 75.6806 116.054 76.8954 115.301 77.9788C114.581 79.0622 113.535 79.883 112.161 80.474C110.82 81.0649 109.249 81.3604 107.45 81.3604C106.011 81.3604 104.67 81.0978 103.427 80.6053C102.183 80.1128 101.202 79.4234 100.482 78.5369C100.221 78.3071 100.09 78.0445 100.09 77.7818C100.09 77.552 100.155 77.3878 100.319 77.2237L101.791 75.3523C101.791 75.3523 102.085 75.1553 102.216 75.1553C102.347 75.1553 102.543 75.221 102.74 75.3523C103.296 76.0418 103.983 76.5342 104.866 76.8297C105.716 77.1252 106.698 77.2893 107.745 77.2893C108.661 77.2893 109.446 77.158 110.1 76.8625C110.787 76.5671 111.31 76.1731 111.67 75.6478C112.03 75.1225 112.226 74.5315 112.226 73.8421C112.226 73.1526 112.03 72.5617 111.67 72.0364C111.278 71.5111 110.754 71.1171 110.034 70.8216C109.347 70.5261 108.53 70.3948 107.581 70.3948H105.716C105.487 70.3948 105.324 70.3291 105.193 70.1978C105.062 70.0665 104.997 69.9023 104.997 69.7053V67.7683C104.997 67.5385 105.062 67.3743 105.16 67.243C105.291 67.1117 105.422 67.046 105.618 67.046H107.483C108.137 67.046 108.726 66.9475 109.217 66.7834C109.707 66.5864 110.1 66.3237 110.362 65.9954C110.623 65.6671 110.754 65.2731 110.754 64.8791C110.754 64.4195 110.623 64.0255 110.362 63.6644C110.1 63.3032 109.74 63.0406 109.249 62.8436C108.791 62.6466 108.203 62.5481 107.581 62.5481C106.861 62.5481 106.174 62.6795 105.52 62.9093C104.833 63.1391 104.31 63.4674 103.95 63.8286C103.786 63.9599 103.623 64.0255 103.427 64.0255C103.263 64.0255 103.132 63.9599 103.067 63.8614L101.496 61.6289C101.496 61.6289 101.366 61.3662 101.366 61.2349C101.366 61.0707 101.431 60.9066 101.562 60.7752C102.183 60.1186 103.034 59.5605 104.146 59.1665C105.258 58.7397 106.403 58.5427 107.581 58.5427C109.053 58.5427 110.329 58.7725 111.408 59.265C112.488 59.7575 113.338 60.4469 113.927 61.3662C114.516 62.2527 114.81 63.3032 114.81 64.4852C114.81 65.4044 114.581 66.2252 114.091 66.9475C113.633 67.6698 112.979 68.1951 112.161 68.5234C113.437 68.8846 114.451 69.574 115.203 70.5589" fill="#F27321"/>
<path d="M138.985 80.5397C138.985 80.5397 138.952 80.8023 138.854 80.868C138.756 80.9336 138.625 80.9665 138.461 80.9665H135.354C135.354 80.9665 135.059 80.9008 134.928 80.8023C134.798 80.7038 134.7 80.5725 134.634 80.4083L133.751 78.2743H123.708L122.825 80.4083C122.825 80.4083 122.661 80.7038 122.53 80.8023C122.4 80.9008 122.236 80.9665 122.072 80.9665H118.998C118.801 80.9665 118.67 80.9336 118.572 80.8351C118.474 80.7695 118.441 80.671 118.441 80.5068C118.441 80.4083 118.441 80.3098 118.507 80.2113L127.83 59.2322C127.895 59.068 128.026 58.9367 128.157 58.8054C128.288 58.7069 128.451 58.6741 128.615 58.6741H128.811C128.975 58.6741 129.138 58.7069 129.269 58.8382C129.4 58.9367 129.531 59.068 129.596 59.265L138.952 80.2442C138.952 80.2442 139.018 80.474 139.018 80.5397M132.311 74.7614L128.713 65.9954L125.115 74.7614H132.311Z" fill="#F27321"/>
<path d="M154.198 60.0859C155.67 60.841 156.815 61.8588 157.633 63.2048C158.45 64.5181 158.876 66.0283 158.876 67.6699C158.876 69.3114 158.45 70.8217 157.633 72.1349C156.815 73.4482 155.67 74.4659 154.198 75.1882C152.726 75.9105 151.09 76.3045 149.226 76.3045H146.347V80.3427C146.347 80.5397 146.281 80.7039 146.151 80.8024C146.02 80.9337 145.856 80.9665 145.66 80.9665H142.879C142.683 80.9665 142.52 80.9009 142.421 80.8024C142.291 80.671 142.258 80.5397 142.258 80.3427V59.6262C142.258 59.4292 142.323 59.2651 142.454 59.1666C142.585 59.0353 142.716 59.0024 142.912 59.0024H149.226C151.057 59.0024 152.726 59.3636 154.198 60.1187M151.973 72.1021C152.857 71.6753 153.544 71.0843 154.067 70.2964C154.558 69.5084 154.819 68.6548 154.819 67.6699C154.819 66.6849 154.558 65.8313 154.067 65.0434C153.576 64.2883 152.857 63.6645 151.973 63.2377C151.09 62.8109 150.076 62.581 148.964 62.581H146.347V72.7259H148.964C150.076 72.7259 151.09 72.5289 151.973 72.1021Z" fill="#F27321"/>
<path d="M179.156 59.1339C179.156 59.1339 179.352 59.3965 179.352 59.5935V80.3429C179.352 80.5398 179.287 80.6712 179.189 80.8025C179.058 80.901 178.927 80.9667 178.731 80.9667H175.95C175.754 80.9667 175.59 80.901 175.492 80.8025C175.361 80.6712 175.329 80.5398 175.329 80.3429V75.8778H170.782C170.225 75.8778 169.735 75.845 169.31 75.7793L167.02 80.4414C167.02 80.4414 166.823 80.7368 166.693 80.8353C166.562 80.9338 166.431 80.9995 166.3 80.9995H163.127C162.963 80.9995 162.832 80.9666 162.734 80.8682C162.636 80.8025 162.603 80.704 162.603 80.5727C162.603 80.4742 162.603 80.3757 162.702 80.2444L165.646 74.4989C164.468 73.7438 163.585 72.7917 162.931 71.5769C162.276 70.3622 161.949 69.0161 161.949 67.5387C161.949 65.8971 162.342 64.4526 163.094 63.1721C163.847 61.8917 164.893 60.8739 166.235 60.1188C167.576 59.3965 169.081 59.0354 170.782 59.0354H178.731C178.927 59.0354 179.058 59.1011 179.189 59.1996M175.296 72.4962V62.5812H171.011C170.062 62.5812 169.211 62.7782 168.459 63.205C167.707 63.6318 167.085 64.2227 166.627 64.9779C166.202 65.733 165.973 66.5537 165.973 67.5059C165.973 68.458 166.202 69.3444 166.627 70.0995C167.052 70.8546 167.641 71.4456 168.426 71.8724C169.179 72.2992 170.062 72.4962 171.043 72.4962H175.329H175.296Z" fill="#F27321"/>
<path d="M205.456 77.5193C205.456 77.5193 205.587 77.7491 205.587 77.8476V84.4466C205.587 84.6436 205.522 84.775 205.424 84.8735C205.325 84.972 205.227 85.0048 205.096 85.0048H202.316C202.152 85.0048 202.022 84.9391 201.923 84.8406C201.825 84.7421 201.793 84.6108 201.793 84.4466V81.0979H186.025V84.4466C186.025 84.4466 185.96 84.7421 185.894 84.8406C185.796 84.9391 185.665 85.0048 185.502 85.0048H182.721C182.721 85.0048 182.492 84.972 182.394 84.8735C182.296 84.775 182.23 84.6436 182.23 84.4466V77.8476C182.23 77.8476 182.263 77.6178 182.361 77.5193C182.427 77.4208 182.59 77.3551 182.787 77.3551H184.717C185.175 76.5343 185.633 75.4509 186.091 74.1048C186.516 72.7587 186.908 71.3142 187.235 69.7383C187.563 68.1952 187.792 66.685 187.89 65.2732L188.38 59.6591C188.38 59.4949 188.446 59.3636 188.544 59.2651C188.642 59.1666 188.773 59.1338 188.904 59.1338H202.218C202.218 59.1338 202.512 59.1666 202.61 59.2651C202.708 59.3636 202.774 59.4949 202.774 59.6591V77.3551H205.064C205.26 77.3551 205.391 77.4208 205.489 77.5193M198.718 62.7452H192.11L191.913 65.5359C191.815 66.9804 191.652 68.4579 191.357 69.9681C191.063 71.4783 190.736 72.8572 190.343 74.1705C189.951 75.4509 189.525 76.5343 189.1 77.3551H198.75V62.7452H198.718Z" fill="#F27321"/>
</svg>
