<svg width="209" height="85" viewBox="0 0 209 85" fill="none" xmlns="http://www.w3.org/2000/svg">
<path d="M69.6275 12.021C78.8514 21.7062 82.8091 33.1972 81.2064 46.5595C80.7812 50.0396 78.7532 52.4362 75.4823 53.5525C72.2769 54.6688 69.3331 53.9136 66.9126 51.5826C64.9174 49.6784 64.0997 47.2489 64.4267 44.4583C65.2118 38.483 64.0997 32.9017 60.7633 27.8785C56.3149 21.1809 50.0348 17.5367 42.0539 17.0442C35.7411 16.6502 30.0824 18.5873 25.2742 22.7568C19.3212 27.9442 16.5736 34.5761 16.9989 42.4556C17.3259 48.4637 19.681 53.6838 23.9331 57.919C28.9703 62.9422 35.0869 65.2404 42.2174 64.8793C43.2314 64.8464 44.2781 64.6166 45.292 64.6166C49.8386 64.5838 53.502 67.9982 53.8291 72.5289C54.1562 76.8627 50.9507 80.9009 46.5677 81.459C35.5775 82.9364 25.5032 80.5397 16.6064 73.8422C6.04138 65.9955 0.480871 55.2597 0.0229469 41.9959C-0.304142 31.8511 2.86862 22.7568 9.34498 14.9102C16.0176 6.86652 24.5546 2.0075 34.8579 0.464437C44.6379 -0.980137 53.7636 0.956905 62.2025 6.1114C64.9174 7.7858 67.3705 9.72284 69.6275 12.021Z" fill="white"/>
<path d="M81.7278 69.8697C85.0641 73.2185 85.0641 78.6028 81.7278 81.9516C78.3915 85.2675 73.0599 85.2675 69.7563 81.9516C66.42 78.6028 66.42 73.2185 69.7236 69.9353C73.0926 66.5537 78.4242 66.5537 81.7278 69.9025" fill="white"/>
<path d="M101.354 37.0713C102.041 37.4653 102.597 38.0234 103.022 38.7129C103.415 39.4023 103.644 40.1574 103.644 41.011C103.644 41.8646 103.447 42.6198 103.022 43.3092C102.597 43.9987 102.073 44.5568 101.354 44.9508C100.667 45.3448 99.8816 45.5417 99.031 45.5417C98.5731 45.5417 98.1151 45.4432 97.6244 45.2791C97.1337 45.1149 96.7085 44.8851 96.3813 44.6225C96.2832 44.5568 96.2178 44.4583 96.2178 44.3598C96.2178 44.327 96.2178 44.2942 96.2178 44.2613L96.872 43.2436C96.872 43.2436 96.9702 43.1451 97.0356 43.1451C97.101 43.1451 97.1991 43.1451 97.2646 43.2107C97.4936 43.4077 97.788 43.5719 98.0824 43.6704C98.4095 43.7689 98.7039 43.8345 98.9656 43.8345C99.3582 43.8345 99.7507 43.7689 100.111 43.6047C100.47 43.4405 100.798 43.2436 101.059 42.9809C101.321 42.7183 101.55 42.3899 101.681 42.0616H98.5731C98.5731 42.0616 98.4095 42.0616 98.3441 41.996C98.2787 41.9631 98.2787 41.8975 98.2787 41.799V40.7812C98.2787 40.7812 98.2787 40.6171 98.3441 40.5842C98.4095 40.5186 98.4749 40.5186 98.5731 40.5186H101.877C101.812 40.0589 101.648 39.6321 101.354 39.2382C101.092 38.877 100.732 38.5487 100.307 38.3517C99.8816 38.1219 99.4236 38.0234 98.9329 38.0234C98.6385 38.0234 98.3114 38.0891 98.017 38.1876C97.7225 38.286 97.4281 38.4502 97.1991 38.6472C97.1337 38.7129 97.0683 38.7129 97.0029 38.7129C96.9374 38.7129 96.872 38.7129 96.8393 38.6144L96.1851 37.6294C96.1851 37.6294 96.1523 37.5309 96.1523 37.4981C96.1523 37.4324 96.1851 37.3668 96.2832 37.3011C96.643 37.0056 97.0683 36.8086 97.559 36.6445C98.0497 36.4803 98.5404 36.3818 98.9656 36.3818C99.8161 36.3818 100.569 36.5788 101.288 36.9728" fill="white"/>
<path d="M106.588 36.7098C106.588 36.7098 106.752 36.6113 106.85 36.6113H112.051C112.051 36.6113 112.215 36.6113 112.247 36.677C112.313 36.7427 112.346 36.8083 112.346 36.9068V45.1474C112.346 45.1474 112.346 45.2788 112.28 45.3444C112.247 45.3773 112.182 45.4101 112.117 45.4101H110.972C110.972 45.4101 110.841 45.4101 110.775 45.3444C110.743 45.2788 110.71 45.2459 110.71 45.1474V38.0559H107.929C107.799 39.6646 107.668 40.945 107.471 41.9628C107.308 42.9806 107.013 43.8342 106.621 44.4908C106.228 45.1474 105.672 45.4758 104.953 45.4758C104.756 45.4758 104.593 45.4758 104.527 45.4758C104.462 45.4758 104.396 45.4429 104.331 45.3773C104.298 45.3444 104.266 45.2788 104.266 45.2131V44.1625C104.266 44.1625 104.266 44.0312 104.331 43.9983C104.364 43.9655 104.429 43.9327 104.495 43.9327H104.756C105.116 43.9327 105.411 43.67 105.672 43.1119C105.901 42.5538 106.098 41.7658 106.228 40.7481C106.359 39.7303 106.457 38.4827 106.523 36.9725C106.523 36.874 106.555 36.7755 106.621 36.7098" fill="white"/>
<path d="M121.013 43.9327C121.013 43.9327 121.111 44.064 121.111 44.1625V45.1474C121.111 45.1474 121.111 45.2788 121.045 45.3444C120.98 45.4101 120.947 45.4101 120.849 45.4101H114.699C114.699 45.4101 114.536 45.4101 114.503 45.3444C114.47 45.3116 114.438 45.2459 114.438 45.1474V36.874C114.438 36.7098 114.536 36.6113 114.699 36.6113H120.751C120.751 36.6113 120.915 36.6113 120.947 36.677C120.98 36.7098 121.013 36.7755 121.013 36.874V37.9246C121.013 37.9246 121.013 38.0559 120.947 38.1216C120.915 38.1544 120.849 38.1872 120.751 38.1872H116.073V40.6167H119.737C119.737 40.6167 119.9 40.6167 119.966 40.6824C120.031 40.7481 120.031 40.8137 120.031 40.8794V41.8643C120.031 41.8643 120.031 41.9956 119.966 42.0613C119.9 42.0941 119.835 42.127 119.737 42.127H116.073V43.8999H120.784C120.784 43.8999 120.98 43.8999 121.045 43.9984" fill="white"/>
<path d="M130.432 45.2132C130.432 45.2132 130.432 45.3117 130.399 45.3117C130.399 45.3117 130.334 45.3774 130.269 45.3774H128.862C128.862 45.3774 128.666 45.3445 128.6 45.2461L125.591 40.9123H124.38V45.1804C124.38 45.1804 124.38 45.2789 124.348 45.3117C124.315 45.3445 124.249 45.3774 124.184 45.3774H122.941C122.941 45.3774 122.843 45.3774 122.81 45.3117C122.81 45.2789 122.777 45.2461 122.777 45.1804V36.7756C122.777 36.7756 122.777 36.6771 122.81 36.6443C122.843 36.6114 122.875 36.5786 122.941 36.5786H124.184C124.184 36.5786 124.38 36.6443 124.38 36.7756V39.5006H125.46L127.39 36.7428C127.39 36.7428 127.488 36.6114 127.553 36.6114C127.619 36.6114 127.684 36.6114 127.75 36.6114H129.189C129.189 36.6114 129.287 36.6114 129.32 36.6443C129.32 36.6443 129.353 36.7099 129.353 36.7428C129.353 36.8084 129.353 36.8741 129.287 36.9069L126.932 40.1244L130.399 45.0819C130.399 45.0819 130.432 45.1804 130.432 45.2461" fill="white"/>
<path d="M131.021 36.8413C131.021 36.8413 131.021 36.7099 131.086 36.6443C131.119 36.6114 131.185 36.5786 131.283 36.5786H137.269C137.269 36.5786 137.4 36.5786 137.433 36.6443C137.465 36.7099 137.498 36.7428 137.498 36.8413V37.7605C137.498 37.7605 137.498 37.8919 137.433 37.9575C137.4 37.9904 137.334 38.0232 137.269 38.0232H135.077V45.1476C135.077 45.1476 135.077 45.2789 135.012 45.3445C134.979 45.3774 134.914 45.4102 134.816 45.4102H133.703C133.703 45.4102 133.54 45.4102 133.507 45.3445C133.474 45.3117 133.442 45.2461 133.442 45.1476V38.0232H131.25C131.25 38.0232 131.119 38.0232 131.054 37.9575C131.021 37.8919 130.988 37.859 130.988 37.7605V36.8413H131.021Z" fill="white"/>
<path d="M143.682 37.0382C144.271 37.3337 144.729 37.7605 145.056 38.2858C145.383 38.8111 145.547 39.4021 145.547 40.0916C145.547 40.781 145.383 41.372 145.056 41.8644C144.729 42.3897 144.271 42.7837 143.682 43.0792C143.093 43.3747 142.439 43.506 141.687 43.506H140.542V45.1147C140.542 45.1147 140.542 45.2461 140.476 45.3117C140.411 45.3445 140.378 45.3774 140.28 45.3774H139.168C139.168 45.3774 139.037 45.3774 138.972 45.3117C138.906 45.2789 138.906 45.2132 138.906 45.1147V36.8413C138.906 36.8413 138.906 36.7099 138.972 36.6443C139.004 36.6114 139.07 36.5786 139.168 36.5786H141.687C142.439 36.5786 143.093 36.7099 143.682 37.0382ZM142.799 41.8316C143.159 41.6674 143.421 41.4376 143.617 41.1093C143.813 40.8138 143.911 40.4527 143.911 40.0587C143.911 39.6647 143.813 39.3364 143.617 39.0081C143.421 38.7126 143.126 38.45 142.799 38.2858C142.439 38.1217 142.047 38.0232 141.589 38.0232H140.542V42.0943H141.589C142.047 42.0943 142.439 41.9958 142.799 41.8316Z" fill="white"/>
<path d="M154.833 36.5461C154.833 36.5461 154.899 36.6446 154.899 36.7431V45.2136C154.899 45.2136 154.899 45.3121 154.833 45.3449C154.801 45.3449 154.768 45.3777 154.703 45.3777H153.459C153.459 45.3777 153.361 45.3777 153.329 45.3449C153.296 45.3121 153.263 45.2464 153.263 45.2136V39.9934L147.702 45.3121C147.702 45.3121 147.669 45.3449 147.604 45.4106C147.571 45.4434 147.506 45.4762 147.473 45.5091C147.44 45.5091 147.408 45.5091 147.342 45.5091C147.342 45.5091 147.244 45.5091 147.179 45.4434C147.146 45.3777 147.113 45.3449 147.113 45.2464V36.8088C147.113 36.8088 147.113 36.7103 147.179 36.6775C147.211 36.6775 147.244 36.6118 147.31 36.6118H148.553C148.553 36.6118 148.651 36.6118 148.683 36.6446C148.683 36.6775 148.749 36.7431 148.749 36.776V42.0289L154.375 36.6775C154.375 36.6775 154.408 36.6446 154.474 36.579C154.506 36.5461 154.539 36.5133 154.604 36.4805C154.637 36.4805 154.67 36.4805 154.703 36.4805C154.703 36.4805 154.801 36.4805 154.866 36.5461" fill="white"/>
<path d="M163.373 36.6444C163.373 36.6444 163.438 36.7429 163.438 36.8414V45.1148C163.438 45.1148 163.438 45.2462 163.373 45.3118C163.34 45.3447 163.274 45.3775 163.209 45.3775H162.064C162.064 45.3775 161.933 45.3775 161.9 45.3118C161.868 45.2462 161.835 45.1805 161.835 45.1148V42.5868C161.541 42.7182 161.214 42.8167 160.886 42.8823C160.559 42.948 160.199 42.9808 159.774 42.9808C159.12 42.9808 158.531 42.8495 158.04 42.554C157.55 42.2914 157.157 41.8646 156.863 41.3721C156.568 40.8468 156.438 40.2558 156.438 39.5335V36.8085C156.438 36.8085 156.438 36.6772 156.503 36.6116C156.536 36.5459 156.601 36.5459 156.666 36.5459H157.779C157.779 36.5459 157.91 36.5459 157.975 36.6116C158.04 36.6772 158.04 36.7101 158.04 36.8085V39.5335C158.04 39.9275 158.106 40.2558 158.269 40.5185C158.433 40.814 158.629 41.0109 158.924 41.1751C159.218 41.3393 159.545 41.4049 159.938 41.4049C160.33 41.4049 160.625 41.3721 160.919 41.3064C161.181 41.2408 161.508 41.1094 161.835 40.9781V36.8085C161.835 36.8085 161.835 36.6772 161.9 36.6116C161.933 36.5459 161.999 36.5459 162.064 36.5459H163.209C163.209 36.5459 163.34 36.5459 163.373 36.6116" fill="white"/>
<path d="M172.103 43.9327C172.103 43.9327 172.201 44.064 172.201 44.1625V45.1474C172.201 45.1474 172.201 45.2788 172.135 45.3444C172.07 45.4101 172.037 45.4101 171.939 45.4101H165.789C165.789 45.4101 165.625 45.4101 165.593 45.3444C165.56 45.3116 165.527 45.2459 165.527 45.1474V36.874C165.527 36.7098 165.625 36.6113 165.789 36.6113H171.841C171.841 36.6113 172.004 36.6113 172.037 36.677C172.07 36.7098 172.103 36.7755 172.103 36.874V37.9246C172.103 37.9246 172.103 38.0559 172.037 38.1216C172.004 38.1544 171.939 38.1872 171.841 38.1872H167.163V40.6167H170.827C170.827 40.6167 170.99 40.6167 171.056 40.6824C171.121 40.7481 171.121 40.8137 171.121 40.8794V41.8643C171.121 41.8643 171.121 41.9956 171.056 42.0613C170.99 42.0941 170.925 42.127 170.827 42.127H167.163V43.8999H171.874C171.874 43.8999 172.07 43.8999 172.135 43.9984" fill="white"/>
<path d="M179.825 43.2108C179.825 43.2108 179.956 43.2107 179.989 43.3092L180.643 44.327C180.643 44.327 180.643 44.3598 180.643 44.3927C180.643 44.4912 180.61 44.5568 180.512 44.6553C180.152 44.918 179.76 45.1478 179.269 45.3119C178.778 45.4761 178.32 45.5746 177.862 45.5746C177.012 45.5746 176.26 45.3776 175.54 44.9836C174.853 44.5897 174.297 44.0315 173.872 43.3421C173.446 42.6526 173.25 41.8975 173.25 41.0439C173.25 40.1903 173.446 39.4352 173.872 38.7457C174.264 38.0563 174.82 37.4981 175.54 37.1041C176.227 36.7102 177.012 36.5132 177.862 36.5132C178.32 36.5132 178.778 36.5788 179.269 36.7758C179.76 36.94 180.185 37.1698 180.545 37.4325C180.61 37.4981 180.676 37.5638 180.676 37.6623C180.676 37.6951 180.676 37.7279 180.643 37.7936L179.989 38.7785C179.989 38.7785 179.891 38.877 179.825 38.877C179.76 38.877 179.694 38.877 179.629 38.8114C179.4 38.6144 179.106 38.4502 178.811 38.3517C178.517 38.2532 178.19 38.1876 177.895 38.1876C177.339 38.1876 176.848 38.3189 176.39 38.5816C175.932 38.8442 175.573 39.1725 175.311 39.6321C175.049 40.0918 174.918 40.5514 174.918 41.1096C174.918 41.6677 175.049 42.1273 175.311 42.587C175.573 43.0138 175.932 43.3749 176.39 43.6376C176.848 43.9002 177.339 44.0315 177.895 44.0315C178.19 44.0315 178.484 43.9659 178.778 43.8674C179.106 43.7689 179.367 43.6047 179.596 43.4077C179.662 43.3749 179.727 43.3421 179.792 43.3421" fill="white"/>
<path d="M189.995 45.2132C189.995 45.2132 189.995 45.3117 189.962 45.3117C189.962 45.3117 189.896 45.3774 189.831 45.3774H188.424C188.424 45.3774 188.228 45.3445 188.163 45.2461L185.153 40.9123H183.943V45.1804C183.943 45.1804 183.943 45.2789 183.91 45.3117C183.877 45.3445 183.812 45.3774 183.746 45.3774H182.503C182.503 45.3774 182.405 45.3774 182.373 45.3117C182.373 45.2789 182.34 45.2461 182.34 45.1804V36.7756C182.34 36.7756 182.34 36.6771 182.373 36.6443C182.405 36.6114 182.438 36.5786 182.503 36.5786H183.746C183.746 36.5786 183.943 36.6443 183.943 36.7756V39.5006H185.022L186.952 36.7428C186.952 36.7428 187.05 36.6114 187.116 36.6114C187.181 36.6114 187.247 36.6114 187.312 36.6114H188.751C188.751 36.6114 188.85 36.6114 188.882 36.6443C188.882 36.6443 188.948 36.7099 188.948 36.7428C188.948 36.8084 188.948 36.8741 188.882 36.9069L186.527 40.1244L189.995 45.0819C189.995 45.0819 190.027 45.1804 190.027 45.2461" fill="white"/>
<path d="M199.056 36.5461C199.056 36.5461 199.121 36.6446 199.121 36.7431V45.2136C199.121 45.2136 199.121 45.3121 199.056 45.3449C199.023 45.3449 198.991 45.3777 198.925 45.3777H197.682C197.682 45.3777 197.584 45.3777 197.551 45.3449C197.519 45.3121 197.486 45.2464 197.486 45.2136V39.9934L191.925 45.3121C191.925 45.3121 191.859 45.3449 191.827 45.4106C191.794 45.4434 191.728 45.4762 191.696 45.5091C191.663 45.5091 191.63 45.5091 191.565 45.5091C191.565 45.5091 191.467 45.5091 191.401 45.4434C191.369 45.3777 191.336 45.3449 191.336 45.2464V36.8088C191.336 36.8088 191.336 36.7103 191.401 36.6775C191.434 36.6775 191.467 36.6118 191.532 36.6118H192.775C192.775 36.6118 192.873 36.6118 192.906 36.6446C192.906 36.6775 192.939 36.7431 192.939 36.776V42.0289L198.565 36.6775C198.565 36.6775 198.598 36.6446 198.664 36.579C198.696 36.5461 198.729 36.5133 198.794 36.4805C198.827 36.4805 198.86 36.4805 198.893 36.4805C198.893 36.4805 198.991 36.4805 199.056 36.5461Z" fill="white"/>
<path d="M208.935 36.5461C208.935 36.5461 209 36.6446 209 36.7431V45.2135C209 45.2135 209 45.312 208.935 45.3449C208.902 45.3777 208.837 45.4105 208.804 45.4105H207.561C207.561 45.4105 207.463 45.4105 207.43 45.3449C207.398 45.2792 207.365 45.2792 207.365 45.2135V39.9934L201.804 45.312C201.804 45.312 201.738 45.3449 201.706 45.4105C201.673 45.4434 201.607 45.4762 201.575 45.509C201.542 45.509 201.509 45.509 201.444 45.509C201.444 45.509 201.346 45.509 201.28 45.4434C201.248 45.3777 201.215 45.312 201.215 45.2464V36.8087C201.215 36.8087 201.215 36.7103 201.28 36.6774C201.313 36.6446 201.346 36.6118 201.411 36.6118H202.654C202.654 36.6118 202.752 36.6118 202.785 36.6446C202.818 36.6774 202.85 36.7103 202.85 36.7759V42.0289L208.477 36.7103C208.477 36.7103 208.51 36.6446 208.575 36.6118C208.608 36.5789 208.673 36.5461 208.706 36.5133C208.739 36.5133 208.771 36.5133 208.804 36.5133C208.804 36.5133 208.935 36.5133 208.968 36.5789M203.995 34.806C203.734 34.5434 203.57 34.2151 203.57 33.7883C203.57 33.6898 203.57 33.6241 203.636 33.5585C203.668 33.4928 203.734 33.46 203.799 33.46H204.192C204.192 33.46 204.323 33.46 204.355 33.5256C204.388 33.5585 204.421 33.657 204.421 33.7226C204.421 33.8868 204.486 34.0509 204.617 34.1494C204.748 34.2479 204.911 34.3136 205.173 34.3136C205.435 34.3136 205.598 34.2807 205.729 34.1494C205.86 34.0509 205.925 33.9196 205.925 33.7226C205.925 33.5256 206.024 33.46 206.187 33.46H206.547C206.547 33.46 206.678 33.46 206.711 33.5585C206.743 33.6241 206.776 33.6898 206.776 33.7883C206.776 34.2151 206.645 34.5762 206.351 34.806C206.089 35.0687 205.664 35.2 205.173 35.2C204.682 35.2 204.257 35.0687 203.963 34.806" fill="white"/>
<path d="M115.288 70.6577C116.007 71.6426 116.4 72.8574 116.4 74.2691C116.4 75.6809 116.04 76.8956 115.288 77.979C114.568 79.0625 113.521 79.8833 112.148 80.4742C110.807 81.0652 109.237 81.3607 107.438 81.3607C105.998 81.3607 104.657 81.098 103.414 80.6055C102.171 80.1131 101.19 79.4236 100.471 78.5372C100.209 78.3074 100.078 78.0447 100.078 77.7821C100.078 77.5522 100.144 77.3881 100.307 77.2239L101.779 75.3526C101.779 75.3526 102.073 75.1556 102.204 75.1556C102.335 75.1556 102.531 75.2212 102.728 75.3526C103.284 76.042 103.97 76.5345 104.854 76.83C105.704 77.1254 106.685 77.2896 107.732 77.2896C108.648 77.2896 109.433 77.1583 110.087 76.8628C110.774 76.5673 111.297 76.1733 111.657 75.648C112.017 75.1227 112.213 74.5318 112.213 73.8423C112.213 73.1529 112.017 72.5619 111.657 72.0366C111.265 71.5113 110.741 71.1173 110.022 70.8218C109.335 70.5264 108.517 70.395 107.568 70.395H105.704C105.475 70.395 105.312 70.3294 105.181 70.198C105.05 70.0667 104.984 69.9026 104.984 69.7056V67.7685C104.984 67.5387 105.05 67.3746 105.148 67.2432C105.279 67.1119 105.41 67.0463 105.606 67.0463H107.47C108.125 67.0463 108.713 66.9478 109.204 66.7836C109.695 66.5866 110.087 66.324 110.349 65.9957C110.61 65.6673 110.741 65.2734 110.741 64.8794C110.741 64.4198 110.61 64.0258 110.349 63.6646C110.087 63.3035 109.727 63.0408 109.237 62.8439C108.779 62.6469 108.19 62.5484 107.568 62.5484C106.849 62.5484 106.162 62.6797 105.508 62.9095C104.821 63.1393 104.298 63.4677 103.938 63.8288C103.774 63.9601 103.611 64.0258 103.414 64.0258C103.251 64.0258 103.12 63.9601 103.055 63.8616L101.485 61.6291C101.485 61.6291 101.354 61.3665 101.354 61.2351C101.354 61.071 101.419 60.9068 101.55 60.7755C102.171 60.1189 103.022 59.5607 104.134 59.1668C105.246 58.74 106.391 58.543 107.568 58.543C109.04 58.543 110.316 58.7728 111.395 59.2653C112.475 59.7577 113.325 60.4472 113.914 61.3665C114.503 62.2529 114.797 63.3035 114.797 64.4854C114.797 65.4047 114.568 66.2255 114.078 66.9478C113.62 67.67 112.965 68.1953 112.148 68.5237C113.423 68.8848 114.437 69.5743 115.19 70.5592" fill="white"/>
<path d="M138.971 80.5399C138.971 80.5399 138.938 80.8025 138.84 80.8682C138.742 80.9339 138.611 80.9667 138.448 80.9667H135.34C135.34 80.9667 135.046 80.901 134.915 80.8026C134.784 80.7041 134.686 80.5727 134.621 80.4086L133.737 78.2745H123.696L122.813 80.4086C122.813 80.4086 122.649 80.7041 122.518 80.8026C122.387 80.901 122.224 80.9667 122.06 80.9667H118.986C118.789 80.9667 118.659 80.9339 118.561 80.8354C118.462 80.7697 118.43 80.6712 118.43 80.5071C118.43 80.4086 118.43 80.3101 118.495 80.2116L127.817 59.2324C127.883 59.0683 128.013 58.937 128.144 58.8056C128.275 58.7071 128.439 58.6743 128.602 58.6743H128.798C128.962 58.6743 129.125 58.7071 129.256 58.8385C129.387 58.937 129.518 59.0683 129.583 59.2653L138.938 80.2444C138.938 80.2444 139.004 80.4742 139.004 80.5399M132.298 74.7616L128.7 65.9957L125.102 74.7616H132.298Z" fill="white"/>
<path d="M154.181 60.0859C155.653 60.841 156.798 61.8588 157.615 63.2048C158.433 64.5181 158.858 66.0283 158.858 67.6699C158.858 69.3114 158.433 70.8217 157.615 72.1349C156.798 73.4482 155.653 74.4659 154.181 75.1882C152.709 75.9105 151.074 76.3045 149.209 76.3045H146.331V80.3427C146.331 80.5397 146.265 80.7039 146.135 80.8024C146.004 80.9337 145.84 80.9665 145.644 80.9665H142.864C142.667 80.9665 142.504 80.9009 142.406 80.8024C142.275 80.671 142.242 80.5397 142.242 80.3427V59.6262C142.242 59.4292 142.308 59.2651 142.438 59.1666C142.569 59.0353 142.7 59.0024 142.896 59.0024H149.209C151.041 59.0024 152.709 59.3636 154.181 60.1187M151.957 72.1021C152.84 71.6753 153.527 71.0843 154.05 70.2964C154.541 69.5084 154.802 68.6548 154.802 67.6699C154.802 66.6849 154.541 65.8313 154.05 65.0434C153.559 64.2883 152.84 63.6645 151.957 63.2377C151.074 62.8109 150.06 62.581 148.948 62.581H146.331V72.7259H148.948C150.06 72.7259 151.074 72.5289 151.957 72.1021Z" fill="white"/>
<path d="M179.135 59.1337C179.135 59.1337 179.331 59.3963 179.331 59.5933V80.3426C179.331 80.5396 179.265 80.6709 179.167 80.8023C179.036 80.9007 178.906 80.9664 178.709 80.9664H175.929C175.733 80.9664 175.569 80.9007 175.471 80.8023C175.34 80.6709 175.308 80.5396 175.308 80.3426V75.8776H170.761C170.205 75.8776 169.714 75.8447 169.289 75.7791L167 80.4411C167 80.4411 166.803 80.7366 166.672 80.8351C166.542 80.9336 166.411 80.9992 166.28 80.9992H163.107C162.944 80.9992 162.813 80.9664 162.715 80.8679C162.617 80.8022 162.584 80.7038 162.584 80.5724C162.584 80.4739 162.584 80.3754 162.682 80.2441L165.626 74.4987C164.448 73.7435 163.565 72.7914 162.911 71.5767C162.257 70.3619 161.93 69.0158 161.93 67.5384C161.93 65.8969 162.322 64.4523 163.074 63.1719C163.827 61.8915 164.873 60.8737 166.215 60.1186C167.556 59.3963 169.06 59.0352 170.761 59.0352H178.709C178.906 59.0352 179.036 59.1008 179.167 59.1993M175.275 72.496V62.5809H170.99C170.041 62.5809 169.191 62.7779 168.439 63.2047C167.686 63.6315 167.065 64.2225 166.607 64.9776C166.182 65.7327 165.953 66.5535 165.953 67.5056C165.953 68.4577 166.182 69.3442 166.607 70.0993C167.032 70.8544 167.621 71.4454 168.406 71.8722C169.158 72.299 170.041 72.496 171.023 72.496H175.308H175.275Z" fill="white"/>
<path d="M205.434 77.5193C205.434 77.5193 205.565 77.7491 205.565 77.8476V84.4466C205.565 84.6436 205.5 84.775 205.402 84.8735C205.303 84.972 205.205 85.0048 205.074 85.0048H202.294C202.131 85.0048 202 84.9391 201.902 84.8406C201.804 84.7421 201.771 84.6108 201.771 84.4466V81.0979H186.005V84.4466C186.005 84.4466 185.94 84.7421 185.874 84.8406C185.776 84.9391 185.645 85.0048 185.482 85.0048H182.702C182.702 85.0048 182.473 84.972 182.374 84.8735C182.276 84.775 182.211 84.6436 182.211 84.4466V77.8476C182.211 77.8476 182.244 77.6178 182.342 77.5193C182.407 77.4208 182.571 77.3551 182.767 77.3551H184.697C185.155 76.5343 185.613 75.4509 186.071 74.1048C186.496 72.7587 186.888 71.3142 187.215 69.7383C187.542 68.1952 187.771 66.685 187.87 65.2732L188.36 59.6591C188.36 59.4949 188.426 59.3636 188.524 59.2651C188.622 59.1666 188.753 59.1338 188.884 59.1338H202.196C202.196 59.1338 202.49 59.1666 202.589 59.2651C202.687 59.3636 202.752 59.4949 202.752 59.6591V77.3551H205.042C205.238 77.3551 205.369 77.4208 205.467 77.5193M198.696 62.7452H192.089L191.893 65.5359C191.795 66.9804 191.631 68.4579 191.337 69.9681C191.042 71.4783 190.715 72.8572 190.323 74.1705C189.93 75.4509 189.505 76.5343 189.08 77.3551H198.729V62.7452H198.696Z" fill="white"/>
</svg>
