<svg width="300" height="76" viewBox="0 0 300 76" fill="none" xmlns="http://www.w3.org/2000/svg">
<path d="M89.1458 43.3701C87.5565 42.6441 86.3464 41.8616 85.5317 41.0145L87.7017 37.11C88.6214 37.8845 89.6056 38.4976 90.6705 38.9574C91.7353 39.4172 92.9292 39.6431 94.2523 39.6431C95.6721 39.6431 96.6966 39.385 97.3259 38.8687C97.9551 38.3524 98.2697 37.7393 98.2697 37.0455C98.2697 36.4405 98.1487 35.9484 97.9067 35.5611C97.6647 35.1739 97.2291 34.8109 96.6079 34.4721C95.9786 34.1332 95.0671 33.7702 93.857 33.383L91.9773 32.8022C89.9041 32.1245 88.2584 31.2371 87.0402 30.1239C85.8221 29.0187 85.209 27.373 85.209 25.2029C85.209 23.5411 85.6123 22.089 86.4191 20.8466C87.2258 19.6043 88.3552 18.6443 89.7992 17.9667C91.2432 17.289 92.9212 16.9502 94.825 16.9502C96.3901 16.9502 97.947 17.2567 99.4959 17.8699C101.037 18.483 102.247 19.2009 103.11 20.0238L100.617 24.0412C99.6976 23.3152 98.786 22.7505 97.8664 22.3391C96.9467 21.9276 95.9141 21.726 94.7524 21.726C93.5182 21.726 92.6227 21.9841 92.058 22.5004C91.4933 23.0167 91.211 23.6379 91.211 24.3639C91.211 24.8237 91.2916 25.211 91.4449 25.5417C91.5982 25.8644 91.937 26.1871 92.4372 26.5017C92.9454 26.8163 93.7037 27.139 94.7202 27.4778L96.6401 28.0909C98.9796 28.8412 100.835 29.8576 102.215 31.1484C103.586 32.4391 104.28 34.2542 104.28 36.5937C104.28 37.9167 103.909 39.1833 103.175 40.3934C102.44 41.6034 101.335 42.5796 99.867 43.3217C98.3988 44.072 96.6079 44.4431 94.5104 44.4431C92.534 44.4431 90.7511 44.0801 89.1538 43.354L89.1458 43.3701Z" fill="#E87722"/>
<path d="M108.596 20.8867C107.983 20.2736 107.677 19.4911 107.677 18.5553C107.677 17.6195 107.991 16.8047 108.621 16.1836C109.25 15.5705 110.032 15.2639 110.976 15.2639C111.92 15.2639 112.695 15.5705 113.308 16.1836C113.921 16.7967 114.227 17.5873 114.227 18.5553C114.227 19.5234 113.921 20.2736 113.308 20.8867C112.695 21.4998 111.912 21.8064 110.976 21.8064C110.04 21.8064 109.218 21.4998 108.604 20.8867H108.596ZM108.145 24.4524H113.751V44.0959H108.145V24.4524Z" fill="#E87722"/>
<path d="M138.531 42.1437C138.531 44.1927 138.039 45.9917 137.063 47.5325C136.087 49.0733 134.699 50.2754 132.9 51.1305C131.101 51.9856 129.02 52.4131 126.656 52.4131C124.898 52.4131 123.268 52.2034 121.776 51.7758C120.283 51.3564 119.001 50.7432 117.944 49.9527L119.138 45.5722C120.203 46.2982 121.332 46.8145 122.542 47.1292C123.744 47.4438 125.075 47.5971 126.519 47.5971C128.375 47.5971 129.875 47.1292 131.021 46.1853C132.166 45.2414 132.787 43.991 132.884 42.426V41.4095C131.529 43.4344 129.504 44.4509 126.81 44.4509C125.075 44.4509 123.494 44.0152 122.066 43.1521C120.638 42.2889 119.517 41.0627 118.686 39.4976C117.855 37.9326 117.436 36.1578 117.436 34.1814C117.436 32.2049 117.847 30.4866 118.662 28.9539C119.485 27.4211 120.606 26.2272 122.026 25.372C123.446 24.5169 125.043 24.0894 126.802 24.0894C128.197 24.0894 129.423 24.3636 130.472 24.9203C131.521 25.4769 132.384 26.2836 133.062 27.3404L134.546 24.4443H138.523V42.1356L138.531 42.1437ZM131.585 38.1666C132.481 37.1743 132.924 35.8835 132.924 34.2943C132.924 32.7051 132.481 31.374 131.585 30.3898C130.69 29.3976 129.52 28.9054 128.076 28.9054C126.632 28.9054 125.462 29.3976 124.567 30.3898C123.671 31.3821 123.228 32.6728 123.228 34.262C123.228 35.8513 123.671 37.1824 124.567 38.1666C125.462 39.1588 126.632 39.6509 128.076 39.6509C129.52 39.6509 130.69 39.1588 131.585 38.1666Z" fill="#E87722"/>
<path d="M158.918 25.0493C160.088 25.6867 160.999 26.5902 161.653 27.7599C162.306 28.9297 162.629 30.2769 162.629 31.7935V44.0959H157.022V32.6244C157.022 31.5192 156.651 30.6157 155.901 29.93C155.151 29.2443 154.166 28.8974 152.932 28.8974C151.698 28.8974 150.673 29.2362 149.931 29.9138C149.181 30.5915 148.81 31.495 148.81 32.6244V44.0959H143.203V24.4524H147.221L148.665 26.9855C149.366 26.0416 150.246 25.3236 151.303 24.8315C152.367 24.3394 153.561 24.0894 154.884 24.0894C156.401 24.0894 157.748 24.412 158.918 25.0493Z" fill="#E87722"/>
<path d="M180.031 41.6354C179.377 42.5551 178.563 43.2489 177.57 43.7329C176.578 44.2169 175.473 44.4589 174.239 44.4589C172.795 44.4589 171.512 44.1363 170.407 43.499C169.293 42.8616 168.438 41.9581 167.817 40.8045C167.204 39.6428 166.897 38.3118 166.897 36.7871V24.4524H172.504V35.9239C172.504 37.0372 172.851 37.9326 173.537 38.6183C174.222 39.304 175.126 39.6509 176.231 39.6509C177.336 39.6509 178.2 39.304 178.893 38.6183C179.579 37.9326 179.926 37.0291 179.926 35.9239V24.4524H185.533V44.0959H181.515L180.031 41.6354Z" fill="#E87722"/>
<path d="M217.51 25.0493C218.712 25.6866 219.656 26.5902 220.334 27.7599C221.011 28.9296 221.35 30.2769 221.35 31.7935V44.0959H215.743V32.6244C215.743 31.495 215.421 30.5834 214.767 29.9138C214.114 29.2362 213.251 28.8974 212.162 28.8974C211.073 28.8974 210.242 29.2362 209.596 29.9138C208.943 30.5915 208.62 31.495 208.62 32.6244V44.0959H203.013V32.6244C203.013 31.5192 202.683 30.6157 202.021 29.93C201.36 29.2443 200.497 28.8974 199.432 28.8974C198.367 28.8974 197.479 29.2362 196.826 29.9138C196.173 30.5915 195.85 31.495 195.85 32.6244V44.0959H190.243V24.4524H194.261L195.705 26.8402C196.382 25.9448 197.205 25.2672 198.181 24.7993C199.157 24.3314 200.238 24.0974 201.416 24.0974C202.667 24.0974 203.788 24.3636 204.78 24.8961C205.772 25.4285 206.555 26.1787 207.128 27.1387C207.83 26.1465 208.717 25.3962 209.79 24.8799C210.863 24.3636 212.049 24.1055 213.356 24.1055C214.921 24.1055 216.308 24.4282 217.518 25.0655L217.51 25.0493Z" fill="#E87722"/>
<path d="M243.437 22.5891C242.219 22.0244 240.888 21.7421 239.436 21.7421C237.75 21.7421 236.274 22.1132 235.007 22.8634C233.741 23.6137 232.756 24.6705 232.055 26.0257C231.353 27.3891 231.006 28.9622 231.006 30.745C231.006 32.5279 231.361 34.0284 232.071 35.3756C232.781 36.7228 233.781 37.7796 235.072 38.5218C236.362 39.272 237.823 39.6431 239.468 39.6431C241.114 39.6431 242.655 39.3043 243.881 38.6266C245.115 37.949 246.164 36.9164 247.027 35.5127L250.899 39.0219C249.601 40.829 247.955 42.1843 245.979 43.0958C244.002 43.9994 241.735 44.4511 239.178 44.4511C236.403 44.4511 233.934 43.8622 231.78 42.6764C229.618 41.4985 227.948 39.8448 226.754 37.7392C225.561 35.6257 224.972 33.2458 224.996 30.5918C224.996 27.9135 225.601 25.5417 226.803 23.4846C228.005 21.4194 229.699 19.8221 231.869 18.6766C234.039 17.531 236.54 16.9583 239.355 16.9583C243.865 16.9583 247.423 18.3942 250.028 21.2661L246.414 24.9528C245.64 23.9363 244.647 23.1538 243.429 22.5811L243.437 22.5891Z" fill="white"/>
<path d="M254.29 20.8867C253.677 20.2736 253.37 19.4911 253.37 18.5553C253.37 17.6195 253.685 16.8047 254.314 16.1836C254.943 15.5705 255.726 15.2639 256.67 15.2639C257.613 15.2639 258.388 15.5705 259.001 16.1836C259.614 16.7967 259.921 17.5873 259.921 18.5553C259.921 19.5234 259.614 20.2736 259.001 20.8867C258.388 21.4998 257.605 21.8064 256.67 21.8064C255.734 21.8064 254.911 21.4998 254.298 20.8867H254.29ZM253.838 24.4524H259.445V44.0959H253.838V24.4524Z" fill="white"/>
<path d="M276.957 38.9974V43.5231C275.537 44.1523 273.843 44.4669 271.891 44.4669C269.938 44.4669 268.535 43.878 267.389 42.6922C266.244 41.5144 265.671 39.9655 265.671 38.0616V29.0506H262.452V24.4523H265.671L269.834 18.7004H271.278V24.4523H276.666V29.0506H271.278V36.9C271.278 37.7228 271.504 38.3843 271.947 38.8925C272.391 39.4008 272.98 39.6509 273.706 39.6509C274.835 39.6509 275.924 39.433 276.965 38.9974H276.957Z" fill="white"/>
<path d="M288.045 50.8802C286.948 51.9047 285.455 52.421 283.576 52.421C282.301 52.421 281.269 52.2274 280.502 51.8402L281.083 47.2822C281.519 47.5 282.035 47.6049 282.64 47.6049C283.318 47.6049 283.866 47.4274 284.286 47.0644C284.705 46.7014 285.149 46.0721 285.609 45.1847L286.367 43.5955L278.114 24.4602H284.229L289.255 37.5613L293.853 24.4602H300L291.102 45.9189C290.159 48.2099 289.142 49.8718 288.045 50.8963V50.8802Z" fill="white"/>
<path d="M62.21 10.6819C70.4627 19.3057 74.0042 29.5349 72.5521 41.4259C72.1729 44.5317 70.374 46.6534 67.4295 47.6618C64.5656 48.646 61.9438 47.9845 59.7737 45.9032C57.9989 44.1929 57.2406 42.039 57.5633 39.5624C58.2571 34.2542 57.2729 29.2848 54.2961 24.8237C50.3271 18.8701 44.7043 15.619 37.5648 15.1915C31.9178 14.8527 26.8516 16.5548 22.5841 20.2657C17.2759 24.8721 14.7912 30.7772 15.1865 37.8118C15.485 43.1765 17.5905 47.807 21.374 51.5824C25.8674 56.0597 31.3612 58.1088 37.71 57.7861C38.6297 57.7377 39.5413 57.5602 40.4609 57.5521C44.5268 57.5118 47.7859 60.545 48.1005 64.6028C48.399 68.467 45.5352 72.0407 41.6145 72.5651C31.7968 73.872 22.7858 71.7342 14.8396 65.7887C5.38493 58.7219 0.399435 49.1623 0.0202788 37.3681C-0.270139 28.3329 2.56143 20.2496 8.34559 13.2715C14.2911 6.0998 21.9226 1.76773 31.1353 0.412449C39.8559 -0.870229 48.0279 0.848078 55.5707 5.43829C57.9909 6.91458 60.2013 8.66516 62.2181 10.6819H62.21Z" fill="#E87722"/>
<path d="M73.014 62.1586C75.9988 65.1515 75.9988 69.9434 73.014 72.904C70.0372 75.8566 65.2614 75.8566 62.3169 72.8959C59.3482 69.9111 59.324 65.1273 62.2766 62.1989C65.2937 59.1979 70.0452 59.1818 73.022 62.1586H73.014Z" fill="#E87722"/>
<path d="M91.0016 64.7234C91.7276 65.1187 92.3085 65.6592 92.728 66.3449C93.1555 67.0306 93.3653 67.7809 93.3653 68.6037C93.3653 69.4266 93.1555 70.1768 92.728 70.8545C92.3085 71.5402 91.7276 72.0726 91.0016 72.4679C90.2755 72.8632 89.4769 73.0568 88.5976 73.0568C88.1135 73.0568 87.6215 72.9761 87.1132 72.8067C86.605 72.6373 86.1694 72.4195 85.8063 72.1371C85.7176 72.0726 85.6773 72 85.6773 71.9274C85.6773 71.8951 85.6853 71.8709 85.7015 71.8548L86.2258 71.0965C86.2662 71.0481 86.3146 71.0239 86.3791 71.0239C86.4436 71.0239 86.5082 71.0481 86.5647 71.0965C86.847 71.3224 87.1697 71.4998 87.5327 71.6208C87.8957 71.7419 88.2507 71.8064 88.5976 71.8064C89.0897 71.8064 89.5576 71.7177 89.9932 71.5402C90.4288 71.3627 90.808 71.1126 91.1307 70.7899C91.4534 70.4672 91.6873 70.1042 91.8406 69.6847H88.2265C88.1378 69.6847 88.0732 69.6686 88.0248 69.6283C87.9764 69.5879 87.9522 69.5395 87.9522 69.475V68.7167C87.9522 68.6441 87.9764 68.5876 88.0248 68.5473C88.0732 68.5069 88.1378 68.4827 88.2265 68.4827H92.0423C92.0181 67.91 91.8567 67.3856 91.5421 66.9177C91.2275 66.4498 90.816 66.0706 90.2997 65.7964C89.7835 65.5221 89.2187 65.3849 88.5976 65.3849C88.2346 65.3849 87.8715 65.4495 87.5166 65.5705C87.1616 65.6915 86.8389 65.869 86.5566 66.1029C86.4921 66.1513 86.4275 66.1755 86.371 66.1755C86.3146 66.1755 86.2581 66.1513 86.2178 66.1029L85.6934 65.3527C85.6934 65.3527 85.6611 65.2881 85.6611 65.2478C85.6611 65.1752 85.7015 65.1187 85.7741 65.0623C86.1452 64.7718 86.5889 64.5379 87.1052 64.3765C87.6134 64.2071 88.1135 64.1265 88.5976 64.1265C89.4688 64.1265 90.2675 64.3281 91.0016 64.7234Z" fill="white"/>
<path d="M100.495 72.8231C100.495 72.8876 100.447 72.9199 100.358 72.928H99.3174C99.2286 72.9441 99.156 72.9118 99.0915 72.8231L96.9376 70.2013H96.026V72.7908C96.026 72.8876 95.9695 72.936 95.8646 72.936H94.9934C94.8804 72.936 94.832 72.8876 94.832 72.7908V67.2971C94.832 67.1922 94.8885 67.1438 94.9934 67.1438H95.8646C95.9211 67.1438 95.9534 67.1599 95.9856 67.1841C96.0179 67.2083 96.026 67.2487 96.026 67.2971V69.2332H96.9456L98.2848 67.3213C98.309 67.2648 98.3493 67.2245 98.3977 67.2003C98.4461 67.1761 98.4945 67.1599 98.5429 67.1599C98.5671 67.1599 98.5913 67.1599 98.5994 67.1599H99.5675C99.6562 67.168 99.6965 67.2083 99.6965 67.2648C99.6965 67.2971 99.6804 67.3374 99.6481 67.3858L97.9621 69.7495L100.447 72.694C100.487 72.7343 100.503 72.7747 100.503 72.8231H100.495Z" fill="white"/>
<path d="M101.537 68.5154C101.819 68.0556 102.215 67.6925 102.699 67.4263C103.183 67.1601 103.731 67.0229 104.32 67.0229C104.909 67.0229 105.45 67.1601 105.934 67.4263C106.418 67.6925 106.805 68.0556 107.087 68.5154C107.369 68.9752 107.515 69.4834 107.515 70.0401C107.515 70.5967 107.369 71.0969 107.087 71.5648C106.805 72.0327 106.418 72.3876 105.934 72.6619C105.441 72.9281 104.909 73.0653 104.32 73.0653C103.731 73.0653 103.191 72.9281 102.699 72.6619C102.207 72.3957 101.819 72.0246 101.537 71.5648C101.255 71.1049 101.109 70.5967 101.109 70.0401C101.109 69.4834 101.255 68.9752 101.537 68.5154ZM102.586 71.0243C102.763 71.3228 103.005 71.5486 103.304 71.7261C103.61 71.8955 103.949 71.9842 104.32 71.9842C104.691 71.9842 105.03 71.8955 105.337 71.7261C105.643 71.5567 105.877 71.3228 106.055 71.0243C106.232 70.7258 106.313 70.4031 106.313 70.0401C106.313 69.677 106.224 69.3544 106.055 69.0639C105.877 68.7735 105.643 68.5396 105.337 68.3702C105.03 68.2008 104.691 68.112 104.32 68.112C103.949 68.112 103.61 68.2008 103.304 68.3702C102.997 68.5396 102.763 68.7735 102.586 69.0639C102.408 69.3544 102.319 69.6851 102.319 70.0401C102.319 70.395 102.408 70.7258 102.586 71.0243Z" fill="white"/>
<path d="M108.202 67.3293C108.202 67.2729 108.218 67.2325 108.251 67.2003C108.283 67.168 108.331 67.1519 108.396 67.1519H112.946C113.002 67.1519 113.042 67.168 113.083 67.2003C113.115 67.2325 113.131 67.2729 113.131 67.3293V67.9505C113.131 68.007 113.115 68.0473 113.083 68.0796C113.051 68.1118 113.002 68.128 112.946 68.128H111.268V72.7747C111.268 72.8311 111.252 72.8715 111.219 72.9037C111.187 72.936 111.139 72.9521 111.082 72.9521H110.251C110.195 72.9521 110.154 72.936 110.122 72.9037C110.09 72.8715 110.074 72.8311 110.074 72.7747V68.128H108.404C108.347 68.128 108.299 68.1118 108.267 68.0796C108.234 68.0473 108.21 67.9989 108.21 67.9424V67.3213L108.202 67.3293Z" fill="white"/>
<path d="M119.09 67.4182C119.542 67.6845 119.897 68.0475 120.155 68.5073C120.413 68.9671 120.542 69.4834 120.542 70.0562C120.542 70.629 120.413 71.1291 120.155 71.589C119.897 72.0488 119.542 72.4118 119.09 72.67C118.638 72.9281 118.138 73.0653 117.581 73.0653C117.13 73.0653 116.718 72.9765 116.347 72.791C115.968 72.6135 115.653 72.3553 115.403 72.0246V75.0256C115.403 75.082 115.395 75.1224 115.363 75.1466C115.339 75.1789 115.298 75.1869 115.25 75.1869H114.379C114.33 75.1869 114.282 75.1708 114.25 75.1466C114.217 75.1224 114.201 75.074 114.201 75.0256V67.2972C114.201 67.2488 114.217 67.2085 114.25 67.1762C114.282 67.144 114.322 67.1359 114.371 67.1359H114.879C114.968 67.1359 115.024 67.1762 115.056 67.2488L115.282 68.233C115.532 67.8458 115.863 67.5473 116.258 67.3376C116.654 67.1278 117.097 67.0229 117.589 67.0229C118.138 67.0229 118.646 67.152 119.09 67.4182ZM118.356 71.6938C118.654 71.5244 118.896 71.2985 119.074 71.0081C119.251 70.7177 119.34 70.4031 119.34 70.0562C119.34 69.7093 119.251 69.3786 119.074 69.0881C118.896 68.7977 118.662 68.5638 118.356 68.4024C118.049 68.2411 117.727 68.1523 117.38 68.1523C117.033 68.1523 116.678 68.233 116.371 68.4024C116.065 68.5718 115.823 68.7977 115.637 69.0881C115.46 69.3786 115.363 69.7012 115.363 70.0562C115.363 70.4112 115.452 70.7177 115.637 71.0081C115.815 71.2985 116.057 71.5244 116.363 71.6938C116.67 71.8632 117.009 71.9439 117.372 71.9439C117.735 71.9439 118.049 71.8632 118.356 71.6938Z" fill="white"/>
<path d="M127.756 67.1924C127.756 67.1924 127.805 67.265 127.805 67.3134V72.791C127.805 72.8394 127.788 72.8797 127.756 72.912C127.724 72.9442 127.684 72.9604 127.635 72.9604H127.127C127.046 72.9604 126.99 72.92 126.95 72.8394L126.732 71.8874C126.474 72.2585 126.151 72.549 125.756 72.7587C125.36 72.9684 124.925 73.0653 124.449 73.0653C123.9 73.0653 123.392 72.9362 122.948 72.67C122.496 72.4037 122.141 72.0488 121.883 71.589C121.625 71.1291 121.496 70.6209 121.496 70.0562C121.496 69.4915 121.625 68.9671 121.883 68.5073C122.141 68.0475 122.496 67.6845 122.948 67.4182C123.4 67.152 123.9 67.0229 124.449 67.0229C124.933 67.0229 125.368 67.1278 125.764 67.3376C126.159 67.5473 126.49 67.8377 126.74 68.2088L126.958 67.273C126.99 67.1924 127.046 67.152 127.135 67.152H127.643C127.692 67.152 127.74 67.1682 127.764 67.2004L127.756 67.1924ZM125.667 71.6858C125.973 71.5164 126.215 71.2905 126.393 71.0001C126.57 70.7096 126.659 70.395 126.659 70.0481C126.659 69.7012 126.57 69.3786 126.393 69.0881C126.215 68.7977 125.965 68.5638 125.667 68.4024C125.36 68.233 125.021 68.1523 124.658 68.1523C124.295 68.1523 123.973 68.233 123.674 68.4024C123.376 68.5718 123.134 68.7977 122.964 69.0881C122.787 69.3786 122.698 69.7012 122.698 70.0481C122.698 70.395 122.787 70.7096 122.964 71.0001C123.142 71.2905 123.384 71.5164 123.682 71.6858C123.981 71.8552 124.312 71.9358 124.666 71.9358C125.021 71.9358 125.368 71.8552 125.667 71.6858Z" fill="white"/>
<path d="M134.999 67.1841C134.999 67.1841 135.039 67.2487 135.039 67.289V72.7908C135.039 72.8392 135.023 72.8715 134.999 72.8957C134.975 72.9199 134.935 72.936 134.894 72.936H133.991C133.95 72.936 133.91 72.9199 133.878 72.8957C133.854 72.8634 133.837 72.8311 133.837 72.7908V71.0886H130.732V72.7908C130.732 72.8311 130.715 72.8715 130.691 72.8957C130.667 72.9199 130.627 72.936 130.586 72.936H129.683C129.643 72.936 129.602 72.9199 129.57 72.8957C129.538 72.8715 129.521 72.8311 129.521 72.7908V67.289C129.521 67.2406 129.538 67.2083 129.562 67.1841C129.586 67.1599 129.626 67.1438 129.667 67.1438H130.57C130.57 67.1438 130.643 67.1599 130.675 67.1841C130.707 67.2164 130.715 67.2487 130.715 67.289V70.1851H133.821V67.289C133.821 67.2487 133.837 67.2083 133.862 67.1841C133.894 67.1599 133.926 67.1438 133.975 67.1438H134.878C134.918 67.1438 134.959 67.1599 134.983 67.1841H134.999Z" fill="white"/>
<path d="M137.961 72.6538C137.469 72.3795 137.09 72.0165 136.8 71.5486C136.517 71.0888 136.372 70.5806 136.372 70.0401C136.372 69.4996 136.517 68.9833 136.8 68.5234C137.082 68.0636 137.469 67.7006 137.953 67.4263C138.437 67.1601 138.97 67.0229 139.542 67.0229C139.93 67.0229 140.317 67.0955 140.704 67.2327C141.091 67.3779 141.414 67.5554 141.68 67.7732C141.721 67.8055 141.737 67.8458 141.737 67.9023C141.737 67.9507 141.729 67.9829 141.704 68.0071L141.269 68.6444C141.229 68.6928 141.188 68.7171 141.132 68.7171C141.091 68.7171 141.051 68.7009 141.019 68.6767C140.583 68.3218 140.099 68.1443 139.559 68.1443C139.204 68.1443 138.873 68.225 138.574 68.3944C138.276 68.5638 138.042 68.7897 137.864 69.0801C137.687 69.3705 137.606 69.6851 137.606 70.032C137.606 70.3789 137.695 70.7016 137.864 70.992C138.042 71.2824 138.276 71.5164 138.582 71.6858C138.881 71.8552 139.212 71.9439 139.567 71.9439C139.849 71.9439 140.107 71.8955 140.357 71.8068C140.599 71.71 140.825 71.589 141.011 71.4276C141.043 71.4034 141.075 71.3953 141.124 71.3953C141.18 71.3953 141.22 71.4196 141.253 71.4599L141.704 72.073C141.704 72.073 141.737 72.1295 141.737 72.1698C141.737 72.2263 141.713 72.2747 141.664 72.315C141.39 72.549 141.059 72.7345 140.672 72.8716C140.285 73.0088 139.914 73.0814 139.551 73.0814C138.97 73.0814 138.437 72.9442 137.945 72.67L137.961 72.6538Z" fill="white"/>
<path d="M148.417 67.2971V72.7989C148.417 72.8473 148.401 72.8795 148.377 72.9037C148.352 72.9279 148.312 72.9441 148.264 72.9441H147.368C147.328 72.9441 147.287 72.9279 147.255 72.9037C147.231 72.8795 147.215 72.8392 147.215 72.7989V68.128H144.278V72.8069C144.278 72.8473 144.262 72.8795 144.238 72.9118C144.214 72.9441 144.174 72.9521 144.133 72.9521H143.23C143.189 72.9521 143.149 72.936 143.117 72.9118C143.084 72.8876 143.068 72.8473 143.068 72.8069V67.2971C143.068 67.2487 143.084 67.2164 143.109 67.1922C143.133 67.168 143.173 67.1519 143.222 67.1519H148.256C148.352 67.1519 148.409 67.2003 148.409 67.2971H148.417Z" fill="white"/>
<path d="M150.181 68.5154C150.464 68.0556 150.859 67.6925 151.343 67.4263C151.827 67.1601 152.376 67.0229 152.965 67.0229C153.554 67.0229 154.094 67.1601 154.578 67.4263C155.062 67.6925 155.449 68.0556 155.732 68.5154C156.014 68.9752 156.159 69.4834 156.159 70.0401C156.159 70.5967 156.014 71.0969 155.732 71.5648C155.449 72.0327 155.062 72.3876 154.578 72.6619C154.086 72.9281 153.554 73.0653 152.965 73.0653C152.376 73.0653 151.835 72.9281 151.343 72.6619C150.851 72.3957 150.464 72.0246 150.181 71.5648C149.899 71.1049 149.754 70.5967 149.754 70.0401C149.754 69.4834 149.899 68.9752 150.181 68.5154ZM151.23 71.0243C151.408 71.3228 151.65 71.5486 151.948 71.7261C152.255 71.8955 152.594 71.9842 152.965 71.9842C153.336 71.9842 153.675 71.8955 153.981 71.7261C154.288 71.5567 154.522 71.3228 154.699 71.0243C154.877 70.7258 154.957 70.4031 154.957 70.0401C154.957 69.677 154.868 69.3544 154.699 69.0639C154.522 68.7735 154.288 68.5396 153.981 68.3702C153.675 68.2008 153.336 68.112 152.965 68.112C152.594 68.112 152.255 68.2008 151.948 68.3702C151.642 68.5396 151.408 68.7735 151.23 69.0639C151.053 69.3544 150.964 69.6851 150.964 70.0401C150.964 70.395 151.053 70.7258 151.23 71.0243Z" fill="white"/>
<path d="M162.389 67.4182C162.84 67.6845 163.195 68.0475 163.454 68.5073C163.712 68.9671 163.841 69.4834 163.841 70.0562C163.841 70.629 163.712 71.1291 163.454 71.589C163.195 72.0488 162.84 72.4118 162.389 72.67C161.937 72.9281 161.437 73.0653 160.88 73.0653C160.428 73.0653 160.017 72.9765 159.646 72.791C159.267 72.6135 158.952 72.3553 158.702 72.0246V75.0256C158.702 75.082 158.694 75.1224 158.662 75.1466C158.637 75.1789 158.597 75.1869 158.549 75.1869H157.677C157.629 75.1869 157.581 75.1708 157.548 75.1466C157.516 75.1224 157.5 75.074 157.5 75.0256V67.2972C157.5 67.2488 157.516 67.2085 157.548 67.1762C157.581 67.144 157.621 67.1359 157.669 67.1359H158.178C158.266 67.1359 158.323 67.1762 158.355 67.2488L158.581 68.233C158.831 67.8458 159.162 67.5473 159.557 67.3376C159.952 67.1278 160.396 67.0229 160.888 67.0229C161.437 67.0229 161.945 67.152 162.389 67.4182ZM161.655 71.6938C161.953 71.5244 162.195 71.2985 162.373 71.0081C162.55 70.7177 162.639 70.4031 162.639 70.0562C162.639 69.7093 162.55 69.3786 162.373 69.0881C162.195 68.7977 161.961 68.5638 161.655 68.4024C161.348 68.2411 161.025 68.1523 160.678 68.1523C160.332 68.1523 159.977 68.233 159.67 68.4024C159.364 68.5718 159.121 68.7977 158.936 69.0881C158.758 69.3786 158.662 69.7012 158.662 70.0562C158.662 70.4112 158.75 70.7177 158.936 71.0081C159.113 71.2985 159.355 71.5244 159.662 71.6938C159.969 71.8632 160.307 71.9439 160.67 71.9439C161.033 71.9439 161.348 71.8632 161.655 71.6938Z" fill="white"/>
<path d="M164.526 67.3293C164.526 67.2729 164.542 67.2325 164.575 67.2003C164.607 67.168 164.655 67.1519 164.72 67.1519H169.27C169.326 67.1519 169.367 67.168 169.407 67.2003C169.439 67.2325 169.455 67.2729 169.455 67.3293V67.9505C169.455 68.007 169.439 68.0473 169.407 68.0796C169.375 68.1118 169.326 68.128 169.27 68.128H167.592V72.7747C167.592 72.8311 167.576 72.8715 167.543 72.9037C167.511 72.936 167.463 72.9521 167.406 72.9521H166.575C166.519 72.9521 166.479 72.936 166.446 72.9037C166.414 72.8715 166.398 72.8311 166.398 72.7747V68.128H164.728C164.672 68.128 164.623 68.1118 164.591 68.0796C164.559 68.0473 164.534 67.9989 164.534 67.9424V67.3213L164.526 67.3293Z" fill="white"/>
<path d="M170.866 73.0004C170.745 72.9278 170.648 72.839 170.576 72.7261C170.503 72.6131 170.463 72.4841 170.463 72.3469C170.463 72.2098 170.503 72.0807 170.576 71.9678C170.648 71.8548 170.745 71.758 170.866 71.6935C170.987 71.6289 171.124 71.5967 171.262 71.5967C171.399 71.5967 171.536 71.629 171.649 71.7016C171.762 71.7742 171.867 71.8629 171.931 71.9758C171.996 72.0888 172.036 72.2179 172.036 72.355C172.036 72.4921 172.004 72.6131 171.931 72.7261C171.859 72.839 171.77 72.9358 171.649 73.0004C171.528 73.0649 171.399 73.1052 171.262 73.1052C171.124 73.1052 170.987 73.073 170.866 73.0004Z" fill="white"/>
<path d="M186.064 71.871C186.064 71.871 186.112 71.9516 186.112 71.992V74.3395C186.112 74.4041 186.096 74.4525 186.056 74.4847C186.023 74.517 185.983 74.5331 185.943 74.5331H185.063C185.007 74.5331 184.959 74.517 184.918 74.4767C184.878 74.4363 184.87 74.396 184.87 74.3395V72.9762H177.9V74.3395C177.9 74.396 177.884 74.4363 177.851 74.4767C177.819 74.517 177.771 74.5331 177.706 74.5331H176.819C176.819 74.5331 176.738 74.517 176.706 74.4847C176.666 74.4525 176.649 74.4041 176.649 74.3395V71.992C176.649 71.9436 176.666 71.9032 176.698 71.871C176.73 71.8306 176.778 71.8145 176.851 71.8145H177.609C177.811 71.4918 178.005 71.0562 178.19 70.4915C178.376 69.9348 178.545 69.3137 178.682 68.636C178.819 67.9584 178.924 67.2969 178.981 66.6515L179.182 64.4815C179.182 64.4169 179.207 64.3766 179.239 64.3443C179.271 64.312 179.32 64.2959 179.368 64.2959H184.797C184.854 64.2959 184.902 64.312 184.942 64.3443C184.975 64.3766 184.999 64.425 184.999 64.4815V71.8226H185.927C185.991 71.8226 186.04 71.8387 186.072 71.879L186.064 71.871ZM183.668 65.4253H180.401L180.296 66.7402C180.247 67.3937 180.159 68.0471 180.038 68.7086C179.909 69.3701 179.763 69.9671 179.594 70.5076C179.425 71.0481 179.239 71.4837 179.053 71.8145H183.676V65.4253H183.668Z" fill="white"/>
<path d="M191.807 70.2093C192.017 70.4675 192.122 70.774 192.122 71.129C192.122 71.4839 192.033 71.7985 191.848 72.0728C191.67 72.3471 191.412 72.5569 191.089 72.7101C190.767 72.8634 190.395 72.936 189.976 72.936H187.419C187.378 72.936 187.338 72.9279 187.314 72.9037C187.29 72.8795 187.273 72.8473 187.273 72.8069V67.2809C187.273 67.2406 187.29 67.2083 187.314 67.1841C187.338 67.1599 187.37 67.1519 187.419 67.1519H189.798C190.153 67.1519 190.468 67.2164 190.758 67.3455C191.049 67.4745 191.275 67.644 191.436 67.8698C191.597 68.0957 191.686 68.3377 191.686 68.6039C191.686 68.854 191.622 69.0718 191.484 69.2654C191.355 69.4591 191.178 69.6043 190.952 69.693C191.299 69.7817 191.581 69.9592 191.791 70.2174L191.807 70.2093ZM188.467 68.1683V69.3703H189.863C190.073 69.3703 190.25 69.3139 190.387 69.1928C190.525 69.0799 190.589 68.9347 190.589 68.7572C190.589 68.5797 190.525 68.4426 190.387 68.3297C190.25 68.2167 190.081 68.1683 189.871 68.1683H188.459H188.467ZM190.686 71.7501C190.863 71.5969 190.952 71.3952 190.952 71.1532C190.952 70.9111 190.863 70.6933 190.678 70.532C190.5 70.3707 190.266 70.29 189.992 70.29H188.467V71.976H190.008C190.282 71.976 190.5 71.8953 190.678 71.7421L190.686 71.7501Z" fill="white"/>
<path d="M198.882 67.2079V72.7985C198.882 72.8469 198.866 72.8792 198.842 72.9034C198.818 72.9276 198.777 72.9437 198.737 72.9437H197.833C197.793 72.9437 197.753 72.9276 197.729 72.9034C197.704 72.8792 197.688 72.8388 197.688 72.7985V69.2973L193.848 72.8711C193.711 72.9679 193.606 73.0163 193.55 73.0163H193.501C193.461 73.0163 193.421 73.0002 193.397 72.976C193.372 72.9518 193.364 72.9114 193.364 72.863V67.2886C193.364 67.2402 193.38 67.2079 193.405 67.1837C193.429 67.1595 193.469 67.1434 193.509 67.1434H194.413C194.453 67.1434 194.494 67.1595 194.518 67.1837C194.542 67.2079 194.558 67.2483 194.558 67.2886V70.7817L198.455 67.1918C198.511 67.1515 198.559 67.1192 198.592 67.1031C198.624 67.0869 198.664 67.0708 198.705 67.0708H198.745C198.834 67.0708 198.882 67.1111 198.882 67.1999V67.2079Z" fill="white"/>
<path d="M210.362 72.8228C210.362 72.8874 210.322 72.9197 210.233 72.9277H209.193C209.193 72.9277 209.12 72.9277 209.08 72.9116C209.039 72.8955 209.007 72.8632 208.967 72.8148L206.813 70.193H205.901V72.7825C205.901 72.8793 205.845 72.9277 205.732 72.9277H204.853C204.748 72.9277 204.699 72.8793 204.699 72.7825V70.193H203.739L201.585 72.8148C201.521 72.9035 201.448 72.9439 201.359 72.9196H200.319C200.23 72.9116 200.182 72.8713 200.182 72.8148C200.182 72.7744 200.206 72.7341 200.246 72.6857L202.731 69.7412L201.045 67.3775C201.013 67.3291 200.996 67.2888 200.996 67.2565C200.996 67.2 201.037 67.1678 201.126 67.1516H202.094C202.094 67.1516 202.126 67.1516 202.15 67.1516C202.198 67.1516 202.247 67.1678 202.295 67.192C202.344 67.2162 202.376 67.2565 202.408 67.313L203.747 69.2249H204.715V67.2888C204.715 67.1839 204.764 67.1355 204.869 67.1355H205.748C205.796 67.1355 205.845 67.1516 205.869 67.1758C205.901 67.2 205.917 67.2404 205.917 67.2888V69.2249H206.829L208.168 67.313C208.233 67.2081 208.321 67.1516 208.426 67.1516C208.45 67.1516 208.475 67.1516 208.483 67.1516H209.451C209.531 67.1597 209.58 67.2 209.58 67.2565C209.58 67.2888 209.564 67.3291 209.531 67.3775L207.845 69.7412L210.33 72.6857C210.37 72.7341 210.387 72.7744 210.387 72.8148L210.362 72.8228Z" fill="white"/>
<path d="M215.616 67.394C216.075 67.6361 216.43 67.9749 216.689 68.3944C216.947 68.8219 217.084 69.2898 217.084 69.8142C217.084 69.9352 217.06 70.0562 217.003 70.1691C216.947 70.2821 216.874 70.3789 216.785 70.4515C216.689 70.5241 216.584 70.5644 216.471 70.5644H212.244C212.3 70.8306 212.429 71.0727 212.615 71.2824C212.8 71.4922 213.034 71.6616 213.316 71.7906C213.599 71.9117 213.897 71.9762 214.22 71.9762C214.454 71.9762 214.696 71.9278 214.962 71.839C215.22 71.7422 215.454 71.6212 215.656 71.4679C215.688 71.4437 215.721 71.4357 215.769 71.4357C215.825 71.4357 215.874 71.4599 215.914 71.5002L216.382 72.0811C216.382 72.0811 216.422 72.1537 216.422 72.1859C216.422 72.2424 216.398 72.2827 216.358 72.3231C216.092 72.5409 215.761 72.7264 215.357 72.8636C214.954 73.0007 214.567 73.0733 214.196 73.0733C213.607 73.0733 213.066 72.9362 212.582 72.67C212.09 72.4037 211.703 72.0327 211.421 71.5728C211.138 71.113 210.993 70.6048 210.993 70.0562C210.993 69.5076 211.13 68.9913 211.405 68.5234C211.679 68.0636 212.058 67.6925 212.534 67.4263C213.01 67.1601 213.534 67.0229 214.107 67.0229C214.68 67.0229 215.18 67.144 215.632 67.386L215.616 67.394ZM213.236 68.2895C212.986 68.4105 212.768 68.5799 212.59 68.7977C212.413 69.0155 212.3 69.2576 212.235 69.5318H215.898C215.85 69.2495 215.737 69.0075 215.567 68.7897C215.398 68.5718 215.18 68.4024 214.922 68.2895C214.664 68.1685 214.373 68.112 214.059 68.112C213.76 68.112 213.486 68.1766 213.236 68.2976V68.2895Z" fill="white"/>
<path d="M223.883 67.1841C223.883 67.1841 223.923 67.2487 223.923 67.289V72.7908C223.923 72.8392 223.907 72.8715 223.883 72.8957C223.859 72.9199 223.818 72.936 223.778 72.936H222.874C222.834 72.936 222.794 72.9199 222.762 72.8957C222.737 72.8634 222.721 72.8311 222.721 72.7908V71.0886H219.615V72.7908C219.615 72.8311 219.599 72.8715 219.575 72.8957C219.551 72.9199 219.51 72.936 219.47 72.936H218.567C218.526 72.936 218.486 72.9199 218.454 72.8957C218.421 72.8715 218.405 72.8311 218.405 72.7908V67.289C218.405 67.2406 218.421 67.2083 218.446 67.1841C218.47 67.1599 218.51 67.1438 218.551 67.1438H219.454C219.454 67.1438 219.527 67.1599 219.559 67.1841C219.591 67.2164 219.599 67.2487 219.599 67.289V70.1851H222.705V67.289C222.705 67.2487 222.721 67.2083 222.745 67.1841C222.778 67.1599 222.81 67.1438 222.858 67.1438H223.762C223.802 67.1438 223.843 67.1599 223.867 67.1841H223.883Z" fill="white"/>
<path d="M231.185 67.2079V72.7985C231.185 72.8469 231.169 72.8792 231.145 72.9034C231.12 72.9276 231.08 72.9437 231.04 72.9437H230.136C230.096 72.9437 230.056 72.9276 230.031 72.9034C230.007 72.8792 229.991 72.8388 229.991 72.7985V69.2973L226.151 72.8711C226.014 72.9679 225.909 73.0163 225.853 73.0163H225.804C225.764 73.0163 225.723 73.0002 225.699 72.976C225.675 72.9518 225.667 72.9114 225.667 72.863V67.2886C225.667 67.2402 225.683 67.2079 225.707 67.1837C225.732 67.1595 225.772 67.1434 225.812 67.1434H226.716C226.756 67.1434 226.796 67.1595 226.821 67.1837C226.845 67.2079 226.861 67.2483 226.861 67.2886V70.7817L230.757 67.1918C230.814 67.1515 230.862 67.1192 230.895 67.1031C230.927 67.0869 230.967 67.0708 231.007 67.0708H231.048C231.137 67.0708 231.185 67.1111 231.185 67.1999V67.2079Z" fill="white"/>
<path d="M237.155 67.394C237.615 67.6361 237.969 67.9749 238.228 68.3944C238.486 68.8219 238.623 69.2898 238.623 69.8142C238.623 69.9352 238.599 70.0562 238.542 70.1691C238.486 70.2821 238.413 70.3789 238.324 70.4515C238.228 70.5241 238.123 70.5644 238.01 70.5644H233.783C233.839 70.8306 233.968 71.0727 234.154 71.2824C234.339 71.4922 234.573 71.6616 234.856 71.7906C235.138 71.9117 235.436 71.9762 235.759 71.9762C235.993 71.9762 236.235 71.9278 236.501 71.839C236.759 71.7422 236.993 71.6212 237.195 71.4679C237.227 71.4437 237.26 71.4357 237.308 71.4357C237.364 71.4357 237.413 71.4599 237.453 71.5002L237.921 72.0811C237.921 72.0811 237.961 72.1537 237.961 72.1859C237.961 72.2424 237.937 72.2827 237.897 72.3231C237.631 72.5409 237.3 72.7264 236.897 72.8636C236.493 73.0007 236.106 73.0733 235.735 73.0733C235.146 73.0733 234.605 72.9362 234.121 72.67C233.629 72.4037 233.242 72.0327 232.96 71.5728C232.677 71.113 232.532 70.6048 232.532 70.0562C232.532 69.5076 232.669 68.9913 232.944 68.5234C233.218 68.0636 233.597 67.6925 234.073 67.4263C234.549 67.1601 235.073 67.0229 235.646 67.0229C236.219 67.0229 236.719 67.144 237.171 67.386L237.155 67.394ZM234.775 68.2895C234.525 68.4105 234.307 68.5799 234.13 68.7977C233.952 69.0155 233.839 69.2576 233.775 69.5318H237.437C237.389 69.2495 237.276 69.0075 237.106 68.7897C236.937 68.5718 236.719 68.4024 236.461 68.2895C236.203 68.1685 235.912 68.112 235.598 68.112C235.299 68.112 235.025 68.1766 234.775 68.2976V68.2895Z" fill="white"/>
<path d="M248.353 67.4261C248.813 67.6923 249.176 68.0634 249.45 68.5233C249.724 68.9831 249.861 69.4913 249.861 70.0479C249.861 70.6046 249.716 71.1047 249.434 71.5726C249.151 72.0405 248.764 72.3955 248.28 72.6617C247.788 72.9279 247.256 73.0651 246.667 73.0651C246.078 73.0651 245.537 72.9279 245.045 72.6617C244.553 72.3955 244.166 72.0325 243.875 71.5726C243.585 71.1128 243.448 70.6046 243.448 70.0479V69.9915L243.408 68.1602C243.391 67.4423 243.529 66.813 243.795 66.2806C244.061 65.7482 244.456 65.3287 244.956 65.0382C245.457 64.7478 246.037 64.6026 246.707 64.6026C246.82 64.6026 246.893 64.6026 246.949 64.6026C247.014 64.6026 247.11 64.6026 247.231 64.6026C247.578 64.6026 247.869 64.5784 248.119 64.53C248.369 64.4816 248.554 64.4251 248.675 64.3606C248.692 64.3606 248.716 64.3606 248.74 64.3606C248.829 64.3606 248.885 64.4009 248.909 64.4897L248.998 65.0705C248.998 65.0705 248.998 65.0947 248.998 65.1189C248.998 65.1915 248.958 65.248 248.869 65.2883C248.522 65.4819 248.038 65.5787 247.409 65.5787C247.264 65.5787 247.151 65.5787 247.078 65.5787C246.287 65.5545 245.682 65.7401 245.263 66.1515C244.843 66.5549 244.642 67.1438 244.642 67.9182C244.642 68.0312 244.642 68.1199 244.642 68.1764V68.257C244.852 67.9021 245.15 67.6036 245.529 67.3777C245.908 67.1518 246.36 67.0308 246.876 67.0308C247.393 67.0308 247.893 67.168 248.353 67.4342V67.4261ZM247.659 71.7017C247.957 71.5323 248.199 71.2984 248.377 71.0079C248.554 70.7175 248.643 70.3948 248.643 70.0479C248.643 69.7011 248.554 69.3784 248.377 69.088C248.199 68.7975 247.957 68.5636 247.659 68.3942C247.36 68.2248 247.022 68.136 246.659 68.136C246.296 68.136 245.957 68.2248 245.65 68.3942C245.344 68.5636 245.102 68.7975 244.924 69.088C244.747 69.3784 244.658 69.7011 244.658 70.0479C244.658 70.3948 244.747 70.7175 244.924 71.0079C245.102 71.2984 245.344 71.5323 245.65 71.7017C245.957 71.8711 246.296 71.9599 246.659 71.9599C247.022 71.9599 247.352 71.8711 247.659 71.7017Z" fill="white"/>
<path d="M256.153 67.1841C256.153 67.1841 256.193 67.2325 256.193 67.2729C256.193 67.289 256.193 67.3132 256.177 67.3455L253.773 72.7908L252.805 75.0415C252.765 75.1303 252.7 75.1787 252.612 75.1787H251.845C251.716 75.1787 251.652 75.1383 251.652 75.0496C251.652 75.0254 251.66 74.9851 251.684 74.9367L252.595 72.7827L250.208 67.3535C250.208 67.3535 250.191 67.2971 250.191 67.2729C250.191 67.2406 250.208 67.2083 250.232 67.1922C250.256 67.168 250.288 67.1599 250.329 67.1599H251.28C251.329 67.1599 251.377 67.176 251.418 67.2003C251.458 67.2245 251.482 67.2648 251.498 67.3051L253.2 71.4436L254.911 67.3051C254.927 67.2648 254.951 67.2325 254.991 67.2003C255.032 67.168 255.072 67.1599 255.12 67.1599H256.072C256.072 67.1599 256.137 67.168 256.161 67.1922L256.153 67.1841Z" fill="white"/>
<path d="M263.362 72.0325C263.362 72.0325 263.394 72.097 263.394 72.1212V73.8557C263.394 73.9122 263.378 73.9525 263.354 73.9767C263.322 74.0009 263.289 74.017 263.257 74.017H262.434C262.394 74.017 262.354 74.0009 262.329 73.9686C262.297 73.9364 262.289 73.9041 262.289 73.8557V72.936H257.715V73.8557C257.715 73.896 257.699 73.9364 257.675 73.9686C257.642 74.0009 257.61 74.017 257.562 74.017H256.739C256.739 74.017 256.674 74.0009 256.642 73.9767C256.61 73.9525 256.594 73.9122 256.594 73.8557V72.1212C256.594 72.1212 256.61 72.0567 256.634 72.0325C256.658 72.0083 256.699 71.9841 256.755 71.9841H257.239C257.433 71.6614 257.61 71.2016 257.763 70.6046C257.917 70.0076 258.014 69.4107 258.07 68.8137L258.215 67.2971C258.215 67.2487 258.231 67.2083 258.264 67.1841C258.296 67.1599 258.328 67.1438 258.369 67.1438H262.459C262.499 67.1438 262.539 67.1599 262.571 67.1841C262.604 67.2083 262.62 67.2487 262.62 67.289V71.976H263.249C263.306 71.976 263.346 71.9922 263.37 72.0244L263.362 72.0325ZM261.426 68.128H259.304L259.256 68.854C259.216 69.3784 259.127 69.9431 258.998 70.5643C258.869 71.1854 258.707 71.6533 258.538 71.9922H261.426V68.128Z" fill="white"/>
<path d="M269.876 67.1841C269.876 67.1841 269.916 67.2325 269.916 67.2729C269.916 67.289 269.916 67.3132 269.9 67.3455L267.496 72.7908L266.528 75.0415C266.488 75.1303 266.423 75.1787 266.334 75.1787H265.568C265.439 75.1787 265.374 75.1383 265.374 75.0496C265.374 75.0254 265.382 74.9851 265.406 74.9367L266.318 72.7827L263.93 67.3535C263.93 67.3535 263.914 67.2971 263.914 67.2729C263.914 67.2406 263.93 67.2083 263.954 67.1922C263.979 67.168 264.011 67.1599 264.051 67.1599H265.003C265.052 67.1599 265.1 67.176 265.14 67.2003C265.181 67.2245 265.205 67.2648 265.221 67.3051L266.923 71.4436L268.633 67.3051C268.649 67.2648 268.674 67.2325 268.714 67.2003C268.754 67.168 268.795 67.1599 268.843 67.1599H269.795C269.795 67.1599 269.86 67.168 269.884 67.1922L269.876 67.1841Z" fill="white"/>
<path d="M279.637 71.8873C279.637 71.8873 279.677 71.9599 279.677 72.0002V74.2268C279.677 74.2913 279.661 74.3316 279.629 74.3639C279.596 74.3962 279.564 74.4042 279.524 74.4042H278.725C278.677 74.4042 278.628 74.3881 278.596 74.3558C278.564 74.3236 278.548 74.2832 278.548 74.2268V72.9441H271.013C270.956 72.9441 270.908 72.928 270.868 72.8957C270.835 72.8634 270.819 72.815 270.819 72.7585V67.3455C270.819 67.2809 270.835 67.2325 270.868 67.2003C270.9 67.168 270.948 67.1438 271.013 67.1438H271.828C271.884 67.1438 271.933 67.1599 271.965 67.2003C271.997 67.2406 272.021 67.289 272.021 67.3455V71.968H274.151V67.3455C274.151 67.2809 274.167 67.2325 274.199 67.2003C274.232 67.168 274.28 67.1438 274.337 67.1438H275.151C275.208 67.1438 275.256 67.1599 275.297 67.2003C275.329 67.2406 275.345 67.289 275.345 67.3455V71.968H277.475V67.3455C277.475 67.2809 277.491 67.2325 277.523 67.2003C277.555 67.168 277.604 67.1438 277.66 67.1438H278.475C278.54 67.1438 278.58 67.1599 278.62 67.2003C278.653 67.2406 278.669 67.289 278.669 67.3455V71.8389H279.492C279.548 71.8389 279.596 71.855 279.621 71.8873H279.637Z" fill="white"/>
<path d="M285.036 67.394C285.495 67.6361 285.85 67.9749 286.108 68.3944C286.367 68.8219 286.504 69.2898 286.504 69.8142C286.504 69.9352 286.48 70.0562 286.423 70.1691C286.367 70.2821 286.294 70.3789 286.205 70.4515C286.108 70.5241 286.004 70.5644 285.891 70.5644H281.663C281.72 70.8306 281.849 71.0727 282.035 71.2824C282.22 71.4922 282.454 71.6616 282.736 71.7906C283.019 71.9117 283.317 71.9762 283.64 71.9762C283.874 71.9762 284.116 71.9278 284.382 71.839C284.64 71.7422 284.874 71.6212 285.076 71.4679C285.108 71.4437 285.14 71.4357 285.189 71.4357C285.245 71.4357 285.294 71.4599 285.334 71.5002L285.802 72.0811C285.802 72.0811 285.842 72.1537 285.842 72.1859C285.842 72.2424 285.818 72.2827 285.778 72.3231C285.512 72.5409 285.181 72.7264 284.777 72.8636C284.374 73.0007 283.987 73.0733 283.616 73.0733C283.027 73.0733 282.486 72.9362 282.002 72.67C281.51 72.4037 281.123 72.0327 280.841 71.5728C280.558 71.113 280.413 70.6048 280.413 70.0562C280.413 69.5076 280.55 68.9913 280.825 68.5234C281.099 68.0636 281.478 67.6925 281.954 67.4263C282.43 67.1601 282.954 67.0229 283.527 67.0229C284.1 67.0229 284.6 67.144 285.052 67.386L285.036 67.394ZM282.656 68.2895C282.406 68.4105 282.188 68.5799 282.01 68.7977C281.833 69.0155 281.72 69.2576 281.655 69.5318H285.318C285.27 69.2495 285.157 69.0075 284.987 68.7897C284.818 68.5718 284.6 68.4024 284.342 68.2895C284.084 68.1685 283.793 68.112 283.479 68.112C283.18 68.112 282.906 68.1766 282.656 68.2976V68.2895Z" fill="white"/>
<path d="M292.047 67.1841C292.047 67.1841 292.088 67.2406 292.088 67.2809V67.9989C292.088 67.9989 292.08 68.0715 292.055 68.0957C292.031 68.1199 291.999 68.136 291.95 68.136H289.006V72.8473C289.006 72.8876 288.998 72.9199 288.974 72.9441C288.949 72.9683 288.917 72.9763 288.877 72.9763H287.973C287.877 72.9763 287.828 72.936 287.828 72.8473V67.289C287.828 67.289 287.844 67.2164 287.868 67.1922C287.893 67.168 287.933 67.1519 287.973 67.1519H291.942C291.983 67.1519 292.023 67.1599 292.047 67.1841Z" fill="white"/>
<path d="M292.984 68.5154C293.267 68.0556 293.662 67.6925 294.146 67.4263C294.63 67.1601 295.178 67.0229 295.767 67.0229C296.356 67.0229 296.897 67.1601 297.381 67.4263C297.865 67.6925 298.252 68.0556 298.534 68.5154C298.817 68.9752 298.962 69.4834 298.962 70.0401C298.962 70.5967 298.817 71.0969 298.534 71.5648C298.252 72.0327 297.865 72.3876 297.381 72.6619C296.889 72.9281 296.356 73.0653 295.767 73.0653C295.178 73.0653 294.638 72.9281 294.146 72.6619C293.654 72.3957 293.267 72.0246 292.984 71.5648C292.702 71.1049 292.557 70.5967 292.557 70.0401C292.557 69.4834 292.702 68.9752 292.984 68.5154ZM294.033 71.0243C294.21 71.3228 294.452 71.5486 294.751 71.7261C295.057 71.8955 295.396 71.9842 295.767 71.9842C296.138 71.9842 296.477 71.8955 296.784 71.7261C297.09 71.5567 297.324 71.3228 297.502 71.0243C297.679 70.7258 297.76 70.4031 297.76 70.0401C297.76 69.677 297.671 69.3544 297.502 69.0639C297.324 68.7735 297.09 68.5396 296.784 68.3702C296.477 68.2008 296.138 68.112 295.767 68.112C295.396 68.112 295.057 68.2008 294.751 68.3702C294.444 68.5396 294.21 68.7735 294.033 69.0639C293.855 69.3544 293.767 69.6851 293.767 70.0401C293.767 70.395 293.855 70.7258 294.033 71.0243Z" fill="white"/>
</svg>
